<?xml version="1.0" encoding="utf-8"?>
<!-- Generator: Adobe Illustrator 27.0.0, SVG Export Plug-In . SVG Version: 6.00 Build 0)  -->
<svg version="1.1" xmlns="http://www.w3.org/2000/svg" xmlns:xlink="http://www.w3.org/1999/xlink" x="0px" y="0px"
	 viewBox="0 0 1351.4 853.63" style="enable-background:new 0 0 1351.4 853.63;" xml:space="preserve">
<style type="text/css">
	.st0{fill:#F2F2F2;}
	.st1{fill:#679FC1;}
	.st2{fill:#BAD7DF;}
	.st3{fill:#FFFFFF;}
	.st4{clip-path:url(#SVGID_00000081634899354799855380000017022603633403231130_);}
	.st5{clip-path:url(#SVGID_00000102504609743575479190000002231447220282192831_);}
	.st6{fill:url(#SVGID_00000015333711933081747050000007126098459701092021_);}
	.st7{fill:url(#SVGID_00000005955644782688642610000005522641429188610201_);}
	.st8{fill:url(#SVGID_00000008861946945267268910000005332710983958072239_);}
	.st9{fill:url(#SVGID_00000127728208444278714700000008318921324796416158_);}
	.st10{fill:url(#SVGID_00000001651441034590233540000010297605267529771440_);}
	.st11{opacity:0.48;fill:#FFFFFF;}
	.st12{fill:url(#SVGID_00000148627842395374286180000009234820600297161652_);}
	.st13{opacity:0.3;fill:url(#SVGID_00000122712446503428876760000006881005285006620048_);}
	.st14{opacity:0.75;}
	.st15{fill:url(#SVGID_00000087372426800231155660000016732412662190241716_);}
	.st16{opacity:0.74;fill:#FFFFFF;}
	.st17{fill:url(#SVGID_00000148631515367557990160000008514351918947766703_);}
	.st18{opacity:0.5;}
	.st19{fill:url(#SVGID_00000003811523928671715610000016886084359405502120_);}
	.st20{fill:url(#SVGID_00000151517129438422279510000003311883165355152007_);}
	.st21{opacity:0.3;}
	.st22{fill:url(#SVGID_00000041983623516540805370000016661816831436672418_);}
	.st23{fill:url(#SVGID_00000137120891636781926010000014128220835185663907_);}
	.st24{fill:url(#SVGID_00000063599592634157026960000013046667747209876379_);}
	.st25{fill:url(#SVGID_00000168833412526859985810000008699513866855558296_);}
	.st26{fill:url(#SVGID_00000143613844472093788390000001118768080060907910_);}
	.st27{fill:url(#SVGID_00000002375285257760982770000004407044551088017579_);}
	.st28{fill:url(#SVGID_00000017474037344961906920000006065171592363714688_);}
	.st29{fill:#F0C9B4;}
	.st30{fill:#A1B776;}
	.st31{fill:#E48862;}
	.st32{fill:#BD7759;}
	.st33{fill:#735546;}
	.st34{fill:#FFE2E2;}
	.st35{fill:#A1D0F2;}
	.st36{opacity:0.39;fill:#99DDCC;}
	.st37{opacity:0.39;fill:#BAD7DF;}
	.st38{fill:#FFFFFF;stroke:#BCBCBC;stroke-width:2;stroke-miterlimit:10;}
	.st39{clip-path:url(#SVGID_00000180351457308171793000000006778988743783268756_);}
	.st40{fill:#FFA727;}
	.st41{fill:#25292B;}
	.st42{fill:#FFBD29;}
	.st43{fill:#F2E9DA;}
	.st44{fill:#383838;}
	.st45{clip-path:url(#SVGID_00000036936802237949661050000010630996274506504873_);}
	.st46{clip-path:url(#SVGID_00000105412476382590028020000012524688455958712972_);}
	.st47{fill:url(#SVGID_00000132792356524294452250000005454001489514726035_);}
	.st48{fill:url(#SVGID_00000055693429617135051960000008102443070109904307_);}
	.st49{fill:url(#SVGID_00000090275469038536833860000013112383489587252411_);}
	.st50{fill:url(#SVGID_00000063611292288384290920000004959916974711732107_);}
	.st51{fill:url(#SVGID_00000158016500521353902740000005906266196575580821_);}
	.st52{fill:url(#SVGID_00000096029641309177992540000002633486565791965353_);}
	.st53{opacity:0.3;fill:url(#SVGID_00000163053963352582061420000005860948343690055086_);}
	.st54{fill:url(#SVGID_00000070088129939282128000000010787042995873910914_);}
	.st55{fill:url(#SVGID_00000012453968879660591360000004538250838822028432_);}
	.st56{fill:url(#SVGID_00000145746010929837391460000015650656542414784909_);}
	.st57{fill:url(#SVGID_00000150787697352218789330000018107569314771388593_);}
	.st58{fill:url(#SVGID_00000033348522415033983240000015927906002336331162_);}
	.st59{fill:url(#SVGID_00000126296540214047725530000003690898975046636730_);}
	.st60{fill:url(#SVGID_00000027573550301821498930000014408212089084414121_);}
	.st61{fill:url(#SVGID_00000008866526048497926890000006115158214221343122_);}
	.st62{fill:url(#SVGID_00000022550760422319669710000000265395668401578880_);}
	.st63{fill:url(#SVGID_00000150084402885624296130000003525283228521833659_);}
	.st64{fill:url(#SVGID_00000088837982186172675530000010003615572878011057_);}
	.st65{clip-path:url(#SVGID_00000119100007936968016630000012486799969599816598_);}
	.st66{fill:#F2D9AF;}
	.st67{opacity:0.2;fill:#383838;}
	.st68{fill:#F4CA60;}
	.st69{clip-path:url(#SVGID_00000023259128182368763330000017470194316788322222_);fill:#FFFFFF;}
	.st70{clip-path:url(#SVGID_00000041296324635274784950000017934261117216649092_);fill:#FFFFFF;}
	.st71{fill:#8CB1CC;}
	.st72{fill:#A3D2F4;}
	.st73{fill:#222220;}
	.st74{fill:#D66156;}
	.st75{fill:#684D3F;}
	.st76{fill:#5B3F30;}
	.st77{fill:none;stroke:#D66156;stroke-width:1.3728;stroke-miterlimit:10;}
	.st78{fill:#EF8A62;}
	.st79{fill:#CCED98;}
	.st80{fill:#EEEEEE;}
	.st81{fill:#F2CBB6;}
	.st82{fill:#BF7759;}
	.st83{fill:#C8A34C;}
	.st84{clip-path:url(#SVGID_00000061437454980777175630000010527688813373819012_);fill:#FFFFFF;}
	.st85{fill:#E29D7F;}
	.st86{clip-path:url(#SVGID_00000011032952013641587110000006701550655968151459_);fill:#FFFFFF;}
	.st87{fill:#D9D9D9;}
	.st88{fill:#C48B71;}
	.st89{fill:#32241B;}
	.st90{fill:#E8BA52;}
	.st91{fill:#67837A;}
	.st92{fill:#84A397;}
	.st93{fill:#A9C5BB;}
	.st94{fill:#EAE2D7;}
	.st95{fill:#454446;}
	.st96{fill:#BCBEC0;}
	.st97{fill:#A6BDD5;}
	.st98{fill:#B98636;}
	.st99{fill:#BE7140;}
	.st100{opacity:0.5;fill:#A6BDD5;}
	.st101{fill:#F0C860;}
	.st102{opacity:0.2;}
	.st103{clip-path:url(#SVGID_00000097494958322210393620000000470422050812241802_);fill:#383838;}
	.st104{clip-path:url(#SVGID_00000061472053864120052750000005015534487540753073_);fill:#383838;}
	.st105{fill:#BA9B9B;}
	.st106{fill:#D46156;}
	.st107{fill:none;stroke:#D46156;stroke-width:1.3728;stroke-miterlimit:10;}
	.st108{fill:#CAEB96;}
	.st109{fill:#ECECEC;}
	.st110{fill:#C6A24C;}
	.st111{clip-path:url(#SVGID_00000130631641719241222570000007896894870325861260_);fill:#383838;}
	.st112{fill:#E09B7E;}
	.st113{clip-path:url(#SVGID_00000006707022827701985530000006456523403343767995_);fill:#383838;}
	.st114{fill:#C28971;}
	.st115{fill:#E6B852;}
	.st116{clip-path:url(#SVGID_00000110464870982700796650000004390355774444035486_);fill:#383838;}
	.st117{clip-path:url(#SVGID_00000015327818404237623940000002091034503451873699_);fill:#383838;}
	.st118{clip-path:url(#SVGID_00000098910671543077589270000018007047028782569352_);fill:#383838;}
	.st119{clip-path:url(#SVGID_00000176034646573490438960000001719859869732433035_);fill:#383838;}
	.st120{clip-path:url(#XMLID_00000006666434880382777430000011383960315767534213_);}
	.st121{fill:#180037;}
	.st122{fill:#659FFB;}
	.st123{clip-path:url(#XMLID_00000069360633773044152080000016006785888934338197_);}
	.st124{fill:#1D1635;}
	.st125{clip-path:url(#XMLID_00000103248044915263502290000016207896951678759579_);}
	.st126{clip-path:url(#XMLID_00000021840008672680037920000017198047724548681911_);}
	.st127{clip-path:url(#XMLID_00000150811058555641276140000008381818766931054242_);}
	.st128{clip-path:url(#XMLID_00000144323642395612769880000005128850596606663093_);}
	.st129{clip-path:url(#XMLID_00000049934532092910908300000011003219655117528731_);}
	.st130{clip-path:url(#XMLID_00000079487863003865793070000008524927510582276796_);}
	.st131{clip-path:url(#XMLID_00000093899392987111913980000006201735265304552584_);}
	.st132{clip-path:url(#XMLID_00000030458748516510201500000004994201746502277764_);}
	.st133{clip-path:url(#XMLID_00000079477962162366494740000012275472016556001452_);}
	.st134{clip-path:url(#XMLID_00000014598686519490683920000012570093065361197464_);}
</style>
<g id="BACKGROUND">
	<g>
		<g>
			<path class="st0" d="M1295.71,697.31c-62.56,117.93-193.5,155.24-348.07,155.24c-269.95,0-244.54-47-372.89-69.61
				c-192.33-32.42-464.7-19.8-554.12-226.89c-58.72-167.51,89.63-352.27,222.25-445.99C664.65-170.89,1586.46,108,1295.71,697.31z"
				/>
		</g>
		<g>
			<defs>
				<rect id="SVGID_00000164503689357336519040000005866784674225934010_" x="968.06" y="331.66" width="365.81" height="516.66"/>
			</defs>
			<clipPath id="SVGID_00000140705720783439948570000011146692530199510701_">
				<use xlink:href="#SVGID_00000164503689357336519040000005866784674225934010_"  style="overflow:visible;"/>
			</clipPath>
			<g style="clip-path:url(#SVGID_00000140705720783439948570000011146692530199510701_);">
				<g>
					<g>
						<path class="st40" d="M987.91,397.66c25.02,382.31,168.5,456.54,168.5,456.54S1217.26,704.56,987.91,397.66z"/>
					</g>
					<g>
						
							<rect x="1081.3" y="454.07" transform="matrix(0.9381 -0.3463 0.3463 0.9381 -159.3714 415.2133)" class="st41" width="2.18" height="399.15"/>
					</g>
					<g>
						<polygon class="st41" points="1056.57,583.7 1009.04,535.21 1010.59,533.69 1054.73,578.71 1059.03,515.81 1061.2,515.96 
													"/>
					</g>
					<g>
						<polygon class="st41" points="1128.3,778.06 1080.77,729.56 1082.33,728.04 1126.46,773.07 1130.76,710.16 1132.93,710.31 
													"/>
					</g>
					<g>
						<polygon class="st41" points="1090.13,674.62 1042.59,626.13 1044.15,624.61 1088.28,669.63 1092.58,606.73 1094.76,606.88 
													"/>
					</g>
				</g>
				<g>
					<g>
						<path class="st40" d="M1325.08,397.66c-25.02,382.31-168.5,456.54-168.5,456.54S1095.72,704.56,1325.08,397.66z"/>
					</g>
					<g>
						
							<rect x="1031.02" y="652.56" transform="matrix(0.346 -0.9382 0.9382 0.346 191.5504 1582.0878)" class="st41" width="399.15" height="2.18"/>
					</g>
					<g>
						<polygon class="st41" points="1256.41,583.71 1251.78,515.96 1253.96,515.81 1258.25,578.71 1302.39,533.69 1303.95,535.21 
													"/>
					</g>
					<g>
						<polygon class="st41" points="1184.68,778.06 1180.05,710.31 1182.22,710.16 1186.52,773.07 1230.66,728.04 1232.21,729.56 
													"/>
					</g>
					<g>
						<polygon class="st41" points="1222.85,674.62 1218.23,606.88 1220.4,606.73 1224.7,669.63 1268.83,624.61 1270.39,626.13 
													"/>
					</g>
				</g>
				<g>
					<g>
						<path class="st42" d="M1156.52,367.56c108.9,367.32,0,486.64,0,486.64S1047.62,734.88,1156.52,367.56z"/>
					</g>
					<g>
						<rect x="1155.43" y="440.84" class="st41" width="2.18" height="399.15"/>
					</g>
					<g>
						<polygon class="st41" points="1156.52,565.87 1128.72,503.91 1130.71,503.02 1156.52,560.55 1182.33,503.02 1184.32,503.91 
													"/>
					</g>
					<g>
						<polygon class="st41" points="1156.52,773.04 1128.72,711.08 1130.71,710.19 1156.52,767.72 1182.33,710.19 1184.32,711.08 
													"/>
					</g>
					<g>
						<polygon class="st41" points="1156.52,662.79 1128.72,600.83 1130.71,599.94 1156.52,657.46 1182.33,599.94 1184.32,600.83 
													"/>
					</g>
				</g>
			</g>
		</g>
		<g>
			<g>
				<path class="st41" d="M910.13,310.79L895,290.74C897.09,298.25,901.22,305.02,910.13,310.79z"/>
				<path class="st33" d="M910.13,310.79L910.13,310.79c-8.92-5.77-13.04-12.54-15.13-20.04c-3.41-12.26-1.4-26.52-5.95-41.68
					c-16.7-66.65-99.19-96.01-154.73-59.05c-24.85,14.24-47.28,33.46-75.13,41.52c-36.92,6.12-36.37,45.99-17.18,70.84
					c10.39,9.84,15.02,22.91,12.49,35.63c-0.15,0.73-0.32,1.47-0.51,2.2l-0.03,0.13l-0.12,0.46l-10.38,38.81
					c0,0,0.83,45.07,21.59,57.92c20.76,12.85,29.48,3.42,29.48,3.42s7.91-7.25,15.91-0.62c8,6.63,140.43-32.98,140.43-32.98
					l37.15-27.74c0,0,12.74-5.69,15.85-19.42C906.98,346.44,926.96,340.05,910.13,310.79z"/>
				<path class="st41" d="M653.99,340.19c-0.05,0.2-0.1,0.4-0.15,0.59l0.12-0.46L653.99,340.19z"/>
			</g>
			<g>
				<g>
					<g>
						<path class="st43" d="M876.8,344.26c-5.27,20.17-17.97,32.75-36.73,30.11l16.95,69.89l1.94,7.95l-31.92,32.77
							c-10.02,10.28-22.98,15.19-35.84,15.19c-18.52,0-36.78-10.15-45.56-28.91l2.55-10.26l3.68-14.75l-3.07-0.96
							c-11.81-3.77-22.98-9.37-33.03-16.62c-3.49-2.52-6.8-5.23-9.92-8.12c-8.23-7.63-15.1-16.49-20.41-26.19
							c-7.3-13.4-11.63-28.41-12.44-44.1l-2.37-46.21c1.83-8.02,5.05-14.99,9.02-20.98c13.59-20.72,35.36-29.74,35.36-29.74
							c4.64,7.45,10.07,13.81,15.93,19.35c34.6,32.4,85.25,33.79,88.63,33.83l0.2,0.02v0.26c0.04,0,0.09-0.04,0.09-0.07
							c6.19-6.73,14.29-11.13,22.96-12.37c4.49-0.63,9.15-0.39,13.75,0.78C876.58,300.41,882.49,322.59,876.8,344.26z"/>
					</g>
				</g>
				<g>
					<g>
						
							<ellipse transform="matrix(0.9725 -0.2327 0.2327 0.9725 -63.606 169.8485)" class="st41" cx="687.99" cy="354.48" rx="10.18" ry="11.26"/>
					</g>
				</g>
				<g>
					<g>
						
							<ellipse transform="matrix(0.9725 -0.2327 0.2327 0.9725 -58.6004 183.4631)" class="st41" cx="748.19" cy="340.07" rx="10.18" ry="11.26"/>
					</g>
				</g>
				<g>
					<g>
						<path class="st33" d="M685.63,326.52c-7.83,1.23-15.65,4.75-20.27,9.5c-0.92,0.95-0.95,2.12,0.41,2.48
							c1.23,0.32,3.27-0.04,4.25-1.05c0.45-0.47,0.94-0.93,1.46-1.37c0.26-0.22,0.52-0.43,0.79-0.64c0.03-0.02,0.06-0.05,0.09-0.07
							c0.15-0.1,0.29-0.21,0.44-0.31c0.6-0.41,1.22-0.81,1.87-1.19c0.33-0.19,0.66-0.37,0.99-0.56c0.06-0.03,0.12-0.06,0.16-0.09
							c0.19-0.1,0.38-0.19,0.57-0.28c0.7-0.34,1.42-0.65,2.16-0.95c0.37-0.15,0.74-0.29,1.11-0.42c0.19-0.07,0.38-0.13,0.56-0.2
							c0.01,0,0,0,0.01,0c0.02-0.01,0.01,0,0.05-0.02c0.77-0.23,1.53-0.45,2.31-0.64c0.39-0.09,0.78-0.18,1.17-0.26
							c0.19-0.04,0.39-0.08,0.58-0.11c0.05-0.01,0.08-0.02,0.1-0.02c0.04-0.01,0.06-0.01,0.11-0.02c1.57-0.25,3.27-1.05,3.5-2.14
							C688.27,327.24,687.31,326.26,685.63,326.52z"/>
					</g>
				</g>
				<g>
					<g>
						<path class="st33" d="M732.86,319.34c0.9,0.66,2.8,0.47,4.24-0.04c0.05-0.02,0.07-0.02,0.1-0.04
							c0.02-0.01,0.04-0.01,0.09-0.03c0.18-0.06,0.37-0.12,0.55-0.18c0.37-0.11,0.74-0.22,1.12-0.33c0.76-0.21,1.52-0.39,2.3-0.56
							c0.04-0.01,0.03-0.01,0.05-0.01c0.01,0,0,0,0.01,0c0.2-0.04,0.39-0.07,0.59-0.11c0.39-0.07,0.79-0.13,1.18-0.19
							c0.79-0.12,1.58-0.21,2.38-0.29c0.22-0.02,0.43-0.04,0.65-0.05c0.05,0,0.12-0.01,0.19-0.01c0.39-0.02,0.78-0.04,1.17-0.05
							c0.78-0.02,1.55-0.02,2.3,0.01c0.19,0.01,0.38,0.02,0.56,0.02c0.04,0,0.08,0,0.12,0.01c0.36,0.03,0.72,0.06,1.07,0.1
							c0.72,0.08,1.41,0.19,2.09,0.32c1.46,0.27,3.36-0.36,4.15-1.13c0.87-0.85,0.08-1.64-1.28-1.9
							c-6.87-1.29-15.53-0.32-22.71,2.25C732.25,317.69,732.11,318.79,732.86,319.34z"/>
					</g>
				</g>
				<g>
					<path class="st41" d="M845.99,364.22c-0.58,0-1.06-0.45-1.09-1.03c-0.03-0.6,0.43-1.11,1.03-1.14
						c6.62-0.34,12.96-4.87,15.43-11.02c2.47-6.15,1.02-13.81-3.52-18.63c-2.39-2.54-5.4-4.06-8.25-4.16
						c-3.24-0.2-6.22,1.7-7.23,4.32c-0.18,0.47-0.67,0.75-1.17,0.69c-0.5-0.07-0.89-0.48-0.93-0.99c-0.38-4.36-0.6-9.49,0.66-14.53
						c1.34-5.36,4.24-9.71,8.14-12.26c2.83-1.85,5.98-2.5,8.63-1.77c3.7,1,6.05,4.28,8.15,7.57c0.32,0.51,0.17,1.18-0.33,1.5
						c-0.5,0.32-1.18,0.17-1.5-0.33c-1.94-3.04-3.93-5.84-6.88-6.64c-2.07-0.55-4.57-0.01-6.87,1.49
						c-3.44,2.25-6.01,6.15-7.22,10.97c-0.9,3.58-0.99,7.27-0.83,10.66c1.86-1.86,4.58-2.95,7.46-2.86
						c3.47,0.12,6.93,1.84,9.76,4.85c5.18,5.51,6.77,13.92,3.95,20.94c-2.82,7.02-9.79,12-17.34,12.38
						C846.03,364.22,846.01,364.22,845.99,364.22z"/>
				</g>
				<g>
					<path class="st41" d="M755.05,447.33c-0.43,0-0.87-0.01-1.31-0.03c-7.32-0.36-14.17-3.76-20.47-7.38
						c-0.52-0.3-0.7-0.97-0.4-1.49c0.3-0.53,0.97-0.7,1.49-0.4c7.01,4.03,13.01,6.78,19.49,7.1c7.8,0.37,14.89-3.1,19.41-6.1
						c6.01-3.99,11.17-9.34,15.72-14.07c0.42-0.44,1.11-0.44,1.54-0.03c0.43,0.42,0.45,1.11,0.03,1.54
						c-4.63,4.81-9.88,10.26-16.09,14.37C769.92,443.85,762.96,447.33,755.05,447.33z"/>
				</g>
				<g>
					<path class="st41" d="M736.68,401.79c-0.56,0-1.03-0.42-1.08-0.99c-0.06-0.6,0.39-1.13,0.99-1.19
						c4.13-0.38,8.07-2.4,10.79-5.53c2.73-3.13,4.18-7.3,4-11.45c-0.03-0.6,0.44-1.11,1.04-1.14c0.02,0,0.03,0,0.05,0
						c0.58,0,1.06,0.46,1.09,1.04c0.21,4.7-1.44,9.43-4.53,12.98c-3.09,3.55-7.55,5.83-12.24,6.27
						C736.75,401.79,736.71,401.79,736.68,401.79z"/>
				</g>
				<g>
					<path class="st41" d="M712.28,388.93c-0.21,0-0.41-0.06-0.59-0.17c-0.31-0.2-0.5-0.54-0.5-0.91l-0.29-47.54
						c0-0.6,0.48-1.09,1.08-1.1c0,0,0,0,0.01,0c0.6,0,1.08,0.48,1.09,1.08l0.27,45.87l19.69-8.82c0.54-0.25,1.19,0,1.44,0.55
						c0.25,0.55,0,1.19-0.55,1.44l-21.21,9.51C712.58,388.9,712.43,388.93,712.28,388.93z"/>
				</g>
			</g>
			<g>
				<g>
					<g>
						<path class="st42" d="M671.37,391.7c-21.57,0-39.12-21.9-39.12-48.81s17.55-48.82,39.12-48.82c21.57,0,39.12,21.9,39.12,48.82
							S692.94,391.7,671.37,391.7z M671.37,298.43c-19.17,0-34.77,19.94-34.77,44.46c0,24.51,15.6,44.46,34.77,44.46
							c19.17,0,34.76-19.94,34.76-44.46C706.13,318.38,690.53,298.43,671.37,298.43z"/>
					</g>
				</g>
				<g>
					<g>
						<path class="st42" d="M752.48,373.89c-21.57,0-39.12-21.9-39.12-48.81s17.55-48.81,39.12-48.81
							c21.57,0,39.12,21.9,39.12,48.81S774.05,373.89,752.48,373.89z M752.48,280.62c-19.17,0-34.77,19.94-34.77,44.46
							s15.6,44.46,34.77,44.46c19.17,0,34.76-19.94,34.76-44.46S771.65,280.62,752.48,280.62z"/>
					</g>
				</g>
				<g>
					<g>
						<path class="st42" d="M788.13,315c-1.02,0-1.93-0.71-2.13-1.75c-0.24-1.18,0.53-2.33,1.71-2.56l31.45-6.31
							c1.18-0.24,2.33,0.53,2.56,1.71c0.24,1.18-0.53,2.33-1.71,2.56l-31.45,6.31C788.41,314.99,788.27,315,788.13,315z"/>
					</g>
				</g>
				<g>
					<g>
						<path class="st42" d="M708.04,339.51c-1.1,0-2.04-0.83-2.16-1.95c-0.13-1.2,0.74-2.27,1.93-2.4l7.49-0.8
							c1.23-0.12,2.27,0.74,2.4,1.93c0.13,1.2-0.74,2.27-1.93,2.4l-7.49,0.8C708.19,339.51,708.12,339.51,708.04,339.51z"/>
					</g>
				</g>
			</g>
			<g>
				<g>
					<path class="st1" d="M1038.22,852.54h-597.6v-62.68l158.98-44.53l28.21-184.12c5.75-37.58,31.74-68.95,67.6-81.59L748.19,461
						l-2.55,10.26c8.78,18.76,27.04,28.91,45.56,28.91c12.85,0,25.82-4.9,35.84-15.19l31.92-32.77l-1.94-7.95l137.08,5.16
						c48.95,5.66,87.04,45.19,90.89,94.31l18.69,237.97C1106.69,819.91,1076.52,852.54,1038.22,852.54z"/>
				</g>
				<g>
					<polygon class="st43" points="745.64,471.26 736.68,852.54 829.14,852.54 858.96,452.22 					"/>
				</g>
				<g>
					<path class="st41" d="M784.32,528.09c-0.24,0-0.49-0.08-0.68-0.24c-27.64-22.2-38.92-55.92-39.03-56.26
						c-0.19-0.57,0.13-1.19,0.7-1.37c0.57-0.19,1.19,0.12,1.37,0.7c0.11,0.33,11.05,33.03,37.81,54.82
						c5.13-2.36,42.94-21.1,73.53-74.07c0.3-0.52,0.97-0.7,1.49-0.4c0.52,0.3,0.7,0.97,0.4,1.49
						c-33.12,57.35-74.75,75.08-75.16,75.25C784.6,528.07,784.46,528.09,784.32,528.09z"/>
				</g>
				<g>
					<path class="st41" d="M697.71,853.63c-0.55,0-1.03-0.42-1.08-0.99l-9.69-101.19c-2.13-3.38-23.41-37.6-26.64-60.77
						c-3.33-23.89,25.44-116.76,26.66-120.7c0.18-0.57,0.78-0.9,1.36-0.72c0.57,0.18,0.9,0.79,0.72,1.36
						c-0.3,0.96-29.84,96.34-26.58,119.75c3.26,23.41,26.23,59.77,26.46,60.13c0.09,0.14,0.15,0.31,0.17,0.48l9.72,101.45
						c0.06,0.6-0.38,1.13-0.98,1.19C697.78,853.63,697.75,853.63,697.71,853.63z"/>
				</g>
				<g>
					<path class="st41" d="M849.73,752.19c-0.14,0-0.29-0.03-0.43-0.09c-0.55-0.24-0.81-0.88-0.57-1.43
						c0.61-1.42,60.79-142.8,61.09-200.65c0.3-57.7-31.52-102.7-31.84-103.14c-0.35-0.49-0.24-1.17,0.25-1.52
						c0.49-0.35,1.17-0.24,1.52,0.25c0.33,0.45,32.55,46,32.25,104.43c-0.3,58.29-60.65,200.07-61.26,201.5
						C850.55,751.94,850.15,752.19,849.73,752.19z"/>
				</g>
				<g>
					<path class="st41" d="M732.72,747.95c-0.46,0-0.88-0.29-1.03-0.74c-0.32-0.94-31.76-94.57-33.86-167.48
						c-2.11-73.16,30.64-112.5,30.97-112.89c0.39-0.46,1.08-0.51,1.54-0.12c0.46,0.39,0.51,1.08,0.12,1.54
						c-0.33,0.38-32.53,39.15-30.45,111.41c2.09,72.58,33.43,165.91,33.75,166.84c0.19,0.57-0.11,1.19-0.68,1.38
						C732.96,747.93,732.84,747.95,732.72,747.95z"/>
				</g>
				<g>
					<path class="st43" d="M835.19,765.63l-110.53-6.97c0,0-19.99-3.08-26.95,9.08c0,0-24.68-6.81-34.82,4.54
						c0,0-17.87-7.27-29.37,10.6c-11.51,17.87-32.1,56.33-32.1,56.33h121.74c0,0,10.3,12.11,52.99,12.11
						c42.7,0,54.1-13.66,54.1-13.66L835.19,765.63z"/>
				</g>
				<g>
					<path class="st41" d="M835.19,766.72c-0.02,0-0.04,0-0.07,0l-98.51-6.21c-0.6-0.04-1.06-0.56-1.02-1.16
						c0.04-0.6,0.47-1.1,1.16-1.02l98.51,6.21c0.6,0.04,1.06,0.56,1.02,1.16C836.24,766.28,835.76,766.72,835.19,766.72z"/>
				</g>
				<g>
					<path class="st41" d="M829.14,853.63c-0.03,0-0.06,0-0.08,0c-0.6-0.04-1.05-0.57-1.01-1.17l7.01-94.11c0.04-0.54,0.47-0.96,1-1
						l146.87-11.49l-25.26-166c-0.09-0.6,0.32-1.15,0.91-1.24c0.6-0.08,1.15,0.32,1.24,0.91l25.44,167.16
						c0.05,0.3-0.04,0.6-0.22,0.84c-0.19,0.24-0.47,0.39-0.77,0.41l-147.1,11.51l-6.94,93.18
						C830.18,853.2,829.7,853.63,829.14,853.63z"/>
				</g>
				<g>
					<path class="st41" d="M861.24,850.5c-0.07,0-0.13-0.01-0.2-0.02c-0.59-0.11-0.98-0.68-0.87-1.27l16.55-89.99
						c0.11-0.59,0.66-0.97,1.27-0.87c0.59,0.11,0.98,0.68,0.87,1.27l-16.55,89.99C862.21,850.14,861.75,850.5,861.24,850.5z"/>
				</g>
				<g>
					<path class="st41" d="M776.24,852.39c-36.53,0-51.13-10.22-53.49-12.08h-43.35c-0.38,0.04-12,1.14-18.28-4.54
						c-2.57-2.33-3.88-5.44-3.88-9.27c0-12.62,10.74-15.12,10.85-15.15l80.79-11.22c0.55-0.08,1.14,0.33,1.23,0.93
						c0.08,0.6-0.33,1.14-0.93,1.23l-80.7,11.2c-0.29,0.07-9.05,2.17-9.05,13c0,3.18,1.06,5.75,3.16,7.65
						c5.56,5.03,16.6,4,16.71,3.99l43.85-0.01c0.26,0,0.52,0.1,0.72,0.27c0.16,0.13,16.34,13.68,62.02,11.59
						c0.63-0.07,1.11,0.44,1.14,1.04c0.03,0.6-0.44,1.11-1.04,1.14C782.58,852.32,779.33,852.39,776.24,852.39z"/>
				</g>
				<g>
					<path class="st41" d="M643.96,840.31c-0.09,0-0.17-0.01-0.26-0.03c-0.59-0.14-0.94-0.73-0.8-1.31l2.83-11.63
						c2.86-11.73,9.09-22.21,18.03-30.31l33.21-30.09c0.44-0.4,1.13-0.37,1.54,0.07c0.4,0.45,0.37,1.14-0.07,1.54l-33.21,30.09
						c-8.62,7.81-14.63,17.91-17.38,29.21l-2.83,11.63C644.9,839.97,644.45,840.31,643.96,840.31z"/>
				</g>
				<g>
					<path class="st41" d="M626.85,840.31c-0.1,0-0.21-0.01-0.31-0.04c-0.58-0.17-0.91-0.78-0.74-1.35l6.89-23.35
						c2.2-7.46,5.77-14.33,10.61-20.41l18.73-23.53c0.37-0.47,1.07-0.55,1.53-0.17c0.47,0.37,0.55,1.06,0.17,1.53l-18.73,23.53
						c-4.67,5.86-8.11,12.48-10.23,19.67l-6.89,23.35C627.75,840,627.32,840.31,626.85,840.31z"/>
				</g>
			</g>
			<g>
				<g>
					<rect x="233.48" y="839.22" class="st44" width="488.66" height="16.96"/>
				</g>
				<g>
					<polygon class="st44" points="233.48,839.22 568.66,839.22 459.72,570.31 124.55,570.31 					"/>
				</g>
				<g>
					<path class="st43" d="M550.9,840.31H235.66c-0.6,0-1.09-0.49-1.09-1.09s0.49-1.09,1.09-1.09h313.6L441.78,580.12
						c-0.23-0.56,0.03-1.19,0.59-1.43c0.55-0.22,1.19,0.03,1.43,0.59L551.91,838.8c0.14,0.34,0.1,0.72-0.1,1.02
						C551.6,840.12,551.26,840.31,550.9,840.31z"/>
				</g>
			</g>
			<g>
				<path class="st41" d="M1214.19,853.63H34.13c-0.6,0-1.09-0.49-1.09-1.09s0.49-1.09,1.09-1.09h1180.06c0.6,0,1.09,0.49,1.09,1.09
					S1214.79,853.63,1214.19,853.63z"/>
			</g>
		</g>
		<g>
			<g>
				<g>
					<rect x="36.1" y="378.34" class="st3" width="272.54" height="168.56"/>
				</g>
				<g>
					<g>
						<rect x="45.18" y="384.43" class="st42" width="254.37" height="35.43"/>
					</g>
				</g>
				<g>
					<g>
						<g>
							<g>
								<g>
									<path class="st3" d="M253.17,414.18c-0.33,0-0.67-0.11-0.95-0.33l-13.24-10.58c-0.36-0.29-0.57-0.73-0.57-1.19
										c0-0.46,0.21-0.9,0.57-1.19l13.07-10.44c0.66-0.53,1.62-0.42,2.14,0.24c0.53,0.66,0.42,1.62-0.24,2.14l-11.58,9.25
										l11.75,9.39c0.66,0.53,0.77,1.48,0.24,2.14C254.06,413.98,253.61,414.18,253.17,414.18z"/>
								</g>
							</g>
						</g>
					</g>
					<g>
						<g>
							<g>
								<g>
									<path class="st3" d="M273.44,414.18c-0.45,0-0.89-0.2-1.19-0.57c-0.53-0.66-0.42-1.62,0.24-2.14l11.75-9.39l-11.58-9.25
										c-0.66-0.53-0.77-1.48-0.24-2.14c0.53-0.66,1.48-0.77,2.14-0.24l13.07,10.44c0.36,0.29,0.57,0.73,0.57,1.19
										c0,0.46-0.21,0.9-0.57,1.19l-13.24,10.58C274.11,414.07,273.78,414.18,273.44,414.18z"/>
								</g>
							</g>
						</g>
					</g>
					<g>
						<g>
							<g>
								<g>
									<path class="st3" d="M260.33,416.98c-0.21,0.03-0.43,0.01-0.65-0.05c-0.8-0.25-1.26-1.1-1.01-1.91l8.19-26.64
										c0.25-0.8,1.1-1.26,1.91-1.01c0.8,0.25,1.26,1.1,1.01,1.91l-8.19,26.64C261.4,416.5,260.9,416.9,260.33,416.98z"/>
								</g>
							</g>
						</g>
					</g>
				</g>
				<g>
					<g>
						<rect x="45.18" y="444.39" class="st40" width="136.75" height="11.2"/>
					</g>
				</g>
				<g>
					<g>
						<rect x="188.14" y="444.39" class="st42" width="66.56" height="11.2"/>
					</g>
				</g>
				<g>
					<g>
						<rect x="261.53" y="444.39" class="st41" width="38.03" height="11.2"/>
					</g>
				</g>
				<g>
					<g>
						<polyline class="st40" points="299.9,481.03 206.73,481.03 206.73,469.83 299.9,469.83 						"/>
					</g>
				</g>
				<g>
					<g>
						
							<rect x="133.96" y="469.83" transform="matrix(-1 -1.224647e-16 1.224647e-16 -1 334.4808 950.8609)" class="st42" width="66.56" height="11.2"/>
					</g>
				</g>
				<g>
					<g>
						<polyline class="st41" points="45.53,469.83 127.13,469.83 127.13,481.03 45.53,481.03 						"/>
					</g>
				</g>
				<g>
					<g>
						<rect x="45.53" y="497.38" class="st42" width="49.6" height="11.2"/>
					</g>
				</g>
				<g>
					<g>
						<rect x="101.33" y="497.38" class="st40" width="138.45" height="11.2"/>
					</g>
				</g>
				<g>
					<g>
						<rect x="246.62" y="497.38" class="st41" width="53.28" height="11.2"/>
					</g>
				</g>
				<g>
					<g>
						<polyline class="st40" points="300.24,534.03 259.36,534.03 259.36,522.82 300.24,522.82 						"/>
					</g>
				</g>
				<g>
					<g>
						
							<rect x="134.31" y="522.82" transform="matrix(-1 -1.224647e-16 1.224647e-16 -1 387.4588 1056.8479)" class="st42" width="118.84" height="11.2"/>
					</g>
				</g>
				<g>
					<g>
						<polyline class="st41" points="45.87,522.82 127.47,522.82 127.47,534.03 45.87,534.03 						"/>
					</g>
				</g>
			</g>
			<g>
				<g>
					<g>
						<path class="st40" d="M300.36,256.75v49.48c0,14.38-11.76,26.14-26.14,26.14h-47.23l-38.84,36.53l5.59-36.53H60.27
							c-14.38,0-26.14-11.76-26.14-26.14v-49.48c0-14.38,11.76-26.14,26.14-26.14h213.94C288.59,230.6,300.36,242.37,300.36,256.75z
							"/>
					</g>
				</g>
				<g>
					<g>
						<g>
							<path class="st3" d="M128.85,288.29c0,4.11-1.04,7.76-3.13,10.94c-2.09,3.19-5.09,5.67-9.02,7.43
								c-3.93,1.77-8.54,2.65-13.82,2.65c-4.41,0-8.11-0.31-11.1-0.93c-2.99-0.62-6.1-1.7-9.34-3.24V289.2
								c3.41,1.75,6.96,3.12,10.65,4.1c3.69,0.98,7.07,1.47,10.15,1.47c2.66,0,4.61-0.46,5.85-1.38c1.24-0.92,1.86-2.11,1.86-3.56
								c0-0.91-0.25-1.7-0.75-2.38c-0.5-0.68-1.3-1.37-2.4-2.06c-1.1-0.69-4.04-2.11-8.81-4.26c-4.32-1.96-7.56-3.87-9.72-5.71
								c-2.16-1.84-3.76-3.96-4.8-6.34c-1.04-2.39-1.56-5.21-1.56-8.47c0-6.1,2.22-10.86,6.66-14.28
								c4.44-3.41,10.54-5.12,18.31-5.12c6.86,0,13.85,1.59,20.98,4.76l-5.48,13.82c-6.19-2.84-11.54-4.26-16.04-4.26
								c-2.33,0-4.02,0.41-5.08,1.22c-1.06,0.82-1.59,1.83-1.59,3.04c0,1.3,0.67,2.46,2.02,3.49c1.34,1.03,4.99,2.9,10.95,5.62
								c5.71,2.57,9.68,5.33,11.9,8.27C127.74,280.11,128.85,283.82,128.85,288.29z"/>
						</g>
					</g>
					<g>
						<g>
							<path class="st3" d="M201.1,275.19c0,15.02-4.77,25.14-14.32,30.37l16.18,18.63h-22.3l-11.69-14.73l-0.05-0.04v-0.05
								l-0.05-0.05c-10.39,0-18.36-2.92-23.91-8.75c-5.54-5.83-8.32-14.32-8.32-25.47c0-11.03,2.76-19.45,8.27-25.27
								c5.51-5.82,13.53-8.72,24.04-8.72c10.54,0,18.54,2.89,23.97,8.66C198.38,255.54,201.1,264.01,201.1,275.19z M155.5,275.19
								c0,12.81,4.46,19.22,13.37,19.22c4.53,0,7.89-1.56,10.08-4.67c2.19-3.11,3.29-7.96,3.29-14.55c0-6.62-1.11-11.5-3.33-14.66
								c-2.22-3.16-5.54-4.74-9.95-4.74C159.99,255.79,155.5,262.26,155.5,275.19z"/>
						</g>
					</g>
					<g>
						<g>
							<path class="st3" d="M213.06,308.41v-66.26h17.9v51.8h25.52v14.46H213.06z"/>
						</g>
					</g>
				</g>
			</g>
			<g>
				<g>
					<rect x="325.3" y="210.14" class="st3" width="272.54" height="336.77"/>
				</g>
				<g>
					<g>
						<rect x="334.38" y="216.22" class="st42" width="254.37" height="35.43"/>
					</g>
				</g>
				<g>
					<g>
						<g>
							<g>
								<g>
									<path class="st3" d="M542.37,245.97c-0.33,0-0.67-0.11-0.95-0.33l-13.24-10.58c-0.36-0.29-0.57-0.73-0.57-1.19
										c0-0.46,0.21-0.9,0.57-1.19l13.07-10.44c0.66-0.53,1.62-0.42,2.14,0.24c0.53,0.66,0.42,1.62-0.24,2.14l-11.58,9.25
										l11.75,9.39c0.66,0.53,0.77,1.48,0.24,2.14C543.26,245.78,542.82,245.97,542.37,245.97z"/>
								</g>
							</g>
						</g>
					</g>
					<g>
						<g>
							<g>
								<g>
									<path class="st3" d="M562.65,245.97c-0.45,0-0.89-0.2-1.19-0.57c-0.53-0.66-0.42-1.62,0.24-2.14l11.75-9.39l-11.58-9.25
										c-0.66-0.53-0.77-1.48-0.24-2.14c0.53-0.66,1.48-0.77,2.14-0.24l13.07,10.44c0.36,0.29,0.57,0.73,0.57,1.19
										c0,0.46-0.21,0.9-0.57,1.19l-13.24,10.58C563.32,245.86,562.98,245.97,562.65,245.97z"/>
								</g>
							</g>
						</g>
					</g>
					<g>
						<g>
							<g>
								<g>
									<path class="st3" d="M549.53,248.77c-0.21,0.03-0.43,0.01-0.65-0.05c-0.8-0.25-1.26-1.1-1.01-1.91l8.19-26.64
										c0.25-0.8,1.1-1.26,1.91-1.01c0.8,0.25,1.26,1.1,1.01,1.91l-8.19,26.64C550.6,248.29,550.1,248.69,549.53,248.77z"/>
								</g>
							</g>
						</g>
					</g>
				</g>
				<g>
					<g>
						
							<rect x="379.59" y="464.27" transform="matrix(-1 -1.224647e-16 1.224647e-16 -1 866.5 939.7389)" class="st42" width="107.32" height="11.2"/>
					</g>
				</g>
				<g>
					<g>
						
							<rect x="334.73" y="464.27" transform="matrix(-1 -1.224647e-16 1.224647e-16 -1 707.4851 939.7391)" class="st41" width="38.03" height="11.2"/>
					</g>
				</g>
				<g>
					<g>
						<polyline class="st41" points="334.38,438.83 427.56,438.83 427.56,450.03 334.38,450.03 						"/>
					</g>
				</g>
				<g>
					<g>
						<rect x="433.76" y="438.83" class="st42" width="66.56" height="11.2"/>
					</g>
				</g>
				<g>
					<g>
						<polyline class="st40" points="588.76,450.03 507.16,450.03 507.16,438.83 588.76,438.83 						"/>
					</g>
				</g>
				<g>
					<g>
						
							<rect x="539.16" y="411.27" transform="matrix(-1 -1.224647e-16 1.224647e-16 -1 1127.9124 833.7521)" class="st42" width="49.6" height="11.2"/>
					</g>
				</g>
				<g>
					<g>
						
							<rect x="394.5" y="411.27" transform="matrix(-1 -1.224647e-16 1.224647e-16 -1 927.4459 833.7521)" class="st40" width="138.45" height="11.2"/>
					</g>
				</g>
				<g>
					<g>
						
							<rect x="334.38" y="411.27" transform="matrix(-1 -1.224647e-16 1.224647e-16 -1 722.0453 833.7521)" class="st41" width="53.28" height="11.2"/>
					</g>
				</g>
				<g>
					<g>
						<rect x="467.04" y="385.84" class="st42" width="32.93" height="11.2"/>
					</g>
				</g>
				<g>
					<g>
						<polyline class="st41" points="588.41,397.04 506.81,397.04 506.81,385.84 588.41,385.84 						"/>
					</g>
				</g>
				<g>
					<g>
						
							<rect x="467.04" y="354.62" transform="matrix(-1 -1.224647e-16 1.224647e-16 -1 1056.4893 720.4364)" class="st40" width="122.4" height="11.2"/>
					</g>
				</g>
				<g>
					<g>
						<rect x="467.04" y="329.18" class="st41" width="33.62" height="11.2"/>
					</g>
				</g>
				<g>
					<g>
						<polyline class="st42" points="589.24,340.38 507.64,340.38 507.5,329.18 589.1,329.18 						"/>
					</g>
				</g>
				<g>
					<g>
						
							<rect x="539.5" y="301.62" transform="matrix(-1 -1.224647e-16 1.224647e-16 -1 1128.6028 614.4493)" class="st42" width="49.6" height="11.2"/>
					</g>
				</g>
				<g>
					<g>
						
							<rect x="467.04" y="301.62" transform="matrix(-1 -1.224647e-16 1.224647e-16 -1 1000.3366 614.4493)" class="st40" width="66.25" height="11.2"/>
					</g>
				</g>
				<g>
					<g>
						<rect x="467.04" y="276.18" class="st42" width="33.28" height="11.2"/>
					</g>
				</g>
				<g>
					<g>
						<polyline class="st41" points="588.76,287.39 507.16,287.39 507.16,276.18 588.76,276.18 						"/>
					</g>
				</g>
				<g>
					<g>
						<polyline class="st40" points="333.76,518.4 426.93,518.4 426.93,529.61 333.76,529.61 						"/>
					</g>
				</g>
				<g>
					<g>
						<rect x="433.14" y="518.4" class="st41" width="53.77" height="11.2"/>
					</g>
				</g>
				<g>
					<g>
						
							<rect x="333.76" y="490.85" transform="matrix(-1 -1.224647e-16 1.224647e-16 -1 720.7902 992.8989)" class="st41" width="53.28" height="11.2"/>
					</g>
				</g>
				<path class="st40" d="M606.71,477.89v92.22c0,2.92-2.4,5.32-5.32,5.32h-95.93c-2.94,0-5.34-2.4-5.34-5.32v-92.22
					c0-2.92,2.4-5.32,5.34-5.32h95.93C604.31,472.58,606.71,474.97,606.71,477.89z"/>
				<g>
					<g>
						<polyline class="st40" points="486.91,502.05 393.72,502.05 393.72,490.85 486.91,490.85 						"/>
					</g>
				</g>
				<g>
					<path class="st3" d="M598.23,563.52h-84.55c-2.34,0-4.24-1.9-4.24-4.24v-75.1c0-2.34,1.9-4.24,4.24-4.24h84.55
						c2.34,0,4.24,1.9,4.24,4.24v75.1C602.47,561.62,600.56,563.52,598.23,563.52z M513.68,482.12c-1.14,0-2.06,0.92-2.06,2.06v75.1
						c0,1.14,0.92,2.06,2.06,2.06h84.55c1.14,0,2.06-0.92,2.06-2.06v-75.1c0-1.14-0.92-2.06-2.06-2.06H513.68z"/>
				</g>
				<g>
					<g>
						<g>
							<g>
								<g>
									<path class="st3" d="M540.43,544.46c-0.51,0-1.02-0.21-1.45-0.63l-20.27-19.97c-0.55-0.55-0.88-1.37-0.88-2.25
										c0-0.87,0.32-1.7,0.88-2.25l20.01-19.72c1.01-0.99,2.48-0.79,3.28,0.45c0.8,1.24,0.64,3.05-0.37,4.05L523.9,521.6
										l17.99,17.72c1.01,0.99,1.17,2.8,0.37,4.05C541.79,544.09,541.11,544.46,540.43,544.46z"/>
								</g>
							</g>
						</g>
					</g>
					<g>
						<g>
							<g>
								<g>
									<path class="st3" d="M571.48,544.46c-0.69,0-1.36-0.37-1.83-1.08c-0.8-1.24-0.64-3.05,0.37-4.05l17.99-17.72l-17.73-17.47
										c-1.01-0.99-1.17-2.8-0.37-4.05c0.81-1.24,2.27-1.44,3.28-0.45l20.01,19.72c0.55,0.55,0.88,1.37,0.88,2.25
										c0,0.88-0.32,1.7-0.88,2.25l-20.27,19.97C572.5,544.25,571.99,544.46,571.48,544.46z"/>
								</g>
							</g>
						</g>
					</g>
					<g>
						<g>
							<g>
								<g>
									<path class="st3" d="M551.4,549.74c-0.33,0.05-0.67,0.03-1-0.1c-1.23-0.47-1.92-2.08-1.54-3.6l12.55-50.3
										c0.38-1.52,1.68-2.37,2.92-1.9c1.23,0.47,1.92,2.08,1.54,3.6l-12.55,50.3C553.04,548.84,552.27,549.59,551.4,549.74z"/>
								</g>
							</g>
						</g>
					</g>
				</g>
			</g>
			<g>
				<g>
					<rect x="335.07" y="269.55" class="st42" width="121.94" height="35.53"/>
				</g>
				<g>
					<rect x="335.07" y="316.13" class="st42" width="121.94" height="35.53"/>
				</g>
				<g>
					<rect x="335.07" y="362.16" class="st42" width="121.94" height="35.53"/>
				</g>
				<g>
					<path class="st41" d="M443.92,314.17h-95.75v-7.18h95.75V314.17z M350.35,311.99h91.39v-2.82h-91.39V311.99z"/>
				</g>
				<g>
					<path class="st41" d="M443.92,360.89h-95.75v-7.18h95.75V360.89z M350.35,358.71h91.39v-2.82h-91.39V358.71z"/>
				</g>
				<g>
					<path class="st41" d="M351.49,297.21c-5.23,0-9.49-4.26-9.49-9.49c0-5.23,4.26-9.49,9.49-9.49c5.23,0,9.49,4.26,9.49,9.49
						C360.99,292.95,356.73,297.21,351.49,297.21z M351.49,280.4c-4.03,0-7.31,3.28-7.31,7.31c0,4.03,3.28,7.31,7.31,7.31
						s7.31-3.28,7.31-7.31C358.81,283.68,355.53,280.4,351.49,280.4z"/>
				</g>
				<g>
					<path class="st41" d="M351.49,342.02c-5.23,0-9.49-4.26-9.49-9.49c0-5.23,4.26-9.49,9.49-9.49c5.23,0,9.49,4.26,9.49,9.49
						C360.99,337.76,356.73,342.02,351.49,342.02z M351.49,325.21c-4.03,0-7.31,3.28-7.31,7.31c0,4.03,3.28,7.31,7.31,7.31
						s7.31-3.28,7.31-7.31C358.81,328.49,355.53,325.21,351.49,325.21z"/>
				</g>
				<g>
					<path class="st41" d="M351.49,390.44c-5.23,0-9.49-4.26-9.49-9.49c0-5.23,4.26-9.49,9.49-9.49c5.23,0,9.49,4.26,9.49,9.49
						C360.99,386.18,356.73,390.44,351.49,390.44z M351.49,373.63c-4.03,0-7.31,3.28-7.31,7.31c0,4.03,3.28,7.31,7.31,7.31
						s7.31-3.28,7.31-7.31C358.81,376.91,355.53,373.63,351.49,373.63z"/>
				</g>
				<g>
					<circle class="st43" cx="403.39" cy="287.72" r="4.16"/>
					<path class="st43" d="M448.46,287.72c0,2.3-1.86,4.16-4.16,4.16c-2.3,0-4.16-1.86-4.16-4.16c0-2.3,1.86-4.16,4.16-4.16
						C446.59,283.55,448.46,285.42,448.46,287.72z"/>
					<path class="st43" d="M428.65,287.72c0,2.3-1.86,4.16-4.16,4.16c-2.3,0-4.16-1.86-4.16-4.16c0-2.3,1.86-4.16,4.16-4.16
						C426.79,283.55,428.65,285.42,428.65,287.72z"/>
				</g>
				<g>
					<circle class="st43" cx="403.39" cy="333.9" r="4.16"/>
					<path class="st43" d="M448.46,333.9c0,2.3-1.86,4.16-4.16,4.16c-2.3,0-4.16-1.86-4.16-4.16c0-2.3,1.86-4.16,4.16-4.16
						C446.59,329.73,448.46,331.6,448.46,333.9z"/>
					<path class="st43" d="M428.65,333.9c0,2.3-1.86,4.16-4.16,4.16c-2.3,0-4.16-1.86-4.16-4.16c0-2.3,1.86-4.16,4.16-4.16
						C426.79,329.73,428.65,331.6,428.65,333.9z"/>
				</g>
				<g>
					<circle class="st43" cx="403.39" cy="380.94" r="4.16"/>
					<path class="st43" d="M448.46,380.94c0,2.3-1.86,4.16-4.16,4.16c-2.3,0-4.16-1.86-4.16-4.16c0-2.3,1.86-4.16,4.16-4.16
						C446.59,376.78,448.46,378.64,448.46,380.94z"/>
					<path class="st43" d="M428.65,380.94c0,2.3-1.86,4.16-4.16,4.16c-2.3,0-4.16-1.86-4.16-4.16c0-2.3,1.86-4.16,4.16-4.16
						C426.79,376.78,428.65,378.64,428.65,380.94z"/>
				</g>
			</g>
		</g>
	</g>
</g>
<g id="OBJECTS">
</g>
</svg>
