<?xml version="1.0" encoding="utf-8"?>
<!-- Generator: Adobe Illustrator 27.0.0, SVG Export Plug-In . SVG Version: 6.00 Build 0)  -->
<svg version="1.1" xmlns="http://www.w3.org/2000/svg" xmlns:xlink="http://www.w3.org/1999/xlink" x="0px" y="0px"
	 viewBox="0 0 88.35 74.26" style="enable-background:new 0 0 88.35 74.26;" xml:space="preserve">
<style type="text/css">
	.st0{fill:#F2F2F2;}
	.st1{fill:#679FC1;}
	.st2{fill:#BAD7DF;}
	.st3{fill:#FFFFFF;}
	.st4{clip-path:url(#SVGID_00000120561134185833952530000014088969320082627499_);}
	.st5{clip-path:url(#SVGID_00000127757101015565530490000016555311469821426853_);}
	.st6{fill:url(#SVGID_00000167359324026807963490000017386790931271948447_);}
	.st7{fill:url(#SVGID_00000051385164058625785570000018418958258245972370_);}
	.st8{fill:url(#SVGID_00000176037786390653697710000012692411809090474670_);}
	.st9{fill:url(#SVGID_00000080914653131967122900000015057453300673922999_);}
	.st10{fill:url(#SVGID_00000011712143763306167940000015837200240634693509_);}
	.st11{opacity:0.48;fill:#FFFFFF;}
	.st12{fill:url(#SVGID_00000123405383273127703590000014173921986361711030_);}
	.st13{opacity:0.3;fill:url(#SVGID_00000128473909841016065710000003764191955993704076_);}
	.st14{opacity:0.75;}
	.st15{fill:url(#SVGID_00000128479049746388943700000007376701434695229624_);}
	.st16{opacity:0.74;fill:#FFFFFF;}
	.st17{fill:url(#SVGID_00000042006388352596801090000003694182903871917492_);}
	.st18{opacity:0.5;}
	.st19{fill:url(#SVGID_00000119099523336613644920000012338313761463867287_);}
	.st20{fill:url(#SVGID_00000150096169259997100610000010859684728500818356_);}
	.st21{opacity:0.3;}
	.st22{fill:url(#SVGID_00000129168315182970633150000006968954294849803950_);}
	.st23{fill:url(#SVGID_00000075857587040887361470000007369671288508254851_);}
	.st24{fill:url(#SVGID_00000052820154615183638730000017498793038694372514_);}
	.st25{fill:url(#SVGID_00000087409988112282303080000007990390541890991017_);}
	.st26{fill:url(#SVGID_00000092442840482986597080000006319501657418224005_);}
	.st27{fill:url(#SVGID_00000132780668935996309890000001791226073797663934_);}
	.st28{fill:url(#SVGID_00000073699272611238485380000011771817814618857394_);}
	.st29{fill:#F0C9B4;}
	.st30{fill:#A1B776;}
	.st31{fill:#E48862;}
	.st32{fill:#BD7759;}
	.st33{fill:#735546;}
	.st34{fill:#FFE2E2;}
	.st35{fill:#A1D0F2;}
	.st36{opacity:0.39;fill:#99DDCC;}
	.st37{opacity:0.39;fill:#BAD7DF;}
	.st38{fill:#FFFFFF;stroke:#BCBCBC;stroke-width:2;stroke-miterlimit:10;}
	.st39{clip-path:url(#SVGID_00000073707724842258325490000014628992209818412199_);}
	.st40{fill:#FFA727;}
	.st41{fill:#25292B;}
	.st42{fill:#FFBD29;}
	.st43{fill:#F2E9DA;}
	.st44{fill:#383838;}
	.st45{clip-path:url(#SVGID_00000105407199708544101720000004027816727796803713_);}
	.st46{clip-path:url(#SVGID_00000045615564871927500320000011802713207138800034_);}
	.st47{fill:url(#SVGID_00000111164292300271336840000004688340737105938323_);}
	.st48{fill:url(#SVGID_00000136403262310745941390000010496947914448748963_);}
	.st49{fill:url(#SVGID_00000062181478200272286520000012670700078149626004_);}
	.st50{fill:url(#SVGID_00000023254754932381778000000009768445280069820068_);}
	.st51{fill:url(#SVGID_00000026873920560351540510000006555209942076208260_);}
	.st52{fill:url(#SVGID_00000080205624033423714450000013012845422671422624_);}
	.st53{opacity:0.3;fill:url(#SVGID_00000146479218755893488360000009069896877632203650_);}
	.st54{fill:url(#SVGID_00000111169992310688345800000016769718877408732597_);}
	.st55{fill:url(#SVGID_00000010283900707630301730000008406911675668864161_);}
	.st56{fill:url(#SVGID_00000084505236304737819760000011009507403155019178_);}
	.st57{fill:url(#SVGID_00000061441357579166879970000017719688664387839108_);}
	.st58{fill:url(#SVGID_00000090256795578941573550000007180524015721869455_);}
	.st59{fill:url(#SVGID_00000023982962424360667810000001936157092620900744_);}
	.st60{fill:url(#SVGID_00000088823736992564265910000012427416853704829353_);}
	.st61{fill:url(#SVGID_00000018937477925151893730000012848622403187560639_);}
	.st62{fill:url(#SVGID_00000065755156709430885230000011358558276334605447_);}
	.st63{fill:url(#SVGID_00000083074932717742518630000018083676962812433053_);}
	.st64{fill:url(#SVGID_00000132776881670661249940000013440905794998592700_);}
	.st65{clip-path:url(#SVGID_00000096774554138993492010000014899104136628228503_);}
	.st66{fill:#F2D9AF;}
	.st67{opacity:0.2;fill:#383838;}
	.st68{fill:#F4CA60;}
	.st69{clip-path:url(#SVGID_00000101818421345699270160000015523757236659699348_);fill:#FFFFFF;}
	.st70{clip-path:url(#SVGID_00000098928067578124710710000006046895073542015624_);fill:#FFFFFF;}
	.st71{fill:#8CB1CC;}
	.st72{fill:#A3D2F4;}
	.st73{fill:#222220;}
	.st74{fill:#D66156;}
	.st75{fill:#684D3F;}
	.st76{fill:#5B3F30;}
	.st77{fill:none;stroke:#D66156;stroke-width:1.3728;stroke-miterlimit:10;}
	.st78{fill:#EF8A62;}
	.st79{fill:#CCED98;}
	.st80{fill:#EEEEEE;}
	.st81{fill:#F2CBB6;}
	.st82{fill:#BF7759;}
	.st83{fill:#C8A34C;}
	.st84{clip-path:url(#SVGID_00000097463831673148785810000005951433353479223458_);fill:#FFFFFF;}
	.st85{fill:#E29D7F;}
	.st86{clip-path:url(#SVGID_00000031206775814883326830000002451322861918651568_);fill:#FFFFFF;}
	.st87{fill:#D9D9D9;}
	.st88{fill:#C48B71;}
	.st89{fill:#32241B;}
	.st90{fill:#E8BA52;}
	.st91{fill:#67837A;}
	.st92{fill:#84A397;}
	.st93{fill:#A9C5BB;}
	.st94{fill:#EAE2D7;}
	.st95{fill:#454446;}
	.st96{fill:#BCBEC0;}
	.st97{fill:#A6BDD5;}
	.st98{fill:#B98636;}
	.st99{fill:#BE7140;}
	.st100{opacity:0.5;fill:#A6BDD5;}
	.st101{fill:#F0C860;}
	.st102{opacity:0.2;}
	.st103{clip-path:url(#SVGID_00000072262905255390776590000011681360073817626511_);fill:#383838;}
	.st104{clip-path:url(#SVGID_00000160184214142434704310000016224674897618325633_);fill:#383838;}
	.st105{fill:#BA9B9B;}
	.st106{fill:#D46156;}
	.st107{fill:none;stroke:#D46156;stroke-width:1.3728;stroke-miterlimit:10;}
	.st108{fill:#CAEB96;}
	.st109{fill:#ECECEC;}
	.st110{fill:#C6A24C;}
	.st111{clip-path:url(#SVGID_00000025439495513745423460000005803746292636624516_);fill:#383838;}
	.st112{fill:#E09B7E;}
	.st113{clip-path:url(#SVGID_00000178187791825201814910000014315410646214265476_);fill:#383838;}
	.st114{fill:#C28971;}
	.st115{fill:#E6B852;}
	.st116{clip-path:url(#SVGID_00000154389496821581479700000010589425810729464713_);fill:#383838;}
	.st117{clip-path:url(#SVGID_00000179620402976672953500000011784437484804411050_);fill:#383838;}
	.st118{clip-path:url(#SVGID_00000136370046719272041270000013046905059433892262_);fill:#383838;}
	.st119{clip-path:url(#SVGID_00000044153432597823537000000000476818875049963197_);fill:#383838;}
	.st120{clip-path:url(#XMLID_00000174589276390002656940000010094493277950873788_);}
	.st121{fill:#180037;}
	.st122{fill:#659FFB;}
	.st123{clip-path:url(#XMLID_00000183937361806975036100000000499532427109930144_);}
	.st124{fill:#1D1635;}
	.st125{clip-path:url(#XMLID_00000051378048199936085430000007528512905305876396_);}
	.st126{clip-path:url(#XMLID_00000048482920192106658000000001554859813391145873_);}
	.st127{clip-path:url(#XMLID_00000063598059301154804260000001104534986450212783_);}
	.st128{clip-path:url(#XMLID_00000131327165394486408200000014723881170539395218_);}
	.st129{clip-path:url(#XMLID_00000095336326843966343400000003662989378767058568_);}
	.st130{clip-path:url(#XMLID_00000150802117678837737610000017352181928166855304_);}
	.st131{clip-path:url(#XMLID_00000047750882659440560770000010511389638003527092_);}
	.st132{clip-path:url(#XMLID_00000119821640285183365980000005871633840028699564_);}
	.st133{clip-path:url(#XMLID_00000067915711415092929050000017937243165095108793_);}
	.st134{clip-path:url(#XMLID_00000104697766244714239760000010147048847905205429_);}
</style>
<g id="BACKGROUND">
	<g>
		<g>
			<g>
				<path class="st41" d="M39.46,68.66L39.46,68.66c-0.39,0-0.75-0.21-0.94-0.54L28.24,50.32c-0.19-0.34-0.19-0.75,0-1.09
					l10.28-17.79c0.19-0.34,0.55-0.54,0.94-0.54l0,0c0.39,0,0.75,0.21,0.94,0.54l10.3,17.79c0.2,0.34,0.2,0.76,0,1.09L40.4,68.11
					C40.21,68.45,39.85,68.66,39.46,68.66z M30.44,49.78l9.02,15.61l9.04-15.61l-9.04-15.61L30.44,49.78z"/>
			</g>
		</g>
		<g>
			<g>
				<path class="st41" d="M82.14,57.28c-3.42,0-6.21-2.78-6.21-6.2s2.78-6.21,6.21-6.21c3.42,0,6.21,2.79,6.21,6.21
					S85.57,57.28,82.14,57.28z M82.14,47.05c-2.22,0-4.03,1.81-4.03,4.03c0,2.22,1.81,4.03,4.03,4.03c2.22,0,4.03-1.81,4.03-4.03
					C86.17,48.85,84.36,47.05,82.14,47.05z"/>
			</g>
		</g>
		<g>
			<g>
				<path class="st41" d="M29.74,24.52c-2.99,0-5.42-2.43-5.42-5.42c0-2.99,2.43-5.42,5.42-5.42c2.99,0,5.42,2.43,5.42,5.42
					C35.17,22.09,32.73,24.52,29.74,24.52z M29.74,15.86c-1.79,0-3.24,1.46-3.24,3.24c0,1.79,1.45,3.24,3.24,3.24
					c1.79,0,3.24-1.45,3.24-3.24C32.99,17.31,31.53,15.86,29.74,15.86z"/>
			</g>
		</g>
		<g>
			<g>
				<path class="st41" d="M60.65,44.96c-2.21,0-4.01-1.8-4.01-4.01s1.8-4.01,4.01-4.01c2.21,0,4.01,1.8,4.01,4.01
					S62.86,44.96,60.65,44.96z M60.65,39.11c-1.01,0-1.83,0.82-1.83,1.83s0.82,1.83,1.83,1.83c1.01,0,1.84-0.82,1.84-1.83
					S61.66,39.11,60.65,39.11z"/>
			</g>
		</g>
		<g>
			<g>
				<path class="st41" d="M61.89,24.52L61.89,24.52c-0.39,0-0.75-0.21-0.94-0.54l-6.45-11.17c-0.19-0.34-0.19-0.75,0-1.09
					l6.45-11.17C61.14,0.21,61.5,0,61.89,0l0,0c0.39,0,0.75,0.21,0.94,0.54l6.47,11.17c0.2,0.34,0.2,0.76,0,1.09l-6.47,11.17
					C62.63,24.31,62.27,24.52,61.89,24.52z M56.69,12.26l5.2,8.99l5.21-8.99l-5.21-9L56.69,12.26z"/>
			</g>
		</g>
		<g>
			<g>
				<path class="st41" d="M6.02,66.35c-2.21,0-4.01-1.8-4.01-4.01s1.8-4.01,4.01-4.01s4.01,1.8,4.01,4.01S8.23,66.35,6.02,66.35z
					 M6.02,60.5c-1.01,0-1.83,0.82-1.83,1.83c0,1.01,0.82,1.83,1.83,1.83s1.84-0.82,1.84-1.83C7.85,61.32,7.03,60.5,6.02,60.5z"/>
			</g>
		</g>
	</g>
</g>
<g id="OBJECTS">
</g>
</svg>
