<?xml version="1.0" encoding="utf-8"?>
<!-- Generator: Adobe Illustrator 27.0.0, SVG Export Plug-In . SVG Version: 6.00 Build 0)  -->
<svg version="1.1" xmlns="http://www.w3.org/2000/svg" xmlns:xlink="http://www.w3.org/1999/xlink" x="0px" y="0px"
	 viewBox="0 0 3097.7 291.65" style="enable-background:new 0 0 3097.7 291.65;" xml:space="preserve">
<style type="text/css">
	.st0{fill:#F2F2F2;}
	.st1{fill:#679FC1;}
	.st2{fill:#BAD7DF;}
	.st3{fill:#FFFFFF;}
	.st4{clip-path:url(#SVGID_00000080910345886797875270000016814281685189346734_);}
	.st5{clip-path:url(#SVGID_00000067199139986689514000000009873371857630978239_);}
	.st6{fill:url(#SVGID_00000088128317927706466980000016273161191414207142_);}
	.st7{fill:url(#SVGID_00000098900343599773832760000005160955215855211705_);}
	.st8{fill:url(#SVGID_00000121996839179661968690000007476457398778437027_);}
	.st9{fill:url(#SVGID_00000174567165738476120910000008201061643283177644_);}
	.st10{fill:url(#SVGID_00000046304897480698012130000012299706474657513348_);}
	.st11{opacity:0.48;fill:#FFFFFF;}
	.st12{fill:url(#SVGID_00000156584631485712375590000010561446953391765682_);}
	.st13{opacity:0.3;fill:url(#SVGID_00000065796974182009913640000002889161496857322685_);}
	.st14{opacity:0.75;}
	.st15{fill:url(#SVGID_00000093140029692475586780000016588160415813951118_);}
	.st16{opacity:0.74;fill:#FFFFFF;}
	.st17{fill:url(#SVGID_00000129924756644414758580000001153487489453179562_);}
	.st18{opacity:0.5;}
	.st19{fill:url(#SVGID_00000111150289895629167780000012348485603926668164_);}
	.st20{fill:url(#SVGID_00000145058637783915350880000000872661134125746870_);}
	.st21{opacity:0.3;}
	.st22{fill:url(#SVGID_00000057148860219539446750000017008402128843125890_);}
	.st23{fill:url(#SVGID_00000111174001411103922870000008672024999049028267_);}
	.st24{fill:url(#SVGID_00000109006445621027605550000015315259947522570937_);}
	.st25{fill:url(#SVGID_00000024693312491431930520000015279577886465941677_);}
	.st26{fill:url(#SVGID_00000150083252867703269780000005484110351444039870_);}
	.st27{fill:url(#SVGID_00000155136164017087303120000004144699374304029319_);}
	.st28{fill:url(#SVGID_00000133524526411043722710000017561672836186773661_);}
	.st29{fill:#F0C9B4;}
	.st30{fill:#A1B776;}
	.st31{fill:#E48862;}
	.st32{fill:#BD7759;}
	.st33{fill:#735546;}
	.st34{fill:#FFE2E2;}
	.st35{fill:#A1D0F2;}
	.st36{opacity:0.39;fill:#99DDCC;}
	.st37{opacity:0.39;fill:#BAD7DF;}
	.st38{fill:#FFFFFF;stroke:#BCBCBC;stroke-width:2;stroke-miterlimit:10;}
	.st39{clip-path:url(#SVGID_00000074399596884788648960000004503074631736245127_);}
	.st40{fill:#FFA727;}
	.st41{fill:#25292B;}
	.st42{fill:#FFBD29;}
	.st43{fill:#F2E9DA;}
	.st44{fill:#383838;}
	.st45{clip-path:url(#SVGID_00000057840943247805201570000017206133395384585139_);}
	.st46{clip-path:url(#SVGID_00000016065826943869964960000005912714286066547614_);}
	.st47{fill:url(#SVGID_00000005258635095503279140000015838798959466893980_);}
	.st48{fill:url(#SVGID_00000181791595791973346840000018092254323085043602_);}
	.st49{fill:url(#SVGID_00000057841038129164393940000007458984749672361919_);}
	.st50{fill:url(#SVGID_00000016054113808792855930000000970229837239553694_);}
	.st51{fill:url(#SVGID_00000058577700673311811650000004210722477133815206_);}
	.st52{fill:url(#SVGID_00000060720924050867361480000008083503895961307790_);}
	.st53{opacity:0.3;fill:url(#SVGID_00000166660372719503791460000004738234799554949260_);}
	.st54{fill:url(#SVGID_00000046311274831657942240000012522934116453453963_);}
	.st55{fill:url(#SVGID_00000111181736056635643710000003286335545335258015_);}
	.st56{fill:url(#SVGID_00000096772803933307625300000003394881509547154358_);}
	.st57{fill:url(#SVGID_00000036946406969725837170000008553479089229330564_);}
	.st58{fill:url(#SVGID_00000072249217444987650960000014636545478667433648_);}
	.st59{fill:url(#SVGID_00000030476111696930918330000005364868874911040911_);}
	.st60{fill:url(#SVGID_00000026143851558336776230000017517297700896336783_);}
	.st61{fill:url(#SVGID_00000129179803223332343080000012481736143057991301_);}
	.st62{fill:url(#SVGID_00000032638600566794391160000011369203433746176410_);}
	.st63{fill:url(#SVGID_00000110431494966577468900000000336426410532961718_);}
	.st64{fill:url(#SVGID_00000098197436097861257700000016811775611112465047_);}
	.st65{clip-path:url(#SVGID_00000039092483822217676730000000888530621379812242_);}
	.st66{fill:#F2D9AF;}
	.st67{opacity:0.3;fill:#99DDCC;}
	.st68{clip-path:url(#SVGID_00000070838844055321527540000017375055224159192730_);}
	.st69{opacity:0.2;fill:#383838;}
	.st70{fill:#F4CA60;}
	.st71{clip-path:url(#SVGID_00000057131468921311698660000013822571943011918724_);fill:#FFFFFF;}
	.st72{clip-path:url(#SVGID_00000092441067347225669320000007903382531771123108_);fill:#FFFFFF;}
	.st73{fill:#8CB1CC;}
	.st74{fill:#A3D2F4;}
	.st75{fill:#222220;}
	.st76{fill:#D66156;}
	.st77{fill:#684D3F;}
	.st78{fill:#5B3F30;}
	.st79{fill:none;stroke:#D66156;stroke-width:1.3728;stroke-miterlimit:10;}
	.st80{fill:#EF8A62;}
	.st81{fill:#CCED98;}
	.st82{fill:#EEEEEE;}
	.st83{fill:#F2CBB6;}
	.st84{fill:#BF7759;}
	.st85{fill:#C8A34C;}
	.st86{clip-path:url(#SVGID_00000020398580685738643980000012661973481835970479_);fill:#FFFFFF;}
	.st87{fill:#E29D7F;}
	.st88{clip-path:url(#SVGID_00000016053575644059754190000007359485265002217608_);fill:#FFFFFF;}
	.st89{fill:#D9D9D9;}
	.st90{fill:#C48B71;}
	.st91{fill:#32241B;}
	.st92{fill:#E8BA52;}
	.st93{fill:#67837A;}
	.st94{fill:#84A397;}
	.st95{fill:#A9C5BB;}
	.st96{fill:#EAE2D7;}
	.st97{fill:#454446;}
	.st98{fill:#BCBEC0;}
	.st99{fill:#A6BDD5;}
	.st100{fill:#B98636;}
	.st101{fill:#BE7140;}
	.st102{opacity:0.5;fill:#A6BDD5;}
	.st103{fill:#F0C860;}
	.st104{opacity:0.2;}
	.st105{clip-path:url(#SVGID_00000024698310093606870330000005154906190808091575_);fill:#383838;}
	.st106{clip-path:url(#SVGID_00000170250645983348106140000001114271915799424129_);fill:#383838;}
	.st107{fill:#BA9B9B;}
	.st108{fill:#D46156;}
	.st109{fill:none;stroke:#D46156;stroke-width:1.3728;stroke-miterlimit:10;}
	.st110{fill:#CAEB96;}
	.st111{fill:#ECECEC;}
	.st112{fill:#C6A24C;}
	.st113{clip-path:url(#SVGID_00000062907688589294467630000004366480716303937947_);fill:#383838;}
	.st114{fill:#E09B7E;}
	.st115{clip-path:url(#SVGID_00000011750726181169277110000004015461364026075275_);fill:#383838;}
	.st116{fill:#C28971;}
	.st117{fill:#E6B852;}
	.st118{clip-path:url(#SVGID_00000134229864869446752480000006998205410143469488_);fill:#383838;}
	.st119{clip-path:url(#SVGID_00000079450228464213200660000001588349104022108349_);fill:#383838;}
	.st120{clip-path:url(#SVGID_00000038414577315808461350000004987150263260135570_);fill:#383838;}
	.st121{clip-path:url(#SVGID_00000166643376409166295110000014554299654717354630_);fill:#383838;}
	.st122{clip-path:url(#XMLID_00000076604767385343445200000001388624600800001464_);}
	.st123{fill:#180037;}
	.st124{fill:#659FFB;}
	.st125{clip-path:url(#XMLID_00000179622892108144520460000011975795740233731200_);}
	.st126{fill:#1D1635;}
	.st127{clip-path:url(#XMLID_00000160901912019567075860000012103793134622120117_);}
	.st128{clip-path:url(#XMLID_00000090274256254022145810000000124360744653945995_);}
	.st129{clip-path:url(#XMLID_00000020375537893938754830000012073749786471142822_);}
	.st130{clip-path:url(#XMLID_00000177466088204542919800000006660217444368265401_);}
	.st131{clip-path:url(#XMLID_00000165938537046711633740000007608043948758854842_);}
	.st132{clip-path:url(#XMLID_00000004539656668810445050000001050827860040899495_);}
	.st133{clip-path:url(#XMLID_00000086680732209806908410000000781884559233988738_);}
	.st134{clip-path:url(#XMLID_00000033356292005944643310000004127600054671193269_);}
	.st135{clip-path:url(#XMLID_00000034067168131357067090000005333764840902839439_);}
	.st136{clip-path:url(#XMLID_00000009558101474641446070000015885269776430440587_);}
	.st137{fill:#707070;}
</style>
<g id="BACKGROUND">
	<path class="st67" d="M2748.15,62.83c-65.85-0.07-127.06-16.85-178.11-45.59c-49.85,50.24-120.58,85.09-200.85,94.93
		c-59.19,55.96-145.1,91.18-240.72,91.18c-124.52,0-232.58-59.71-286.59-147.2c-44.57,19.65-95.21,30.77-148.92,30.77
		c-53.64,0-104.22-11.09-148.76-30.7c-45.59,20.84-97.75,32.68-153.18,32.68c-3.35,0-6.68-0.06-10-0.14
		c-58.5,70.5-155.18,116.57-264.56,116.57c-108.31,0-204.17-45.17-262.84-114.51c-13.15,1.38-26.54,2.1-40.13,2.1
		c-27.68,0-54.54-2.96-80.18-8.51c-56.3,40.36-129.08,64.71-208.58,64.71c-115.19,0-216.29-51.09-273.55-128.01
		c-36.67,10.11-75.8,15.6-116.44,15.6c-47.48,0-92.9-7.46-134.73-21.06v86.32c41.83,13.6,87.25,21.06,134.73,21.06
		c40.65,0,79.78-5.48,116.44-15.6c57.27,76.91,158.37,128.01,273.55,128.01c79.5,0,152.27-24.35,208.58-64.71
		c25.64,5.55,52.5,8.5,80.18,8.5c13.59,0,26.98-0.72,40.13-2.1c58.67,69.34,154.53,114.51,262.84,114.51
		c109.38,0,206.06-46.07,264.56-116.57c3.32,0.09,6.65,0.14,10,0.14c55.43,0,107.59-11.84,153.18-32.68
		c44.53,19.61,95.11,30.7,148.76,30.7c53.71,0,104.35-11.12,148.92-30.77c54.01,87.49,162.07,147.2,286.59,147.2
		c95.62,0,181.53-35.21,240.72-91.18c80.28-9.84,151-44.69,200.85-94.93c51.05,28.74,112.27,45.52,178.11,45.59
		c58.52,70.42,155.14,116.43,264.45,116.43c29.2,0,57.5-3.28,84.41-9.44v-86.32c-26.91,6.16-55.21,9.44-84.41,9.44
		C2903.29,179.26,2806.66,133.25,2748.15,62.83z"/>
	<path class="st2" d="M0,15.65c41.83,13.6,87.25,21.06,134.73,21.06c40.65,0,79.78-5.49,116.44-15.6
		c57.27,76.91,158.37,128.01,273.55,128.01c79.5,0,152.27-24.35,208.58-64.71c25.64,5.55,52.5,8.51,80.18,8.51
		c13.59,0,26.98-0.72,40.13-2.1c58.67,69.34,154.53,114.51,262.84,114.51c109.38,0,206.06-46.07,264.56-116.57
		c3.32,0.09,6.65,0.14,10,0.14c55.43,0,107.59-11.84,153.18-32.68c44.53,19.61,95.11,30.7,148.76,30.7
		c53.71,0,104.35-11.12,148.92-30.77c54.01,87.49,162.07,147.2,286.59,147.2c95.62,0,181.53-35.21,240.72-91.18
		c80.28-9.84,151-44.69,200.85-94.93c51.05,28.74,112.27,45.52,178.11,45.59c58.52,70.42,155.14,116.43,264.45,116.43
		c29.2,0,57.5-3.28,84.41-9.44V0H0V15.65z"/>
</g>
<g id="OBJECTS">
</g>
</svg>
