<?xml version="1.0" encoding="utf-8"?>
<!-- Generator: Adobe Illustrator 27.0.0, SVG Export Plug-In . SVG Version: 6.00 Build 0)  -->
<svg version="1.1" xmlns="http://www.w3.org/2000/svg" xmlns:xlink="http://www.w3.org/1999/xlink" x="0px" y="0px"
	 viewBox="0 0 821.3 747.02" style="enable-background:new 0 0 821.3 747.02;" xml:space="preserve">
<style type="text/css">
	.st0{fill:#F2F2F2;}
	.st1{fill:#679FC1;}
	.st2{fill:#BAD7DF;}
	.st3{fill:#FFFFFF;}
	.st4{clip-path:url(#SVGID_00000158715490766891885400000007670055072890314390_);}
	.st5{clip-path:url(#SVGID_00000132775753792633002700000012196614952899744166_);}
	.st6{fill:url(#SVGID_00000157994312776953566380000007652046582847433113_);}
	.st7{fill:url(#SVGID_00000109739919506335949040000009188119697735991963_);}
	.st8{fill:url(#SVGID_00000168820709880476130100000006463100508555265190_);}
	.st9{fill:url(#SVGID_00000013878180829797162430000011774766610298475680_);}
	.st10{fill:url(#SVGID_00000054964306861424058310000000122728317451001782_);}
	.st11{opacity:0.48;fill:#FFFFFF;}
	.st12{fill:url(#SVGID_00000162338041139651558020000016660523051939378326_);}
	.st13{opacity:0.3;fill:url(#SVGID_00000072239907626606935170000016044092713889281687_);}
	.st14{opacity:0.75;}
	.st15{fill:url(#SVGID_00000133517584173614406690000012929096220162412174_);}
	.st16{opacity:0.74;fill:#FFFFFF;}
	.st17{fill:url(#SVGID_00000181052826481808719180000010614706341684923009_);}
	.st18{opacity:0.5;}
	.st19{fill:url(#SVGID_00000032620576058456025000000015450531674027274419_);}
	.st20{fill:url(#SVGID_00000035516639954594246190000017914341551831025334_);}
	.st21{opacity:0.3;}
	.st22{fill:url(#SVGID_00000143601276599602652620000001562458166990732466_);}
	.st23{fill:url(#SVGID_00000146480503493515919340000008220858958028816573_);}
	.st24{fill:url(#SVGID_00000029011777993187490580000003221540339641984394_);}
	.st25{fill:url(#SVGID_00000094586065370722776620000004073244020745143681_);}
	.st26{fill:url(#SVGID_00000035510353770211981360000006723463431843733163_);}
	.st27{fill:url(#SVGID_00000024697987211916156770000016208362505537057428_);}
	.st28{fill:url(#SVGID_00000116216263089845070590000012055786542315230879_);}
	.st29{fill:#F0C9B4;}
	.st30{fill:#A1B776;}
	.st31{fill:#E48862;}
	.st32{fill:#BD7759;}
	.st33{fill:#735546;}
	.st34{fill:#FFE2E2;}
	.st35{fill:#A1D0F2;}
	.st36{opacity:0.39;fill:#99DDCC;}
	.st37{opacity:0.39;fill:#BAD7DF;}
	.st38{fill:#FFFFFF;stroke:#BCBCBC;stroke-width:2;stroke-miterlimit:10;}
	.st39{clip-path:url(#SVGID_00000145738724343082588210000018088741826893653940_);}
	.st40{fill:#FFA727;}
	.st41{fill:#25292B;}
	.st42{fill:#FFBD29;}
	.st43{fill:#F2E9DA;}
	.st44{fill:#383838;}
	.st45{clip-path:url(#SVGID_00000141429826848868127110000005892005196743832509_);}
	.st46{clip-path:url(#SVGID_00000042017395839322249870000014194631629006475414_);}
	.st47{fill:url(#SVGID_00000113319494700942099490000007482903447275758730_);}
	.st48{fill:url(#SVGID_00000156569777617059788290000006279566935773951651_);}
	.st49{fill:url(#SVGID_00000160154173647726709860000011502779842846088848_);}
	.st50{fill:url(#SVGID_00000036237721487351544970000005693845116312790162_);}
	.st51{fill:url(#SVGID_00000122695445358383160270000009938919797783726263_);}
	.st52{fill:url(#SVGID_00000073691475998183920770000002103882124311919027_);}
	.st53{opacity:0.3;fill:url(#SVGID_00000033363379050433018680000000509336197619016328_);}
	.st54{fill:url(#SVGID_00000044869883811640237110000007133512909830311552_);}
	.st55{fill:url(#SVGID_00000100344279713811070520000005090816635988335498_);}
	.st56{fill:url(#SVGID_00000131349955876320852830000000023475095694637758_);}
	.st57{fill:url(#SVGID_00000155132244762310932140000007412361504585776307_);}
	.st58{fill:url(#SVGID_00000050623621197264292000000013798227919764857735_);}
	.st59{fill:url(#SVGID_00000169542615665490633210000012078035147015324332_);}
	.st60{fill:url(#SVGID_00000133489229949184360420000016625505056121971866_);}
	.st61{fill:url(#SVGID_00000056390658510800734060000017703080408251168146_);}
	.st62{fill:url(#SVGID_00000183961518403053274710000008592871568664699286_);}
	.st63{fill:url(#SVGID_00000002376004098997153650000004055266258755038851_);}
	.st64{fill:url(#SVGID_00000023962305679965649590000017790508281284496785_);}
	.st65{clip-path:url(#SVGID_00000119822850855779897050000014904930362497404305_);}
	.st66{fill:#F2D9AF;}
	.st67{opacity:0.2;fill:#383838;}
	.st68{fill:#F4CA60;}
	.st69{clip-path:url(#SVGID_00000082346779824021845840000008701408990046056841_);fill:#FFFFFF;}
	.st70{clip-path:url(#SVGID_00000020399651381050135320000008710221930069588632_);fill:#FFFFFF;}
	.st71{fill:#8CB1CC;}
	.st72{fill:#A3D2F4;}
	.st73{fill:#222220;}
	.st74{fill:#D66156;}
	.st75{fill:#684D3F;}
	.st76{fill:#5B3F30;}
	.st77{fill:none;stroke:#D66156;stroke-width:1.3728;stroke-miterlimit:10;}
	.st78{fill:#EF8A62;}
	.st79{fill:#CCED98;}
	.st80{fill:#EEEEEE;}
	.st81{fill:#F2CBB6;}
	.st82{fill:#BF7759;}
	.st83{fill:#C8A34C;}
	.st84{clip-path:url(#SVGID_00000057850817773558813900000005685968416242055564_);fill:#FFFFFF;}
	.st85{fill:#E29D7F;}
	.st86{clip-path:url(#SVGID_00000142858688617190636500000006796954261890809526_);fill:#FFFFFF;}
	.st87{fill:#D9D9D9;}
	.st88{fill:#C48B71;}
	.st89{fill:#32241B;}
	.st90{fill:#E8BA52;}
	.st91{fill:#67837A;}
	.st92{fill:#84A397;}
	.st93{fill:#A9C5BB;}
	.st94{fill:#EAE2D7;}
	.st95{fill:#454446;}
	.st96{fill:#BCBEC0;}
	.st97{fill:#A6BDD5;}
	.st98{fill:#B98636;}
	.st99{fill:#BE7140;}
	.st100{opacity:0.5;fill:#A6BDD5;}
	.st101{fill:#F0C860;}
	.st102{opacity:0.2;}
	.st103{clip-path:url(#SVGID_00000082333516581006561060000014356575584777745816_);fill:#383838;}
	.st104{clip-path:url(#SVGID_00000021810297103232718100000002827555635016827824_);fill:#383838;}
	.st105{fill:#BA9B9B;}
	.st106{fill:#D46156;}
	.st107{fill:none;stroke:#D46156;stroke-width:1.3728;stroke-miterlimit:10;}
	.st108{fill:#CAEB96;}
	.st109{fill:#ECECEC;}
	.st110{fill:#C6A24C;}
	.st111{clip-path:url(#SVGID_00000100365142419239715120000006766087114293222581_);fill:#383838;}
	.st112{fill:#E09B7E;}
	.st113{clip-path:url(#SVGID_00000068652300053707594950000002124373125498859963_);fill:#383838;}
	.st114{fill:#C28971;}
	.st115{fill:#E6B852;}
	.st116{clip-path:url(#SVGID_00000046305709085780338940000010031825504130546314_);fill:#383838;}
	.st117{clip-path:url(#SVGID_00000068676758590154235120000015965114731472553100_);fill:#383838;}
	.st118{clip-path:url(#SVGID_00000152961432064079951710000004964966031341847711_);fill:#383838;}
	.st119{clip-path:url(#SVGID_00000137829883292570953160000009774180957532491437_);fill:#383838;}
	.st120{clip-path:url(#XMLID_00000023281904508657933870000001784093404093941944_);}
	.st121{fill:#180037;}
	.st122{fill:#659FFB;}
	.st123{clip-path:url(#XMLID_00000110440900517604208190000000741471082900888472_);}
	.st124{fill:#1D1635;}
	.st125{clip-path:url(#XMLID_00000043456198426993333260000017908485903083936443_);}
	.st126{clip-path:url(#XMLID_00000008146013820708851280000008271197832911548571_);}
	.st127{clip-path:url(#XMLID_00000087396377080106431780000006075049443121071515_);}
	.st128{clip-path:url(#XMLID_00000161622725294206992100000001905722101910837931_);}
	.st129{clip-path:url(#XMLID_00000068637146746908781850000003091519391812781697_);}
	.st130{clip-path:url(#XMLID_00000066517465044576818590000010190739754760722839_);}
	.st131{clip-path:url(#XMLID_00000105427192373152635540000011782787534713953409_);}
	.st132{clip-path:url(#XMLID_00000054225883117939596360000011451805707537788086_);}
	.st133{clip-path:url(#XMLID_00000105427959105916981690000016080718968975654335_);}
	.st134{clip-path:url(#XMLID_00000168118953039031644490000012015771862312157887_);}
</style>
<g id="BACKGROUND">
</g>
<g id="OBJECTS">
	<g>
		<g id="XMLID_00000145016737778127544460000001900257575414425772_">
			<g id="XMLID_00000058548535217481606450000012702378905883840180_">
				<path id="XMLID_00000125585164987376176330000016477418025263990718_" class="st2" d="M481.06,14.7
					c-100.3-6.68-139.63,57.96-186.42,58.71c-69.97,1.11-143.59-2.71-150.55,98.9c-6.95,101.6,26.92,135.6-6.67,216.33
					c-33.6,80.73-73.57,124-33.81,179.79c39.79,55.83,109.66,19.48,189.88,60.03c80.21,40.55,172.2,95.28,343.79,68.38
					c171.59-26.9,84.99-146.73,108.47-219.14c23.48-72.41,87.57-84.37,73.57-178.29C788.64,93.69,551.16,19.37,481.06,14.7z"/>
				<g id="XMLID_00000008863434019758830920000008317762207443885993_">
					<path class="st2" d="M428.69,679.9c-52.57-13.43-95.33-35.32-133.05-54.63c-5.11-2.62-10.16-5.2-15.16-7.73
						c-35.52-17.95-69.16-20.76-98.84-23.23c-37.08-3.09-69.1-5.76-91.53-37.22c-31.54-44.26-13.56-81.44,11.32-132.91
						c6.98-14.44,14.9-30.82,22.34-48.69c19.87-47.74,15.92-78.76,10.91-118.03c-3.38-26.52-7.21-56.57-4.39-97.65
						c6.76-98.75,75.86-99.63,142.69-100.48c3.14-0.04,6.28-0.08,9.41-0.13c17.89-0.28,34.93-10.25,54.67-21.78
						c31.29-18.28,70.22-41.03,131.84-36.93c34.57,2.3,112.22,22.08,184.48,67.14c40.15,25.04,73.38,54.46,98.76,87.46
						c30.18,39.23,49.1,83.43,56.26,131.4c8.78,58.89-12.91,86.31-35.88,115.34c-14.21,17.96-28.9,36.54-37.77,63.87
						c-6.85,21.11-4.17,46.13-1.34,72.61c3.74,35,7.6,71.2-11.5,99.76c-16.48,24.64-48.18,40.33-96.91,47.97
						c-67.98,10.66-129.12,9.43-186.54-3.77C435.2,681.52,431.94,680.72,428.69,679.9z M468.52,3.91
						c-60.83-4.05-99.36,18.46-130.32,36.55c-20.08,11.73-37.42,21.86-55.99,22.16c-3.13,0.05-6.28,0.09-9.42,0.13
						c-32.86,0.42-66.85,0.85-92.65,13.18c-29.05,13.87-43.96,40.53-46.93,83.88c-2.78,40.69,1.02,70.54,4.37,96.88
						c5.08,39.87,9.09,71.36-11.2,120.11c-7.48,17.98-15.43,34.41-22.43,48.9c-25.2,52.11-41.84,86.54-11.53,129.08
						c21.71,30.46,53.2,33.09,89.67,36.12c29.9,2.49,63.79,5.31,99.73,23.48c5.01,2.53,10.06,5.12,15.17,7.74
						c78.46,40.17,167.39,85.69,327.88,60.53c47.88-7.5,78.9-22.73,94.83-46.56c18.29-27.34,14.5-62.8,10.84-97.08
						c-2.88-26.93-5.59-52.36,1.52-74.3c9.09-28.02,24-46.87,38.42-65.1c23.39-29.57,43.59-55.1,35.07-112.27
						c-16.41-110.09-92.62-178.58-153.67-216.64c-52.01-32.44-106.79-51.7-146.09-60.73C490.77,6.5,478.01,4.54,468.52,3.91z"/>
				</g>
			</g>
			<g id="XMLID_00000075127180145969786050000017084261286839819450_">
				<g id="XMLID_00000040550459198135537700000014579876541621632924_">
					<path class="st91" d="M375.42,400.03l1.5-0.37c-29.39-118.04-56.85-186.92-91.81-230.32l-1.2,0.97
						C318.71,213.52,346.08,282.23,375.42,400.03z"/>
				</g>
				<path id="XMLID_00000096023741020240662470000011652826054897243568_" class="st91" d="M301.15,192.37
					c-1.57-12.22-11.76-40.39-26.29-38.44c-14.53,1.96,1.94,22.52,13.66,30.41C296.38,189.62,301.15,192.37,301.15,192.37z"/>
				<path id="XMLID_00000049935852307300260660000000529747703359407522_" class="st91" d="M314.19,215.06
					c-6-10.98-17.81-21.24-32.7-21.73c-8.75-0.29-11.76,16.67,8.9,16.58C305.6,209.85,314.19,215.06,314.19,215.06z"/>
				<path id="XMLID_00000136403639993626703690000002116597278998715026_" class="st91" d="M313.52,213.97
					c-5.8-24.66,1.25-42.9,12.08-40.76c10.83,2.14,4.57,17.71-2.23,23.73C316.57,202.96,313.52,213.97,313.52,213.97z"/>
				<path id="XMLID_00000084515415944688168400000014595885801102602164_" class="st91" d="M326.67,241.26
					c-13.25-19.09-29.16-21.3-36.36-17c-7.2,4.3-5.51,18.03,9.55,15.41C315.82,236.9,326.67,241.26,326.67,241.26z"/>
				<path id="XMLID_00000137101722585954660150000005310664218993452419_" class="st91" d="M338.66,271.64
					c-25.75-25.46-47.76-15.04-45.95-6.9c1.81,8.14,14.49,5.82,25.07,4.58C328.35,268.09,338.66,271.64,338.66,271.64z"/>
				<path id="XMLID_00000013872493053510548270000010232896496690646657_" class="st91" d="M349.12,302.42
					c-27.1-27.63-51.62-22.37-53.69-12.28c-2.08,10.08,6.08,12.04,25.67,7.3C340.9,292.64,349.12,302.42,349.12,302.42z"/>
				<path id="XMLID_00000049921039253708411810000002868272222963047301_" class="st91" d="M326.35,240.62
					c-5.02-35.32,17.01-44.59,24.61-34.95c7.6,9.64-13.35,16.16-17.59,23.88C329.13,237.27,326.35,240.62,326.35,240.62z"/>
				<path id="XMLID_00000109730387203804404330000005776074536962024858_" class="st91" d="M337.75,269.43
					c-0.61-18.14,8.47-40.44,21.19-40.47c12.72-0.02,11.33,13.73,1.69,18.4C346.21,254.34,337.75,269.43,337.75,269.43z"/>
				<path id="XMLID_00000156561087896905499200000010153153012370789283_" class="st91" d="M359.53,338.1
					c-10-16.48-41.59-28.59-54.03-16.94c-12.44,11.66,6.15,18.87,21.58,14.62C342.49,331.54,359.53,338.1,359.53,338.1z"/>
				<path id="XMLID_00000181063465531177201620000015044079520753809063_" class="st91" d="M370.87,378.75
					c-16.46-27.14-50.66-28.29-63.82-14.8c-13.16,13.49,10.58,18.28,30.43,10.36C357.33,366.39,370.87,378.75,370.87,378.75z"/>
				<path id="XMLID_00000022532192671456755600000000975826690759483039_" class="st91" d="M348.54,298.38
					c6.54-38.32,29.74-41.61,35.55-32.25C389.9,275.5,348.54,298.38,348.54,298.38z"/>
				<path id="XMLID_00000016764548467200092640000010389464011609544348_" class="st91" d="M360.59,337.57
					c-1.95-28.71,22.04-49.57,34.59-41.5c12.56,8.08-12.73,18.05-19.62,24.14C368.68,326.31,360.59,337.57,360.59,337.57z"/>
				<path id="XMLID_00000140716700125213102470000005922062119064445840_" class="st91" d="M370.98,378.68
					c7.45-29.4,35.72-58.94,45.87-44.83c8.98,12.48-5.41,17.88-28.84,25.15C375.07,363.02,370.98,378.68,370.98,378.68z"/>
				<g id="XMLID_00000143610956351160393620000015584848991014903723_">
					<path class="st92" d="M370.55,405.25l1.38-0.69c-31.71-63.71-58.83-106.91-85.36-135.95c-24.9-27.25-50.68-43.87-83.6-53.89
						l-0.45,1.47C267.68,236.03,310.08,283.73,370.55,405.25z"/>
				</g>
				<path id="XMLID_00000021834701180152191780000000290439327409837210_" class="st92" d="M228.49,225.11
					c-17.81-21.98-37.57-23.21-38.87-12.15C187.8,228.45,228.49,225.11,228.49,225.11z"/>
				<path id="XMLID_00000052067725673597665850000009575771285718961086_" class="st92" d="M250.6,237.62
					c-29.57-2.64-44.41,5.03-43.9,13.82c0.51,8.79,8.26,9.08,23.79-0.72C246.02,240.93,250.6,237.62,250.6,237.62z"/>
				<path id="XMLID_00000073689895161187545430000003686024493984765879_" class="st92" d="M247.97,235.86
					c-10.49-15.41-11.43-37.82,4.43-37.63c15.86,0.19-2,19.98-3.72,26.08C247.03,230.12,247.97,235.86,247.97,235.86z"/>
				<path id="XMLID_00000038411491963317097060000014907882304826112419_" class="st92" d="M277.41,260.19
					c-27.56-14.07-56.47-3.7-51.55,11.93c4.91,15.63,18.28-3.63,29.31-7.23C266.21,261.28,277.41,260.19,277.41,260.19z"/>
				<path id="XMLID_00000100351530050640713530000008198597269842638748_" class="st92" d="M287.66,217.25
					c-13.68-5-27.48,20.14-11.61,41.47c0,0-1.46-13.29,11.72-23.64C300.95,224.75,293.45,219.37,287.66,217.25z"/>
				<path id="XMLID_00000129884573500831226110000017264527212419197329_" class="st92" d="M309.06,297.5
					c-15.64-21.47-43.81-19.11-53.74-8.01c-9.93,11.1,0.39,18.28,8.59,17.82c8.2-0.46,14.88-9.85,27.01-10.44
					C303.06,296.28,309.06,297.5,309.06,297.5z"/>
				<path id="XMLID_00000075123718791362001100000017070661327510173079_" class="st92" d="M302.46,287.86
					c-8.79-25.1,0.31-45.26,16.7-41.23c16.39,4.03-8.28,17.49-11.98,25.96C303.48,281.05,302.46,287.86,302.46,287.86z"/>
				<path id="XMLID_00000110469069880472345040000004120383484533238154_" class="st92" d="M330.13,328.72
					c-42.68-23.52-62.93-4.16-57.63,7.36c5.3,11.53,25.61-2.47,33.74-5.81C316.57,326.02,330.13,328.72,330.13,328.72z"/>
				<path id="XMLID_00000159432350572083592920000015449153850961330081_" class="st92" d="M351.42,366.75
					c-57.08-42.59-96.55,17.85-36.12,2.97C335.91,364.64,351.42,366.75,351.42,366.75z"/>
				<path id="XMLID_00000097462944127670360750000006592744165107852707_" class="st92" d="M345.31,355.41
					c-0.67-26.44,24.55-51.97,35.48-36.83c10.93,15.13-22.25,21.84-27.56,28.21C347.93,353.17,345.31,355.41,345.31,355.41z"/>
				<path id="XMLID_00000173853383943570415720000001502360120160179132_" class="st92" d="M330.13,328.72
					c-8.03-9.21-7.88-47.27,12.7-51.4c20.59-4.13,7.94,22.24-0.16,31.58C334.58,318.23,330.13,328.72,330.13,328.72z"/>
				<path id="XMLID_00000155851678934133887570000011935770896229510825_" class="st92" d="M366.08,395.84
					c-32.74-22.62-54.53,16.63-16.95,1.03C358.14,393.13,366.08,395.84,366.08,395.84z"/>
				<path id="XMLID_00000080888887603661133500000005348785100225552053_" class="st92" d="M362.58,387.6
					c-3.69-19.01,11.77-36.24,22.31-26.35c10.54,9.9-18.48,16.1-20.73,21.43C361.91,388.01,362.58,387.6,362.58,387.6z"/>
				<g id="XMLID_00000060735756689692436290000012807730909648114100_">
					<path class="st93" d="M379.14,398.05l1.54-0.13c-3.38-39.05,7.43-124.16,72.58-166.78l-0.84-1.29
						C386.65,272.87,375.73,358.69,379.14,398.05z"/>
				</g>
				<g id="XMLID_00000018212645524931614140000008972960110868217258_">
					<path class="st91" d="M338.15,407.84l0.82-1.3c-48.83-30.86-113.06-21.55-113.7-21.45l0.23,1.52
						C226.14,386.52,289.82,377.29,338.15,407.84z"/>
				</g>
				<path id="XMLID_00000165933922821599571050000001632549500535802044_" class="st91" d="M255.82,384.37
					c-19.74-9.39-31.65-10.78-38.58-0.34c-6.92,10.44,9.79,11.9,20.93,7.63C249.31,387.39,255.82,384.37,255.82,384.37z"/>
				<path id="XMLID_00000111914057776805288310000002686258196327126942_" class="st91" d="M288.39,387.77
					c-31.64,1.91-50.08,17.12-45.5,31.85c4.58,14.74,17.45-12.23,25.71-20.01C276.87,391.83,288.39,387.77,288.39,387.77z"/>
				<path id="XMLID_00000162319070526989572350000002078356868212924575_" class="st91" d="M316.34,395.69
					c-24.49,0.76-46.48,20.53-46.57,31.56c-0.1,11.02,21.02,11.61,30.65-6.39C310.04,402.85,316.34,395.69,316.34,395.69z"/>
				<path id="XMLID_00000034057420694015197750000006279184461989510532_" class="st91" d="M285.57,387.48
					c-21.02-6.13-18.53-26.97-9.55-35.39c8.99-8.44,16.33-3.37,12.82,8.55c-2.24,7.6-9.58,12.02-6.5,20.48
					C284,385.69,285.57,387.48,285.57,387.48z"/>
				<path id="XMLID_00000155839372982624195900000016545332866976954768_" class="st91" d="M316.1,395.85
					c-11.94-6.79-18.23-38.77,0.07-47.28c16.73-7.78,21.99,7.11,7.45,22.01C314.07,380.39,316.1,395.85,316.1,395.85z"/>
				<path id="XMLID_00000150803728900358551820000007650081002565412511_" class="st93" d="M439.21,241.11
					c4.81-9.16,24.89-29.03,26.27-17.85C466.86,234.45,439.21,241.11,439.21,241.11z"/>
				<path id="XMLID_00000088845274069293412850000003473899864117569413_" class="st93" d="M418.6,261.62
					c8.01-8.98,15.89-38.56-0.92-34.31C400.87,231.57,418.6,261.62,418.6,261.62z"/>
				<path id="XMLID_00000147179002514690389320000005900928906619092414_" class="st93" d="M418.6,261.62
					c20.8-7.27,43.63-14.5,39.96-0.64C454.88,274.83,418.6,261.62,418.6,261.62z"/>
				<path id="XMLID_00000163767442827567628630000014278187189416474244_" class="st93" d="M402.53,286.72
					c4.19-26.45-10.46-42.59-22.37-33.81C368.25,261.69,402.53,286.72,402.53,286.72z"/>
				<path id="XMLID_00000054239533254347540410000009376272929015038379_" class="st93" d="M398.18,296.13
					c12.05-11.18,40.42-24.39,45.07-9.45C447.9,301.62,398.18,296.13,398.18,296.13z"/>
				<path id="XMLID_00000048478805450848083370000015478745409008083860_" class="st93" d="M390.97,314.72
					c-10.47-25.45-21.85-39.69-31.37-30.77C350.09,292.87,390.97,314.72,390.97,314.72z"/>
				<path id="XMLID_00000017509551035126023260000001692302194400729477_" class="st93" d="M389.92,318.62
					c17.63-10.01,48.19-19.72,49.01-4.95C439.76,328.43,389.92,318.62,389.92,318.62z"/>
				<path id="XMLID_00000148646966861657649330000001376432380823373446_" class="st93" d="M382.66,345.35
					c-3.84-24.47-27.72-42.06-34.52-27.65C341.34,332.1,382.66,345.35,382.66,345.35z"/>
				<path id="XMLID_00000090290225805206622890000008059338671686722490_" class="st93" d="M383.07,347.87
					c21.67-8.35,57.06-22.21,53.89-3.81C433.8,362.46,383.07,347.87,383.07,347.87z"/>
				<path id="XMLID_00000065763741714195174250000005635931242921503122_" class="st93" d="M380.49,363.36
					c-8.14-13.62-39.01-24.56-43.9-8.56C331.71,370.8,380.49,363.36,380.49,363.36z"/>
				<path id="XMLID_00000156559011256483084280000015506849748599219887_" class="st93" d="M379.93,377.14
					c2.95-5.69,36.61-24.57,40.36-11.31C424.05,379.08,379.93,377.14,379.93,377.14z"/>
			</g>
			<g id="XMLID_00000086666090719681340590000009652685083850982816_">
				<g id="XMLID_00000155127205242462199720000007526048730610423692_">
					<path class="st91" d="M558.89,434.99c11.74-120.83,28.75-192.81,56.85-240.66l-1.33-0.78
						c-28.23,48.06-45.29,120.22-57.06,241.29L558.89,434.99z"/>
				</g>
				<path id="XMLID_00000061467108763326117380000010663340911732023169_" class="st91" d="M601.91,218.68
					c-0.24-12.32,5.71-41.68,20.37-41.88c14.66-0.2,1.38,22.57-9.06,32.09C606.22,215.27,601.91,218.68,601.91,218.68z"/>
				<path id="XMLID_00000085961646644363747900000002357930638801191829_" class="st91" d="M592.34,243.04
					c4.33-11.74,14.51-23.62,29.16-26.28c8.61-1.56,14.08,14.77-6.38,17.71C600.07,236.63,592.34,243.04,592.34,243.04z"/>
				<path id="XMLID_00000013189465084760504240000014241318497332816057_" class="st91" d="M592.84,241.87
					c2.12-25.24-7.52-42.25-17.92-38.55c-10.4,3.7-1.92,18.19,5.68,23.15C588.21,231.42,592.84,241.87,592.84,241.87z"/>
				<path id="XMLID_00000150813534030445203730000015521702858893671307_" class="st91" d="M583.84,270.79
					c10.31-20.83,25.73-25.34,33.47-22.15c7.75,3.2,8.09,17.03-7.19,16.65C593.92,264.89,583.84,270.79,583.84,270.79z"/>
				<path id="XMLID_00000102532342893620319400000017795939780127986354_" class="st91" d="M576.43,302.6
					c21.74-28.96,45.04-21.88,44.45-13.56c-0.6,8.31-13.48,7.88-24.13,8.21C586.11,297.57,576.43,302.6,576.43,302.6z"/>
				<path id="XMLID_00000119087620051371601490000004925988648074252199_" class="st91" d="M570.59,334.58
					c22.76-31.3,47.78-29.69,51.31-20.02c3.53,9.67-4.25,12.8-24.32,10.98C577.29,323.69,570.59,334.58,570.59,334.58z"/>
				<path id="XMLID_00000110428662702262650050000008933631800475165825_" class="st91" d="M584.06,270.11
					c-0.21-35.67-23.36-41.61-29.47-30.97c-6.11,10.65,15.58,14.03,20.9,21.04C580.81,267.21,584.06,270.11,584.06,270.11z"/>
				<path id="XMLID_00000134240475850832221100000010478220749276441481_" class="st91" d="M577.01,300.28
					c-2.06-18.04-14.31-38.77-26.89-36.92c-12.58,1.84-9.2,15.24,1.02,18.45C566.42,286.59,577.01,300.28,577.01,300.28z"/>
				<path id="XMLID_00000147915474545866026930000008389165367788934070_" class="st91" d="M565.53,371.4
					c7.47-17.77,36.95-34.38,50.97-24.67c14.02,9.71-3.32,19.57-19.2,17.63C581.42,362.41,565.53,371.4,565.53,371.4z"/>
				<path id="XMLID_00000177461445312512429260000017552790780229503918_" class="st91" d="M560.27,413.27
					c12.3-29.26,45.97-35.41,60.96-23.99c14.99,11.42-7.78,19.64-28.58,14.71C571.85,399.06,560.27,413.27,560.27,413.27z"/>
				<path id="XMLID_00000087389318609246765790000005986344543386005418_" class="st91" d="M570.57,330.5
					c-12.09-36.95-35.52-36.8-39.89-26.69C526.31,313.92,570.57,330.5,570.57,330.5z"/>
				<path id="XMLID_00000096739360936997068320000000764063732959819681_" class="st91" d="M564.4,371.03
					c-2.28-28.68-29.07-45.81-40.3-35.98c-11.24,9.83,15.24,15.98,22.94,21C554.74,361.07,564.4,371.03,564.4,371.03z"/>
				<path id="XMLID_00000089557991468745681970000001286917600675534477_" class="st91" d="M560.15,413.22
					c-11.68-27.99-43.97-53.07-51.95-37.62c-7.05,13.66,7.97,16.89,32.22,20.65C553.8,398.33,560.15,413.22,560.15,413.22z"/>
				<g id="XMLID_00000029729897884827715800000007170080907149382549_">
					<path class="st92" d="M564.47,439.44c42.01-129.07,76.96-182.47,138.5-211.64l-0.66-1.39c-31.09,14.73-54.16,34.95-74.79,65.56
						c-21.99,32.62-42.49,79.33-64.51,146.99L564.47,439.44z"/>
				</g>
				<path id="XMLID_00000131361036113074169710000004927336761865904039_" class="st92" d="M678.59,240.42
					c14.39-24.35,33.76-28.47,36.67-17.71C719.32,237.76,678.59,240.42,678.59,240.42z"/>
				<path id="XMLID_00000088826543161360421030000010130675163918751362_" class="st92" d="M658.55,256.04
					c28.87-6.94,44.67-1.54,45.45,7.23c0.78,8.77-6.84,10.19-23.63,2.78C663.57,258.64,658.55,256.04,658.55,256.04z"/>
				<path id="XMLID_00000009580078546694889780000013038318945453614514_" class="st92" d="M660.9,253.91
					c8.12-16.78,5.76-39.08-9.9-36.57c-15.66,2.51,4.9,19.47,7.51,25.25C660.98,248.09,660.9,253.91,660.9,253.91z"/>
				<path id="XMLID_00000027591025725681315990000003408879478329862288_" class="st92" d="M635.33,282.29
					c25.2-17.96,55.31-11.93,52.74,4.24c-2.57,16.18-18.61-0.91-30.05-2.86C646.58,281.73,635.33,282.29,635.33,282.29z"/>
				<path id="XMLID_00000178187057579537811730000004084755865193783717_" class="st92" d="M618.91,241.32
					c12.8-6.95,30.13,15.89,17.57,39.32c0,0-0.51-13.36-15.06-21.66C606.86,250.68,613.49,244.26,618.91,241.32z"/>
				<path id="XMLID_00000078754377065804188370000000837931228272337592_" class="st92" d="M609.5,323.84
					c12.32-23.53,40.53-25.33,51.99-15.8c11.45,9.53,2.3,18.14-5.88,18.89c-8.18,0.75-16.16-7.56-28.25-6.36
					C615.26,321.76,609.5,323.84,609.5,323.84z"/>
				<path id="XMLID_00000021084118395212967240000008369179448864710075_" class="st92" d="M614.61,313.33
					c5.01-26.12-6.94-44.72-22.56-38.34c-15.62,6.39,10.76,16.08,15.66,23.92C612.61,306.75,614.61,313.33,614.61,313.33z"/>
				<path id="XMLID_00000005265765960871989390000007214568605937855139_" class="st92" d="M593.23,357.81
					c38.77-29.52,61.64-13.34,58.08-1.16c-3.55,12.18-25.69,1.31-34.23-0.81C606.25,353.15,593.23,357.81,593.23,357.81z"/>
				<path id="XMLID_00000099661186163537449760000013614447124424870841_" class="st92" d="M577.75,398.55
					c50.22-50.5,98.12,3.51,36.17-2.36C592.78,394.19,577.75,398.55,577.75,398.55z"/>
				<path id="XMLID_00000122721305049422767060000006486248270682335918_" class="st92" d="M582.13,386.44
					c-3.22-26.25-31.9-47.81-40.5-31.24c-8.6,16.57,25.21,18.34,31.39,23.87C579.21,384.6,582.13,386.44,582.13,386.44z"/>
				<path id="XMLID_00000092423635354154152870000005375657096148512655_" class="st92" d="M593.23,357.81
					c6.6-10.29,0.87-47.92-20.1-48.99c-20.97-1.07-4.59,23.16,4.78,31.22C587.29,348.09,593.23,357.81,593.23,357.81z"/>
				<path id="XMLID_00000032636227861543649270000016277344136193325479_" class="st92" d="M567.51,429.48
					c29.07-27.18,56.38,8.46,16.92-1.47C574.96,425.63,567.51,429.48,567.51,429.48z"/>
				<path id="XMLID_00000161616747678400940620000007188241801291533956_" class="st92" d="M569.76,420.81
					c0.87-19.34-16.96-34.13-25.93-22.79c-8.98,11.33,20.64,13.22,23.65,18.16C570.48,421.12,569.76,420.81,569.76,420.81z"/>
				<g id="XMLID_00000093875425127096616300000003748619106669022609_">
					<path class="st93" d="M553.38,433.67l1.54-0.09c-2.39-39.44-25.78-122.73-97.14-155.64l-0.65,1.4
						C527.83,311.95,551,394.55,553.38,433.67z"/>
				</g>
				<g id="XMLID_00000183208811914530604780000005555612875820231316_">
					<path class="st91" d="M569.39,440.17c43.17-37.16,107.17-37.52,108.3-37.52c0.01,0,0.02-1.54,0.02-1.54
						c-0.54,0-65.52,0.18-109.33,37.89L569.39,440.17z"/>
				</g>
				<path id="XMLID_00000039817155819043564250000003599772512329851789_" class="st91" d="M647.39,404.88
					c18.16-12.18,29.73-15.31,38.11-5.99c8.38,9.31-7.94,13.2-19.58,10.61C654.28,406.91,647.39,404.88,647.39,404.88z"/>
				<path id="XMLID_00000098200011467858067390000018009279613985272746_" class="st91" d="M615.67,413.02
					c31.58-2.75,52.05,9.59,49.68,24.84c-2.37,15.25-19.06-9.54-28.37-16.03C627.66,415.34,615.67,413.02,615.67,413.02z"/>
				<path id="XMLID_00000106839846384984539200000013971501892051955615_" class="st91" d="M589.18,424.95
					c24.34-2.84,48.98,13.5,50.7,24.39c1.71,10.89-19.09,14.56-31.25-1.83C596.47,431.11,589.18,424.95,589.18,424.95z"/>
				<path id="XMLID_00000061461523064928678210000012135549008724356266_" class="st91" d="M618.42,412.31
					c19.89-9.15,14.37-29.39,4.26-36.41c-10.13-7.03-16.65-0.94-11.43,10.34c3.33,7.19,11.24,10.48,9.44,19.3
					C619.71,410.31,618.42,412.31,618.42,412.31z"/>
				<path id="XMLID_00000150816340330936888070000011000825858022786219_" class="st91" d="M589.45,425.07
					c10.82-8.47,12.35-41.02-7-46.75c-17.69-5.24-20.71,10.25-4.15,22.87C589.19,409.48,589.45,425.07,589.45,425.07z"/>
				<path id="XMLID_00000030448982770307680760000006752772688143531138_" class="st93" d="M472.49,287.14
					c-6.1-8.35-28.88-25.07-28.61-13.8C444.16,284.6,472.49,287.14,472.49,287.14z"/>
				<path id="XMLID_00000109740081938067111990000007213753692010933181_" class="st93" d="M495.89,304.41
					c-9.24-7.71-21.37-35.82-4.12-34.07C509.01,272.08,495.89,304.41,495.89,304.41z"/>
				<path id="XMLID_00000148650235324441423490000000424483402613596583_" class="st93" d="M495.89,304.41
					c-21.64-4.15-45.28-7.95-39.62,5.22C461.93,322.79,495.89,304.41,495.89,304.41z"/>
				<path id="XMLID_00000099631392164760251310000006088412947913468084_" class="st93" d="M515.46,326.87
					c-8.02-25.55,4.1-43.66,17.17-36.72C545.7,297.09,515.46,326.87,515.46,326.87z"/>
				<path id="XMLID_00000052096503693720863660000015881173203850399660_" class="st93" d="M521.13,335.55
					c-13.55-9.29-43.56-18.2-45.97-2.74C472.77,348.27,521.13,335.55,521.13,335.55z"/>
				<path id="XMLID_00000092455824514866324750000006858913315175500704_" class="st93" d="M530.99,352.88
					c6.63-26.71,15.8-42.46,26.52-35.04C568.23,325.27,530.99,352.88,530.99,352.88z"/>
				<path id="XMLID_00000168105769632533201630000014632503007041423274_" class="st93" d="M532.61,356.58
					c-18.91-7.32-50.56-12.44-49.21,2.29C484.74,373.6,532.61,356.58,532.61,356.58z"/>
				<path id="XMLID_00000134249558370286438380000010615452529285086106_" class="st93" d="M543.71,381.96
					c0.21-24.77,21.26-45.67,30.1-32.42C582.64,362.8,543.71,381.96,543.71,381.96z"/>
				<path id="XMLID_00000114786542302822165960000017682650148555413426_" class="st93" d="M543.67,384.52
					c-22.66-5.09-59.69-13.61-53.87,4.13S543.67,384.52,543.67,384.52z"/>
				<path id="XMLID_00000023274256604508686800000016296512280200279975_" class="st93" d="M548.49,399.46
					c6.06-14.67,34.99-30.01,42.17-14.91C597.84,399.66,548.49,399.46,548.49,399.46z"/>
				<path id="XMLID_00000049185268917280171540000012536656964672622473_" class="st93" d="M551.06,413
					c-3.75-5.2-39.81-18.94-41.58-5.27C507.71,421.4,551.06,413,551.06,413z"/>
			</g>
			<g id="XMLID_00000075120900058832840440000010822153435337866901_">
				<g id="XMLID_00000082347227647206380960000016518845135627900336_">
					<g id="XMLID_00000088122353509417995230000003272056507335453355_">
						<g id="XMLID_00000123413192499890826660000014384939632432877996_">
							<path class="st3" d="M608.22,315.92c-246.37,0-243.4,4.08-243.4-9.98c0-177.26-3.76-178.54,9.98-178.54
								c246.37,0,243.4-4.08,243.4,9.98v168.56C618.19,311.45,613.73,315.92,608.22,315.92z"/>
							<path class="st94" d="M425.17,317.62c-44.37,0-55.93-0.85-59.75-4.66c-1.76-1.76-1.76-3.97-1.75-6.52l0-0.49
								c0-38.05-0.17-67.71-0.31-91.55c-0.38-65.81-0.47-81.45,4.28-86.23c1.91-1.92,4.46-1.92,7.16-1.92
								c55.56,0,97.68-0.2,131.53-0.37c87.96-0.42,106.27-0.51,111.27,4.48c1.76,1.76,1.76,3.97,1.75,6.52l0,0.49v168.56
								c0,6.14-4.99,11.13-11.13,11.13c-55.56,0-97.69,0.2-131.54,0.37C455.86,317.54,438.93,317.62,425.17,317.62z M557.66,128
								c-13.79,0-30.68,0.08-51.32,0.18c-33.85,0.16-75.97,0.37-131.54,0.37c-2.66,0-4.35,0.06-5.53,1.24
								c-4.07,4.1-3.97,22.76-3.61,84.59c0.14,23.84,0.31,53.51,0.31,91.56l0,0.5c-0.01,2.5,0.04,3.85,1.07,4.89
								c4.33,4.32,26.63,4.21,109.63,3.81c33.85-0.16,75.98-0.37,131.55-0.37c4.87,0,8.83-3.96,8.83-8.83l0-169.06
								c0.01-2.5-0.04-3.85-1.07-4.89C612.72,128.75,599.32,128,557.66,128z"/>
						</g>
						<g id="XMLID_00000052100349414654846620000016957964922411602594_">
							<path class="st95" d="M618.19,136.77H364.82c0-5.17,4.19-9.37,9.37-9.37C623.78,127.4,618.19,123.88,618.19,136.77z"/>
							<path class="st95" d="M619.35,137.92H363.67v-1.15c0-5.8,4.72-10.52,10.52-10.52c53.78,0,95.16-0.16,128.41-0.29
								c93.66-0.36,110.54-0.43,115.23,4.29c1.57,1.58,1.55,3.59,1.53,5.71L619.35,137.92z M366.05,135.62h251
								c0.01-1.88-0.06-2.94-0.86-3.75c-4.01-4.03-27.22-3.94-113.58-3.61c-33.25,0.13-74.63,0.29-128.41,0.29
								C370.05,128.55,366.61,131.63,366.05,135.62z"/>
						</g>
						<g id="XMLID_00000073708684470897412920000003586689574964290492_">
							<path id="XMLID_00000057855855184119427090000008414226383465710762_" class="st96" d="M607.27,134.61
								c2.82,0,4.1,0.28,4.1-0.95c0-2.82,0.28-4.1-0.95-4.1c-2.82,0-4.1-0.28-4.1,0.95C606.32,133.33,606.05,134.61,607.27,134.61z"
								/>
							<g id="XMLID_00000164484199124052805920000016934404222033857453_">
								<g id="XMLID_00000101803489653499571060000004898907193938254221_">
									<path class="st3" d="M607.38,134.13c-0.15,0-0.29-0.06-0.41-0.17c-0.22-0.22-0.22-0.59,0-0.81l2.95-2.95
										c0.22-0.22,0.59-0.22,0.81,0c0.22,0.22,0.22,0.59,0,0.81l-2.95,2.95C607.67,134.08,607.52,134.13,607.38,134.13z"/>
								</g>
								<g id="XMLID_00000022546825575518381160000012039184458581749414_">
									<path class="st3" d="M610.32,134.13c-0.15,0-0.29-0.06-0.41-0.17l-2.95-2.95c-0.22-0.22-0.22-0.59,0-0.81
										c0.22-0.22,0.59-0.22,0.81,0l2.95,2.95c0.22,0.22,0.22,0.59,0,0.81C610.62,134.08,610.47,134.13,610.32,134.13z"/>
								</g>
							</g>
						</g>
					</g>
					<g id="XMLID_00000169517011781849300990000014177833965226487966_">
						<g id="XMLID_00000182513402315929789090000009953732144008575908_">
							<g id="XMLID_00000114760673317079802290000001822089132134929291_">
								<g id="XMLID_00000094604626522868915850000013310341240706633396_">
									<path class="st94" d="M402.99,152.43h-24.98c-0.32,0-0.58-0.26-0.58-0.58c0-0.32,0.26-0.58,0.58-0.58h24.98
										c0.32,0,0.58,0.26,0.58,0.58C403.57,152.17,403.31,152.43,402.99,152.43z"/>
								</g>
								<g id="XMLID_00000011742874730668965980000009941245768988710805_">
									<path class="st94" d="M402.99,292.04h-24.98c-0.32,0-0.58-0.26-0.58-0.58c0-0.32,0.26-0.58,0.58-0.58h24.98
										c0.32,0,0.58,0.26,0.58,0.58C403.57,291.78,403.31,292.04,402.99,292.04z"/>
								</g>
								<g id="XMLID_00000134242894289347875150000008229336996232213692_">
									<path class="st94" d="M378.02,292.04c-0.32,0-0.58-0.26-0.58-0.58V151.85c0-0.32,0.26-0.58,0.58-0.58
										c0.32,0,0.58,0.26,0.58,0.58v139.61C378.59,291.78,378.34,292.04,378.02,292.04z"/>
								</g>
							</g>
							<g id="XMLID_00000174593078308780444400000009392687907403793027_">
								<g id="XMLID_00000116199487306133909250000011547497602981899918_">
									<path class="st94" d="M413.19,165.21h-20.4c-0.32,0-0.58-0.26-0.58-0.58c0-0.32,0.26-0.58,0.58-0.58h20.4
										c0.32,0,0.58,0.26,0.58,0.58C413.77,164.96,413.51,165.21,413.19,165.21z"/>
								</g>
								<g id="XMLID_00000012452828122028682250000004542110080608049808_">
									<path class="st94" d="M413.19,279.26h-20.4c-0.32,0-0.58-0.26-0.58-0.58c0-0.32,0.26-0.58,0.58-0.58h20.4
										c0.32,0,0.58,0.26,0.58,0.58C413.77,279,413.51,279.26,413.19,279.26z"/>
								</g>
								<g id="XMLID_00000020360441658296563770000015782825506564635264_">
									<path class="st94" d="M392.79,279.26c-0.32,0-0.58-0.26-0.58-0.58V164.64c0-0.32,0.26-0.58,0.58-0.58
										c0.32,0,0.58,0.26,0.58,0.58v114.04C393.37,279,393.11,279.26,392.79,279.26z"/>
								</g>
							</g>
							<g id="XMLID_00000019643137563859705220000008256993614911952028_">
								<g id="XMLID_00000155119706448678916970000009332233071770738085_">
									<path class="st94" d="M425.73,182.19H411.4c-0.32,0-0.58-0.26-0.58-0.58c0-0.32,0.26-0.58,0.58-0.58h14.33
										c0.32,0,0.58,0.26,0.58,0.58C426.31,181.93,426.05,182.19,425.73,182.19z"/>
								</g>
								<g id="XMLID_00000182523772632735597560000016600057527300604036_">
									<path class="st94" d="M425.73,262.28H411.4c-0.32,0-0.58-0.26-0.58-0.58c0-0.32,0.26-0.58,0.58-0.58h14.33
										c0.32,0,0.58,0.26,0.58,0.58C426.31,262.03,426.05,262.28,425.73,262.28z"/>
								</g>
								<g id="XMLID_00000097486801445256449240000010215539274288209848_">
									<path class="st94" d="M411.4,262.28c-0.32,0-0.58-0.26-0.58-0.58v-80.1c0-0.32,0.26-0.58,0.58-0.58
										c0.32,0,0.58,0.26,0.58,0.58v80.1C411.98,262.03,411.72,262.28,411.4,262.28z"/>
								</g>
							</g>
							<g id="XMLID_00000163064108413885605790000016314771553274221998_">
								<path class="st94" d="M427.75,262.28c-0.32,0-0.58-0.26-0.58-0.58v-19.83c0-0.32,0.26-0.58,0.58-0.58
									c0.32,0,0.58,0.26,0.58,0.58v19.83C428.32,262.03,428.07,262.28,427.75,262.28z"/>
							</g>
							<g id="XMLID_00000183943266043495617130000006927014792147084702_">
								<path class="st94" d="M432.42,203.31H411.4c-0.32,0-0.58-0.26-0.58-0.58c0-0.32,0.26-0.58,0.58-0.58h21.02
									c0.32,0,0.58,0.26,0.58,0.58C432.99,203.05,432.74,203.31,432.42,203.31z"/>
							</g>
						</g>
						<g id="XMLID_00000180347318511860813140000007304644356780221360_">
							<path id="XMLID_00000114783752781179293340000002950219390208427455_" class="st97" d="M431.66,156.45
								c-49.54,0-48.13,0.59-48.13-1.38c0-6.2-0.41-7.8,1.38-7.8c49.54,0,48.13-0.59,48.13,1.38
								C433.04,154.84,433.45,156.45,431.66,156.45z"/>
							<path id="XMLID_00000168092433545758089130000010785736146294517412_" class="st98" d="M451.12,169.66
								c-49.54,0-48.13,0.59-48.13-1.38c0-6.2-0.41-7.8,1.38-7.8c49.54,0,48.13-0.59,48.13,1.38
								C452.5,168.06,452.91,169.66,451.12,169.66z"/>
							<path id="XMLID_00000129898271613268367290000010861564895963087519_" class="st99" d="M431.66,186.2
								c-13.32,0-14.4,0.46-14.4-1.38c0-6.2-0.41-7.81,1.38-7.81c13.32,0,14.4-0.46,14.4,1.38
								C433.04,184.6,433.45,186.2,431.66,186.2z"/>
							<path id="XMLID_00000060003673785763211900000004824436286762240930_" class="st99" d="M434.26,266.3
								c-13.32,0-14.4,0.46-14.4-1.38c0-6.2-0.41-7.8,1.38-7.8c13.32,0,14.4-0.46,14.4,1.38C435.64,264.7,436.04,266.3,434.26,266.3
								z"/>
							<path id="XMLID_00000020394070153906219750000014571126236469984697_" class="st99" d="M434.26,246.64
								c-13.32,0-14.4,0.46-14.4-1.38c0-6.2-0.41-7.81,1.38-7.81c13.32,0,14.4-0.46,14.4,1.38
								C435.64,245.04,436.04,246.64,434.26,246.64z"/>
							<path id="XMLID_00000167381193473220207560000016565849379788936086_" class="st98" d="M440.63,283.04
								c-38.41,0-37.64,0.59-37.64-1.38c0-6.2-0.41-7.8,1.38-7.8h36.26c0.76,0,1.38,0.62,1.38,1.38v6.43
								C442.01,282.42,441.39,283.04,440.63,283.04z"/>
							<path id="XMLID_00000156558743649454304800000001984838853596418707_" class="st98" d="M486.27,283.04h-37.66
								c-0.37,0-0.68-0.3-0.68-0.68v-7.83c0-0.37,0.3-0.68,0.68-0.68h37.66c0.37,0,0.68,0.3,0.68,0.68v7.83
								C486.95,282.73,486.65,283.04,486.27,283.04z"/>
							<path id="XMLID_00000170972291623059029900000014912240412065210002_" class="st99" d="M535,227.3h-36.26
								c-0.76,0-1.38-0.62-1.38-1.38c0-6.2-0.41-7.8,1.38-7.8H535c0.76,0,1.38,0.62,1.38,1.38v6.43
								C536.38,226.69,535.76,227.3,535,227.3z"/>
							<path id="XMLID_00000096035755174388802430000012205842826122369424_" class="st97" d="M410.02,296.06
								c-22.87,0-23.38,0.52-23.38-1.38c0-6.2-0.41-7.8,1.38-7.8c22.87,0,23.38-0.52,23.38,1.38v6.43
								C411.4,295.44,410.78,296.06,410.02,296.06z"/>
							<path id="XMLID_00000173134814930808727200000009359187503554448266_" class="st98" d="M527.63,156.45
								c-90.77,0-86.34,0.64-86.34-1.38c0-6.2-0.41-7.8,1.38-7.8c90.77,0,86.34-0.64,86.34,1.38v6.43
								C529,155.83,528.39,156.45,527.63,156.45z"/>
							<path id="XMLID_00000108284603671559139400000002965087861634149040_" class="st97" d="M511.33,246.64
								c-72.64,0-69.32,0.56-69.32-1.24c0-6.65-0.36-7.95,1.24-7.95h68.08c0.68,0,1.24,0.55,1.24,1.24v6.71
								C512.56,246.09,512.01,246.64,511.33,246.64z"/>
							<path id="XMLID_00000146471417011854820950000005645979122164517538_" class="st97" d="M503.59,207.32
								c-90.77,0-86.34,0.64-86.34-1.38c0-6.2-0.41-7.8,1.38-7.8c90.77,0,86.34-0.64,86.34,1.38v6.43
								C504.97,206.7,504.36,207.32,503.59,207.32z"/>
							<path id="XMLID_00000142855411940366780080000013479495135356811669_" class="st98" d="M565.76,156.45
								c-21,0-20.69,0.34-20.69-0.83c0-7.5-0.33-8.36,0.83-8.36c21,0,20.69-0.34,20.69,0.83
								C566.59,155.59,566.91,156.45,565.76,156.45z"/>
							<path id="XMLID_00000046340262144527868570000016979433190972123778_" class="st99" d="M591.56,156.45
								c-21,0-20.69,0.34-20.69-0.83c0-7.5-0.33-8.36,0.83-8.36c21,0,20.69-0.34,20.69,0.83
								C592.38,155.59,592.71,156.45,591.56,156.45z"/>
						</g>
					</g>
				</g>
				<g id="XMLID_00000040571414614230579760000000361801029155100039_">
					<g id="XMLID_00000128447955277904135370000002666675065368007331_">
						<g id="XMLID_00000148645409622609574460000011810981815597772712_">
							<path class="st3" d="M427.89,446.26c-233.31,0-227.75,3.25-227.75-8.49v-129.5c0-4.69,3.8-8.49,8.49-8.49
								c233.31,0,227.75-3.25,227.75,8.49v129.5C436.38,442.46,432.58,446.26,427.89,446.26z"/>
							<path class="st94" d="M258.03,447.75c-44.25,0-54.29-0.72-57.59-4.04c-1.42-1.43-1.4-3.24-1.38-5.15l0.01-0.79v-129.5
								c0-5.27,4.29-9.56,9.57-9.56c50.85,0,89.76-0.15,121.03-0.27c86.55-0.34,102.15-0.4,106.41,3.9c1.42,1.43,1.4,3.24,1.38,5.15
								l-0.01,0.79v129.5c0,5.27-4.29,9.56-9.57,9.56c-50.85,0-89.77,0.15-121.05,0.27C287.12,447.68,271.08,447.75,258.03,447.75z
								 M377.59,300.43c-12.99,0-28.78,0.06-47.92,0.14c-31.27,0.12-70.19,0.27-121.04,0.27c-4.09,0-7.42,3.33-7.42,7.42
								l-0.01,130.31c-0.02,1.85,0,2.85,0.76,3.62c3.63,3.66,25.08,3.58,104.87,3.27c31.27-0.12,70.2-0.28,121.05-0.28
								c4.09,0,7.42-3.33,7.42-7.42l0.01-130.31c0.02-1.85,0-2.86-0.76-3.62C431.79,301.05,418.74,300.43,377.59,300.43z"/>
						</g>
						<g id="XMLID_00000123403875058618536690000005538637327761288877_">
							<path class="st95" d="M436.38,307.05H200.14c0-4.02,3.26-7.28,7.28-7.28C444.17,299.77,436.38,297.02,436.38,307.05z"/>
							<path class="st95" d="M437.45,308.13H199.07v-1.07c0-4.6,3.75-8.35,8.35-8.35c51.36,0,90.6-0.13,122.13-0.23
								c87.34-0.28,103.07-0.34,106.81,3.49c1.19,1.21,1.15,2.66,1.11,4.19c-0.01,0.29-0.01,0.59-0.01,0.9V308.13z M201.3,305.98
								h234.03c0.03-1.29,0.01-2-0.5-2.53c-3.1-3.18-22.72-3.11-105.27-2.84c-31.53,0.1-70.77,0.23-122.14,0.23
								C204.36,300.85,201.81,303.07,201.3,305.98z"/>
						</g>
						<g id="XMLID_00000082337348854125644070000007712353800173377156_">
							<path id="XMLID_00000022541443357885386240000006719067733487225738_" class="st96" d="M426.12,305.38
								c2.42,0,3.9,0.35,3.9-0.81c0-1.48,0.35-3.12-0.81-3.12c-2.42,0-3.9-0.35-3.9,0.81C425.31,303.74,424.97,305.38,426.12,305.38
								z"/>
							<g id="XMLID_00000115505813286346905460000001087321395091785147_">
								<g id="XMLID_00000145741518813443048380000006752416144183583902_">
									<path class="st3" d="M426.29,305.1c-0.15,0-0.31-0.07-0.41-0.19c-0.19-0.23-0.16-0.57,0.07-0.75l2.75-2.29
										c0.23-0.19,0.56-0.16,0.75,0.07c0.19,0.23,0.16,0.57-0.07,0.75l-2.75,2.29C426.54,305.05,426.41,305.1,426.29,305.1z"/>
								</g>
								<g id="XMLID_00000064323998001185541190000008514662949182719662_">
									<path class="st3" d="M429.04,305.1c-0.12,0-0.24-0.04-0.34-0.12l-2.75-2.29c-0.23-0.19-0.26-0.53-0.07-0.75
										c0.19-0.23,0.53-0.26,0.75-0.07l2.75,2.29c0.23,0.19,0.26,0.53,0.07,0.75C429.35,305.03,429.19,305.1,429.04,305.1z"/>
								</g>
							</g>
						</g>
						<g id="XMLID_00000180363436052202017790000017340367774116959131_">
							<g id="XMLID_00000057863894796325847140000017795593301917937575_">
								<g id="XMLID_00000098207365268225423690000002734692669870666627_">
									<path class="st94" d="M240.18,319.11h-20.7c-0.26,0-0.48-0.21-0.48-0.48c0-0.26,0.21-0.48,0.48-0.48h20.7
										c0.26,0,0.48,0.21,0.48,0.48C240.66,318.9,240.44,319.11,240.18,319.11z"/>
								</g>
								<g id="XMLID_00000066499690970834183100000017953204233723512461_">
									<path class="st94" d="M240.18,434.83h-20.7c-0.26,0-0.48-0.21-0.48-0.48c0-0.26,0.21-0.48,0.48-0.48h20.7
										c0.26,0,0.48,0.21,0.48,0.48C240.66,434.62,240.44,434.83,240.18,434.83z"/>
								</g>
								<g id="XMLID_00000056389175616407917600000006890857978612884881_">
									<path class="st94" d="M219.48,434.83c-0.26,0-0.48-0.21-0.48-0.48V318.63c0-0.26,0.21-0.48,0.48-0.48s0.48,0.21,0.48,0.48
										v115.72C219.95,434.62,219.74,434.83,219.48,434.83z"/>
								</g>
							</g>
							<g id="XMLID_00000069371647214046227410000001411786816754701739_">
								<g id="XMLID_00000028311811077515946790000012642343087408753296_">
									<path class="st94" d="M239.45,343.77h-11.88c-0.26,0-0.48-0.21-0.48-0.48c0-0.26,0.21-0.48,0.48-0.48h11.88
										c0.26,0,0.48,0.21,0.48,0.48C239.93,343.56,239.72,343.77,239.45,343.77z"/>
								</g>
								<g id="XMLID_00000013888238787804252800000010407766367585623431_">
									<path class="st94" d="M239.45,410.17h-11.88c-0.26,0-0.48-0.21-0.48-0.48c0-0.26,0.21-0.48,0.48-0.48h11.88
										c0.26,0,0.48,0.21,0.48,0.48C239.93,409.95,239.72,410.17,239.45,410.17z"/>
								</g>
								<g id="XMLID_00000006690897848093941190000009839646026096348548_">
									<path class="st94" d="M227.58,410.17c-0.26,0-0.48-0.21-0.48-0.48V343.3c0-0.26,0.21-0.48,0.48-0.48
										c0.26,0,0.48,0.21,0.48,0.48v66.39C228.05,409.95,227.84,410.17,227.58,410.17z"/>
								</g>
							</g>
							<g id="XMLID_00000109020636527681928640000002389890563268644490_">
								<path class="st94" d="M245,361.28h-17.42c-0.26,0-0.48-0.21-0.48-0.48c0-0.26,0.21-0.48,0.48-0.48H245
									c0.26,0,0.48,0.21,0.48,0.48C245.47,361.07,245.26,361.28,245,361.28z"/>
							</g>
							<path id="XMLID_00000029008142046056267600000006086785561529578426_" class="st97" d="M263.94,322.44h-38.75
								c-0.63,0-1.14-0.51-1.14-1.14v-5.33c0-0.63,0.51-1.14,1.14-1.14c41.05,0,39.89-0.49,39.89,1.14v5.33
								C265.08,321.93,264.57,322.44,263.94,322.44z"/>
							<path id="XMLID_00000073681564279226899750000010114854932133701291_" class="st99" d="M244.95,347.1h-11.96
								c-0.31,0-0.56-0.25-0.56-0.56v-6.49c0-0.31,0.25-0.56,0.56-0.56h11.96c0.31,0,0.56,0.25,0.56,0.56v6.49
								C245.51,346.85,245.26,347.1,244.95,347.1z"/>
							<path id="XMLID_00000163037849148290497380000007893058493498305459_" class="st97" d="M246.59,438.16h-19.39
								c-0.31,0-0.56-0.25-0.56-0.56v-6.49c0-0.31,0.25-0.56,0.56-0.56h19.39c0.31,0,0.56,0.25,0.56,0.56v6.49
								C247.15,437.91,246.9,438.16,246.59,438.16z"/>
							<g id="XMLID_00000167372651706871922510000014530599064026627986_">
								<path class="st94" d="M349.51,361.28h-48.24c-0.26,0-0.48-0.21-0.48-0.48c0-0.26,0.21-0.48,0.48-0.48h48.24
									c0.26,0,0.48,0.21,0.48,0.48C349.98,361.07,349.77,361.28,349.51,361.28z"/>
							</g>
							<path id="XMLID_00000061465300304810102240000005107223897920813223_" class="st98" d="M343.49,322.44
								c-75.15,0-71.56,0.53-71.56-1.14c0-4.99-0.35-6.47,1.14-6.47c75.15,0,71.56-0.53,71.56,1.14
								C344.63,320.96,344.97,322.44,343.49,322.44z"/>
							<path id="XMLID_00000074419615008323340340000013440355516413051831_" class="st97" d="M291.81,413.49h-57.47
								c-0.28,0-0.5-0.23-0.5-0.5v-6.6c0-0.28,0.23-0.5,0.5-0.5h57.47c0.28,0,0.5,0.23,0.5,0.5v6.6
								C292.31,413.27,292.09,413.49,291.81,413.49z"/>
							<path id="XMLID_00000149357943309646956900000003399822320210568609_" class="st97" d="M304.57,364.61h-71.58
								c-0.31,0-0.56-0.25-0.56-0.56v-6.49c0-0.31,0.25-0.56,0.56-0.56h71.58c0.31,0,0.56,0.25,0.56,0.56v6.49
								C305.14,364.36,304.88,364.61,304.57,364.61z"/>
							<g id="XMLID_00000036224940923748090370000009702448104561708727_">
								<path class="st94" d="M345.28,412.31H323.9c-0.26,0-0.48-0.21-0.48-0.48s0.21-0.48,0.48-0.48h21.38
									c0.26,0,0.48,0.21,0.48,0.48S345.55,412.31,345.28,412.31z"/>
							</g>
							<g id="XMLID_00000079456926084100711000000007226630239316292757_">
								<path class="st94" d="M345.28,395.39H323.9c-0.26,0-0.48-0.21-0.48-0.48c0-0.26,0.21-0.48,0.48-0.48h21.38
									c0.26,0,0.48,0.21,0.48,0.48C345.76,395.17,345.55,395.39,345.28,395.39z"/>
							</g>
							<g id="XMLID_00000054242997169697723010000009359761827776264610_">
								<path class="st94" d="M345.28,378.47H323.9c-0.26,0-0.48-0.21-0.48-0.48c0-0.26,0.21-0.48,0.48-0.48h21.38
									c0.26,0,0.48,0.21,0.48,0.48C345.76,378.25,345.55,378.47,345.28,378.47z"/>
							</g>
							<path id="XMLID_00000170965318152779019260000012994605042567770037_" class="st98" d="M332.13,364.88
								c-16.49,0-17.15,0.43-17.15-0.68c0-5.31-0.44-6.93,0.68-6.93c16.49,0,17.15-0.43,17.15,0.68
								C332.82,363.26,333.25,364.88,332.13,364.88z"/>
							<path id="XMLID_00000000918135355929534400000014842290829518223761_" class="st98" d="M286.73,386.9h-38.56
								c-0.28,0-0.5-0.22-0.5-0.5v-6.61c0-0.28,0.22-0.5,0.5-0.5h38.56c0.28,0,0.5,0.22,0.5,0.5v6.61
								C287.23,386.67,287.01,386.9,286.73,386.9z"/>
							<path id="XMLID_00000067932552891771683120000003151256675941123762_" class="st99" d="M353.51,364.88
								c-16.49,0-17.15,0.43-17.15-0.68c0-5.31-0.44-6.93,0.68-6.93c16.49,0,17.15-0.43,17.15,0.68
								C354.2,363.26,354.63,364.88,353.51,364.88z"/>
							<path id="XMLID_00000179643854439079521010000002049533388645746348_" class="st98" d="M332.13,381.8
								c-16.49,0-17.15,0.43-17.15-0.68c0-5.31-0.44-6.93,0.68-6.93c16.49,0,17.15-0.43,17.15,0.68
								C332.82,380.18,333.25,381.8,332.13,381.8z"/>
							<path id="XMLID_00000150066872907670562240000015922737846975457703_" class="st99" d="M353.51,381.8
								c-16.49,0-17.15,0.43-17.15-0.68c0-5.31-0.44-6.93,0.68-6.93c16.49,0,17.15-0.43,17.15,0.68v6.24
								C354.2,381.49,353.89,381.8,353.51,381.8z"/>
							<path id="XMLID_00000067229753445821309840000013400677071875941260_" class="st98" d="M332.13,398.72
								c-16.49,0-17.15,0.43-17.15-0.68c0-5.31-0.44-6.93,0.68-6.93c16.49,0,17.15-0.43,17.15,0.68
								C332.82,397.1,333.25,398.72,332.13,398.72z"/>
							<path id="XMLID_00000074409859305466026840000016630895073322203290_" class="st99" d="M353.51,398.72
								c-16.49,0-17.15,0.43-17.15-0.68c0-5.31-0.44-6.93,0.68-6.93c16.49,0,17.15-0.43,17.15,0.68
								C354.2,397.1,354.63,398.72,353.51,398.72z"/>
							<path id="XMLID_00000107547878385222351320000010422716901116188850_" class="st98" d="M332.13,415.63
								c-16.49,0-17.15,0.43-17.15-0.68c0-5.31-0.44-6.93,0.68-6.93c16.49,0,17.15-0.43,17.15,0.68
								C332.82,414.01,333.25,415.63,332.13,415.63z"/>
							<path id="XMLID_00000095318092768629426880000016010208073091367083_" class="st99" d="M353.51,415.63
								c-16.49,0-17.15,0.43-17.15-0.68c0-5.31-0.44-6.93,0.68-6.93c16.49,0,17.15-0.43,17.15,0.68
								C354.2,414.01,354.63,415.63,353.51,415.63z"/>
							<g id="XMLID_00000178925387604057262430000013356264691804653204_">
								<path class="st94" d="M334.59,412.31c-0.26,0-0.48-0.21-0.48-0.48V360.8c0-0.26,0.21-0.48,0.48-0.48
									c0.26,0,0.48,0.21,0.48,0.48v51.03C335.07,412.09,334.85,412.31,334.59,412.31z"/>
							</g>
							<path id="XMLID_00000041280731399896506670000017464259392848089476_" class="st99" d="M363.98,322.44
								c-11.01,0-11.94,0.38-11.94-1.14c0-4.99-0.35-6.47,1.14-6.47c11.01,0,11.94-0.38,11.94,1.14
								C365.13,320.96,365.47,322.44,363.98,322.44z"/>
							<path id="XMLID_00000079444444451256173870000012125917214032850087_" class="st99" d="M386.42,322.44
								c-11.01,0-11.94,0.38-11.94-1.14c0-4.99-0.35-6.47,1.14-6.47c11.01,0,11.94-0.38,11.94,1.14
								C387.56,320.96,387.9,322.44,386.42,322.44z"/>
							<path id="XMLID_00000066507736302355020210000012936691749147447954_" class="st99" d="M408.85,322.44
								c-11.01,0-11.94,0.38-11.94-1.14c0-4.99-0.35-6.47,1.14-6.47c11.01,0,11.94-0.38,11.94,1.14
								C409.99,320.96,410.34,322.44,408.85,322.44z"/>
						</g>
					</g>
				</g>
			</g>
			<g id="XMLID_00000074431968541500173410000018137028032455767986_">
				<g id="XMLID_00000146486509535354323220000002828390980081674925_">
					<path class="st3" d="M361.45,564.41c-163.22,0-153.98,1.02-154.63-2.23c-16.99-85.86-18.21-85.04-13.45-85.04
						c163.22,0,153.98-1.02,154.63,2.23C364.99,565.24,366.21,564.41,361.45,564.41z"/>
					<path class="st94" d="M214.9,565.45c-7.74-0.22-9.01-0.61-9.09-2.75c0-0.1,0-0.2-0.03-0.32c-3.83-19.33-6.8-34.02-9.19-45.82
						c-6.61-32.64-7.63-37.65-6.01-39.64c0.71-0.87,1.75-0.87,2.66-0.86h0.13c39.38,0,68.98-0.06,90.59-0.1
						c31.93-0.07,47.95-0.1,55.96,0.13c7.74,0.22,9.01,0.61,9.1,2.75c0,0.1,0,0.2,0.03,0.32c3.83,19.33,6.8,34.02,9.19,45.82
						c6.61,32.64,7.63,37.65,6.01,39.64c-0.71,0.87-1.73,0.86-2.66,0.86h-0.13c-39.38,0-68.98,0.06-90.59,0.1
						c-12.96,0.03-23.3,0.05-31.55,0.05C227.25,565.63,219.66,565.59,214.9,565.45z M361.59,563.34c0.36,0.01,0.89,0,1-0.07
						c1.03-0.98-1.16-11.78-6.44-37.86c-2.39-11.8-5.37-26.49-9.19-45.82c-0.05-0.23-0.06-0.45-0.07-0.65c0-0.03,0-0.05,0-0.08
						c-1.78-0.87-15.32-0.84-62.91-0.75c-21.61,0.04-51.21,0.1-90.6,0.1h-0.14c-0.36-0.01-0.89,0-1,0.07
						c-1.03,0.98,1.16,11.78,6.44,37.86c2.39,11.8,5.37,26.49,9.19,45.82c0.05,0.23,0.06,0.45,0.07,0.65c0,0.03,0,0.05,0,0.08
						c1.78,0.87,15.33,0.84,62.91,0.74c21.61-0.04,51.21-0.1,90.6-0.1H361.59z"/>
				</g>
				<g id="XMLID_00000127009509313084727230000002237528563709197742_">
					<path id="XMLID_00000036216401152740803370000015217154517807220669_" class="st100" d="M219.21,507.8
						c-7.77,0-11.13,0.71-11.13-2.57c0-7.77-0.71-11.13,2.57-11.13c7.77,0,11.13-0.71,11.13,2.57
						C221.78,504.44,222.48,507.8,219.21,507.8z"/>
					<path id="XMLID_00000015315219166193497120000016378134715899565453_" class="st97" d="M293.6,507.8
						c-54.77,0-54.87,1.05-54.87-2.57c0-7.77-0.71-11.13,2.57-11.13c54.77,0,54.87-1.05,54.87,2.57v8.56
						C296.16,506.66,295.01,507.8,293.6,507.8z"/>
					<path id="XMLID_00000052101488916999130510000005894917937580292738_" class="st98" d="M336.62,507.8
						c-21.46,0-23.86,0.85-23.86-2.57c0-7.77-0.71-11.13,2.57-11.13c21.46,0,23.86-0.85,23.86,2.57
						C339.19,504.44,339.9,507.8,336.62,507.8z"/>
					<path id="XMLID_00000083074757877409662810000017657897851020653454_" class="st100" d="M223.32,526.79
						c-7.77,0-11.13,0.71-11.13-2.57c0-7.76-0.71-11.13,2.57-11.13c7.77,0,11.13-0.71,11.13,2.57
						C225.88,523.42,226.59,526.79,223.32,526.79z"/>
					<path id="XMLID_00000156575257153396913410000004519108511996851351_" class="st97" d="M297.7,526.79
						c-54.77,0-54.87,1.05-54.87-2.57c0-7.76-0.71-11.13,2.57-11.13c54.77,0,54.87-1.05,54.87,2.57
						C300.27,523.42,300.98,526.79,297.7,526.79z"/>
					<path id="XMLID_00000166650959873494270190000016950919462346083770_" class="st98" d="M340.73,526.79
						c-21.46,0-23.86,0.85-23.86-2.57c0-7.76-0.71-11.13,2.57-11.13c21.46,0,23.86-0.86,23.86,2.57
						C343.29,523.42,344,526.79,340.73,526.79z"/>
					<path id="XMLID_00000114782441366506093060000003981768949857681284_" class="st100" d="M226.77,547.45
						c-7.77,0-11.13,0.71-11.13-2.57c0-7.77-0.71-11.13,2.57-11.13c7.77,0,11.13-0.71,11.13,2.57
						C229.34,544.08,230.05,547.45,226.77,547.45z"/>
					<path id="XMLID_00000172419685928306914690000000393803045370919064_" class="st97" d="M301.16,547.45
						c-54.77,0-54.87,1.05-54.87-2.57c0-7.77-0.71-11.13,2.57-11.13c54.77,0,54.87-1.05,54.87,2.57
						C303.72,544.08,304.43,547.45,301.16,547.45z"/>
					<path id="XMLID_00000182514078636873929810000011250694534902587311_" class="st98" d="M344.18,547.45
						c-21.46,0-23.86,0.85-23.86-2.57c0-7.77-0.71-11.13,2.57-11.13c21.46,0,23.86-0.86,23.86,2.57
						C346.75,544.08,347.46,547.45,344.18,547.45z"/>
				</g>
			</g>
		</g>
		<g>
			<g>
				<g>
					<g>
						<path class="st101" d="M572.05,719.25c0,0,6.1,23.79,4.57,24.7c-1.52,0.91-73.5,1.83-76.24,0
							c-2.74-1.83-0.37-13.42,38.24-24.7C538.63,719.25,561.38,711.93,572.05,719.25z"/>
						<g class="st102">
							<defs>
								<path id="SVGID_00000142886990438484576360000005631068876745529245_" class="st102" d="M572.05,719.25
									c0,0,6.1,23.79,4.57,24.7c-1.52,0.91-73.5,1.83-76.24,0c-2.74-1.83-0.37-13.42,38.24-24.7
									C538.63,719.25,561.38,711.93,572.05,719.25z"/>
							</defs>
							<use xlink:href="#SVGID_00000142886990438484576360000005631068876745529245_"  style="overflow:visible;fill:#383838;"/>
							<clipPath id="SVGID_00000070834392419026268780000000282817473215170437_">
								<use xlink:href="#SVGID_00000142886990438484576360000005631068876745529245_"  style="overflow:visible;"/>
							</clipPath>
							<path style="clip-path:url(#SVGID_00000070834392419026268780000000282817473215170437_);fill:#383838;" d="M510.84,727.11
								c0.32,0,13.11-0.11,18.11,9.38h33.46c0,0,5.97-12.15,18.75-7.14c12.79,5.01,5.54,23.76,5.54,23.76l-92.6-6.29l6.29-19.07
								L510.84,727.11z"/>
						</g>
					</g>
					<path class="st33" d="M568.25,694.98l1.6,25.59c0,0-9.13,5.27-21.02-0.23l-1-25.35H568.25z"/>
				</g>
				<g>
					<g>
						<path class="st101" d="M486.61,719.25c0,0,6.1,23.79,4.57,24.7c-1.52,0.91-73.5,1.83-76.24,0
							c-2.74-1.83-0.37-13.42,38.24-24.7C453.19,719.25,475.94,711.93,486.61,719.25z"/>
						<g class="st102">
							<defs>
								<path id="SVGID_00000160180153454573238260000004597585934653971875_" class="st102" d="M486.61,719.25
									c0,0,6.1,23.79,4.57,24.7c-1.52,0.91-73.5,1.83-76.24,0c-2.74-1.83-0.37-13.42,38.24-24.7
									C453.19,719.25,475.94,711.93,486.61,719.25z"/>
							</defs>
							<use xlink:href="#SVGID_00000160180153454573238260000004597585934653971875_"  style="overflow:visible;fill:#383838;"/>
							<clipPath id="SVGID_00000160902949809437273270000008131386016443681200_">
								<use xlink:href="#SVGID_00000160180153454573238260000004597585934653971875_"  style="overflow:visible;"/>
							</clipPath>
							<path style="clip-path:url(#SVGID_00000160902949809437273270000008131386016443681200_);fill:#383838;" d="M425.4,727.11
								c0.32,0,13.11-0.11,18.11,9.38h33.46c0,0,5.97-12.15,18.75-7.14c12.79,5.01,5.54,23.76,5.54,23.76l-92.6-6.29l6.29-19.07
								L425.4,727.11z"/>
						</g>
					</g>
					<path class="st33" d="M484.86,696.69l-2.03,23.21c0,0-11.27,4.25-19.82-0.7l1.67-25.6L484.86,696.69z"/>
				</g>
				<g>
					<path class="st105" d="M490.49,686.87c0,0-0.59,11.01-3.48,12c-2.89,0.99-5.2,0.08-8.87,0.14c-3.67,0.06-10.87-0.09-14.09-0.71
						c-3.22-0.62-4.77-1.67-3.1-12.29C462.61,675.37,490.49,686.87,490.49,686.87z"/>
					<g>
						<path class="st105" d="M570.85,694.66c0.22,1.92-1.73,2.71-2.81,3.01c-2.36,0.66-7.07,0.7-9.51,0.96
							c-4.33,0.46-7.03,0.31-11.36,0.77c-0.68,0.07-2.51,0.14-3.15-0.11c-1.3-0.49-0.62-2.11-0.89-3.47
							c-0.29-1.51-1.06-3.13-1.16-4.66c-0.01-0.19-0.02-0.39,0.03-0.58c0.1-0.36,0.42-0.61,0.73-0.82
							c2.99-2.05,6.64-2.85,10.22-3.41c2.79-0.44,5.62-0.76,8.43-0.51c2.61,0.23,5.48,0.99,7.64,2.56c0.79,0.57,2.21-0.42,2.3,0.52
							C571.45,690.27,570.68,693.25,570.85,694.66z"/>
						<path class="st34" d="M576.29,549.14c0,0,0.17,71.79,1.28,73.67c0.82,1.39,1.54,37.31,1.87,56
							c0.11,6.3-4.63,11.62-10.91,12.25c-7.85,0.79-18.29,1.72-25.82,2.01c-4.3,0.16-8-2.98-8.57-7.24l-13.76-104.69
							c0,0-9.25-1.57-10.27-1.57c-0.87,0-11.82,82.49-14.93,106.01c-0.47,3.54-3.51,6.14-7.08,6.06
							c-10.88-0.25-20.92,3.33-32.31-4.53c-11.99-8.28,15.69-159.25,15.69-159.25L576.29,549.14z"/>
						<path class="st105" d="M573.55,554.43c0,0,2.24,25.98,0,27.54s-18.8-5.32-24.48-8.45c-5.68-3.13-8.71-34.84-8.71-34.84
							L573.55,554.43z"/>
						<path class="st105" d="M489.54,532.4c0,0-7.4,44.42-10.77,47.11c-3.37,2.69-9.09,2.69-9.09,2.69l3.37-49.8H489.54z"/>
						<path class="st3" d="M522.59,544.55c0,0,6.83,14.2,6.29,25.79c0,0-1.08,0.98-1.73,0c-0.65-0.98-2.17-17.77-7.8-25.79
							C513.7,536.54,522.59,544.55,522.59,544.55z"/>
						<path class="st3" d="M502.14,544.55c0,0-6.83,14.2-6.29,25.79c0,0,1.08,0.98,1.73,0c0.65-0.98,2.17-17.77,7.8-25.79
							C511.02,536.54,502.14,544.55,502.14,544.55z"/>
						<path class="st105" d="M517.46,545.75c0,0,1.98,28.82,1.33,29.91c-0.65,1.08-8.89-0.65-9.32-1.73c-0.43-1.08,0-32.18,0-32.18
							L517.46,545.75z"/>
					</g>
					<g>
						<g>
							<path class="st73" d="M559.68,350.06c0.79,0.12,1.42,0.67,2.07,1.13c3.75,2.65,9.19,2.63,12.91-0.06
								c3.72-2.69,5.46-7.84,4.12-12.24c4.74,0.73,9.77-0.81,13.29-4.07c3.52-3.25,5.45-8.15,5.09-12.93
								c3.74-0.04,8.09-0.39,10.15-3.51c1.08-1.64,1.25-3.7,1.38-5.66c0.19-2.82,0.38-5.69-0.28-8.44c-0.66-2.75-2.32-5.4-4.9-6.56
								c1.99-6.48,4-13.17,3.39-19.92c-0.61-6.75-4.49-13.68-10.93-15.8c-0.84-0.28-1.78-0.51-2.33-1.21
								c-0.42-0.53-0.53-1.24-0.6-1.91c-0.5-4.96,0.67-10.1-0.71-14.89c-1.31-4.53-4.98-8.31-9.48-9.74
								c-4.5-1.43-9.68-0.47-13.37,2.47c-2.05-3.9-5.31-7.45-9.58-8.56c-4.27-1.12-9.49,0.93-10.85,5.13
								c-3.08-4.83-8.26-8.79-13.99-8.62c-5.73,0.17-11.2,5.85-9.68,11.38c-4.52-2.99-9.9-5.47-15.21-4.41
								c-5.32,1.06-9.77,7.11-7.4,11.98c-4.85-1.21-9.87-2.43-14.8-1.61c-4.93,0.82-9.8,4.22-10.71,9.14
								c-0.87,4.71,1.96,9.22,4.67,13.18c-5.51,2.25-9.84,7.21-11.31,12.98c-1.48,5.77-0.07,12.2,3.69,16.82
								c0.49,0.6,1.05,1.26,1.02,2.04c-0.02,0.62-0.41,1.16-0.78,1.67c-2.22,3.14-3.76,6.94-3.42,10.77c0.34,3.83,2.9,7.6,6.63,8.56
								c-1.42,1.17-2.34,3.07-1.98,4.87c0.36,1.81,2.22,3.29,4.02,2.92c-2.83,1.87-3.15,6.3-1.1,9c2.05,2.7,5.81,3.69,9.15,3.1
								c-0.76,3.48-1.06,8.05,2.12,9.67c1.03,0.52,2.23,0.59,3.38,0.57c3.91-0.05,7.76-0.9,11.62-1.57
								c10.95-1.91,22.52-2.7,33.6-1.45c3.36,0.38,5.73,1.42,8.45,3.37c1.76,1.26,3.42,2.79,5.58,3.31
								C555.27,351.59,557.3,349.68,559.68,350.06z"/>
							<path class="st106" d="M479.04,305.62h20.8l-0.46,1.34c0,0-20.71,1.36-20.69,1.17C478.7,307.93,479.04,305.62,479.04,305.62z
								"/>
							<path class="st75" d="M548.64,348.26c0,0-1.49,19.82,0,20.31c1.49,0.5,19.57,12.88,19.57,12.88l-33.93,11.39l-33.44-5.7
								l-0.99-16.6c0,0,16.1-6.19,17.09-6.44c0.99-0.25,3.72-17.09,3.72-17.09L548.64,348.26z"/>
							<path class="st33" d="M564.49,300.71c0,0-5.94,46.07-11.64,50.03c-5.7,3.96-45.58,12.88-50.78,1.24
								c-5.2-11.64-4.21-70.34-0.99-73.07c3.22-2.72,47.06-1.98,47.06-1.98L564.49,300.71z"/>
							<path class="st73" d="M487.95,286.66c0.53-3.65,1.31-7.41,3.48-10.4c3.42-4.72,9.51-6.55,15.2-7.78
								c11.73-2.54,23.78-3.81,35.77-3.23c4.34,0.21,8.77,0.69,12.68,2.59c6.99,3.38,11.18,10.66,14.19,17.82
								c3.59,8.55,6.04,18.54,2.01,26.88c-2.12,4.4-5.95,8.1-6.72,12.93c-0.28,1.79-0.12,3.65-0.64,5.38
								c-0.52,1.73-2.05,3.39-3.85,3.18c-2.1-0.25-3.08-2.66-3.63-4.7c-0.26-0.95-0.51-1.93-0.32-2.9c0.19-0.96,0.96-1.89,1.94-1.91
								c-2.69-2.86-3.22-6.71-1.45-10.07c1.68-3.2,1.48-4.31,1.13-7.95c-1.81-0.29-2.94,1.78-4.79,1.62
								c-1.78-0.16-3.02-2.07-3.63-3.56c-0.88-2.14-1.38-4.44-1.49-6.76c-3.28-0.46-6.8,1.37-9.81,0c-1.87-0.85-3.05-2.8-3.49-4.81
								c-0.45-2-0.26-4.09-0.08-6.13c-2.33-0.9-4.82,1.25-7.3,0.97c-2.51-0.28-4.03-2.85-5.14-5.12c-2.84,1.95-6.4,2.83-9.82,2.44
								c0.76,2.62-0.34,5.66-2.59,7.2c-2.25,1.53-5.49,1.44-7.65-0.23c-0.47,2.14-1.31,4.2-2.47,6.06
								c-3.06,0.64-6.56,1.07-9.05-0.83C487.36,295.02,487.4,290.46,487.95,286.66z"/>
							<path class="st73" d="M536.75,316.24c0,3.23,1.22,5.85,2.72,5.85s2.72-2.62,2.72-5.85c0-3.23-1.22-5.85-2.72-5.85
								S536.75,313.01,536.75,316.24z"/>
							<path class="st73" d="M504.66,316.24c0,3.23,1.22,5.85,2.72,5.85c1.5,0,2.72-2.62,2.72-5.85c0-3.23-1.22-5.85-2.72-5.85
								C505.88,310.39,504.66,313.01,504.66,316.24z"/>
							<path class="st3" d="M513.71,340.28c0,4.68,4.88,8.47,10.9,8.47c6.02,0,10.9-3.79,10.9-8.47c0-4.68-4.88-1.19-10.9-1.19
								C518.59,339.09,513.71,335.6,513.71,340.28z"/>
							<g>
								<g>
									<path class="st76" d="M522.54,306.53c0.14,3.15,0.29,6.36-0.28,9.48c-0.27,1.51-0.67,3.08-1.44,4.42
										c-0.78,1.36-2.14,2.1-3.11,3.29c-1.34,1.64-1.97,3.94-0.75,5.82c1.43,2.2,4.17,2.62,6.58,2.85c0.73,0.07,0.73-1.08,0-1.14
										c-2.45-0.23-6.45-1-6.08-4.33c0.3-2.65,2.97-3.65,4.24-5.72c2.58-4.22,2.18-9.94,1.98-14.66
										C523.65,305.79,522.51,305.79,522.54,306.53L522.54,306.53z"/>
								</g>
							</g>
							<path class="st107" d="M478.65,309.35c0-11.7,9.49-12.62,21.19-12.62c11.7,0,21.19,0.91,21.19,12.62
								c0,11.7-9.49,21.19-21.19,21.19C488.14,330.54,478.65,321.06,478.65,309.35z"/>
							<path class="st106" d="M593.15,315.55c-1.05-0.34-1.62-1.46-1.49-2.55c0.13-1.12,0.5-3.35-0.22-3.72
								c-2.41-1.22-3.31-1.48-23.49-1.63l-0.36-2.22c0,0,24.52,0.93,25.3,2.74C594.77,312.58,594.48,315.98,593.15,315.55z"/>
							<path class="st33" d="M568.21,309.38c0,0,8.17-5.7,10.16,0c1.98,5.7-5.5,22.08-13.87,14.12L568.21,309.38z"/>
							<path class="st107" d="M525.64,309.35c0-11.7,9.49-12.62,21.19-12.62c11.7,0,21.19,0.91,21.19,12.62
								c0,11.7-9.49,21.19-21.19,21.19C535.13,330.54,525.64,321.06,525.64,309.35z"/>
						</g>
						<path class="st106" d="M525.64,309.03c0,0-2.52-1.43-4.2,0v-2.15l4.2,0.27V309.03z"/>
					</g>
					<path class="st3" d="M559.97,375.87c0,0-8.63,13.66-32.36,10c-23.73-3.66-25.08-16.34-25.08-16.34s-31.78-13.5-54.4,23.32
						c-22.62,36.82-19.43,118.69-19.43,118.69l149.25-21.3l26.19-99.9C604.14,390.34,585.54,379.74,559.97,375.87z"/>
					<g>
						<path class="st35" d="M522.5,404.96c-36.48-4.03-48.21-22.41-51.99-33.7c3.22-1.56,6.38-2.59,9.39-3.23
							c4.44,9.51,15.56,22.94,43.37,28.19c33.94,6.4,52.67-7.51,59.84-14.76c3.27,1.08,6.22,2.18,8.82,3.22
							C582.07,394.06,560,409.1,522.5,404.96z"/>
						<path class="st31" d="M598.16,413.14c-19.9,7.96-44.3,12.26-74.63,14.2c-33.11,2.12-61.89-23.26-74.3-36.19
							c1.94-2.98,3.93-5.62,5.97-7.93c8.22,13.11,27.18,33.48,66.79,36.92c35.1,3.05,62.24-7.12,78.51-15.9L598.16,413.14z"/>
						<polygon class="st35" points="567.02,440.98 567.02,430.94 594.87,425.72 592.17,436 						"/>
						<polygon class="st31" points="577.57,452.82 577.57,443.81 590.12,443.81 587.76,452.82 						"/>
						<polygon class="st35" points="577.57,460.79 585.39,461.84 583.77,468.06 577.57,466.45 						"/>
						<path class="st31" d="M577.57,473.21c1.47,0.25,3,0.63,4.56,1.1l-2.44,9.3c-3.46-1.47-5.47-2.1-5.47-2.1
							S551.32,468.77,577.57,473.21z"/>
					</g>
					<polygon class="st44" points="590.53,400.32 567.02,553.68 384.64,531.25 403.11,376.91 					"/>
					<polygon class="st73" points="580.94,421.03 562.3,546.47 389.95,526.65 405.6,399.09 					"/>
					<g>
						<g>
							<path class="st31" d="M420.36,391.31c0.12,2.77,2.46,4.93,5.23,4.81c2.77-0.12,4.93-2.46,4.81-5.23s-2.46-4.93-5.23-4.81
								C422.4,386.2,420.25,388.54,420.36,391.31z"/>
							<path class="st101" d="M407.59,390.04c0.12,2.77,2.46,4.93,5.23,4.81c2.77-0.12,4.93-2.46,4.81-5.23
								c-0.12-2.77-2.46-4.93-5.23-4.81C409.63,384.93,407.47,387.27,407.59,390.04z"/>
							<path class="st108" d="M433.6,392.47c0.12,2.77,2.46,4.93,5.23,4.81c2.77-0.12,4.93-2.46,4.81-5.23
								c-0.12-2.77-2.46-4.93-5.23-4.81C435.64,387.35,433.49,389.7,433.6,392.47z"/>
						</g>
						<g>
							<g>
								
									<rect x="538.95" y="450.62" transform="matrix(-0.9923 -0.1238 0.1238 -0.9923 1032.7177 969.0357)" class="st108" width="15.05" height="3.61"/>
								
									<rect x="526.9" y="448.8" transform="matrix(-0.9923 -0.1238 0.1238 -0.9923 1003.8616 963.5945)" class="st101" width="9.95" height="3.61"/>
								
									<rect x="509.36" y="454.39" transform="matrix(-0.9923 -0.1238 0.1238 -0.9923 995.823 974.2927)" class="st3" width="37.66" height="3.61"/>
								
									<rect x="479.21" y="450.06" transform="matrix(-0.9923 -0.1238 0.1238 -0.9923 927.2515 961.3716)" class="st3" width="28.59" height="3.61"/>
								
									<rect x="472.98" y="447.79" transform="matrix(-0.9923 -0.1239 0.1239 -0.9923 891.2372 954.5938)" class="st108" width="4.62" height="3.61"/>
								
									<rect x="537.48" y="462.15" transform="matrix(-0.9923 -0.1238 0.1238 -0.9923 1022.0262 991.4354)" class="st108" width="8.68" height="3.61"/>
								
									<rect x="540.65" y="468.6" transform="matrix(-0.9923 -0.1238 0.1238 -0.9923 1027.5336 1004.6724)" class="st31" width="8.68" height="3.61"/>
								
									<rect x="538.82" y="483.21" transform="matrix(-0.9923 -0.1238 0.1238 -0.9923 1022.0934 1033.5494)" class="st31" width="8.68" height="3.61"/>
								
									<rect x="508.09" y="472.15" transform="matrix(-0.9923 -0.1238 0.1238 -0.9923 987.035 1009.2515)" class="st3" width="33.58" height="3.61"/>
								
									<rect x="445.92" y="462.71" transform="matrix(-0.9923 -0.1238 0.1238 -0.9923 837.5735 981.0912)" class="st108" width="6.72" height="3.61"/>
								
									<rect x="453.44" y="466.6" transform="matrix(-0.9923 -0.1238 0.1238 -0.9923 899.2128 992.7039)" class="st3" width="54.04" height="3.61"/>
								
									<rect x="506.03" y="488.69" transform="matrix(-0.9923 -0.1238 0.1238 -0.9923 980.8735 1041.9586)" class="st3" width="33.58" height="3.61"/>
								
									<rect x="443.86" y="479.26" transform="matrix(-0.9923 -0.1238 0.1238 -0.9923 831.4126 1013.798)" class="st101" width="6.72" height="3.61"/>
								
									<rect x="451.37" y="483.15" transform="matrix(-0.9923 -0.1238 0.1238 -0.9923 893.0491 1025.4127)" class="st3" width="54.04" height="3.61"/>
								
									<rect x="516.67" y="495.51" transform="matrix(-0.9923 -0.1238 0.1238 -0.9923 984.9554 1055.8527)" class="st31" width="17.25" height="3.61"/>
								
									<rect x="438.23" y="485.06" transform="matrix(-0.9923 -0.1239 0.1239 -0.9923 819.4752 1024.6783)" class="st108" width="6.72" height="3.61"/>
								
									<rect x="452.25" y="493.32" transform="matrix(-0.9923 -0.1238 0.1238 -0.9923 846.4155 1042.8514)" class="st108" width="6.72" height="3.61"/>
								
									<rect x="425.72" y="509.54" transform="matrix(-0.9923 -0.1238 0.1238 -0.9923 791.5369 1071.8876)" class="st101" width="6.72" height="3.61"/>
								
									<rect x="445.68" y="489.98" transform="matrix(-0.9923 -0.1238 0.1238 -0.9923 897.3833 1039.348)" class="st3" width="70.62" height="3.61"/>
								
									<rect x="506.96" y="500.81" transform="matrix(-0.9923 -0.1238 0.1238 -0.9923 964.9582 1065.199)" class="st31" width="17.25" height="3.61"/>
								
									<rect x="460.14" y="496.78" transform="matrix(-0.9923 -0.1238 0.1238 -0.9923 901.1794 1053.184)" class="st3" width="46.36" height="3.61"/>
								
									<rect x="497.25" y="506.11" transform="matrix(-0.9923 -0.1238 0.1238 -0.9923 944.9542 1074.5509)" class="st31" width="17.25" height="3.61"/>
								
									<rect x="426.26" y="500.58" transform="matrix(-0.9923 -0.1238 0.1238 -0.9923 857.3746 1058.0522)" class="st3" width="70.62" height="3.61"/>
								
									<rect x="487.53" y="511.4" transform="matrix(-0.9923 -0.1238 0.1238 -0.9923 924.9505 1083.9025)" class="st31" width="17.25" height="3.61"/>
								
									<rect x="416.55" y="505.87" transform="matrix(-0.9923 -0.1238 0.1238 -0.9923 837.3707 1067.4039)" class="st3" width="70.62" height="3.61"/>
								
									<rect x="486.73" y="517.81" transform="matrix(-0.9923 -0.1238 0.1238 -0.9923 922.5635 1096.5729)" class="st31" width="17.25" height="3.61"/>
								
									<rect x="433.64" y="513.4" transform="matrix(-0.9923 -0.1238 0.1238 -0.9923 852.6014 1083.3927)" class="st3" width="52.66" height="3.61"/>
								
									<rect x="478.35" y="457.8" transform="matrix(-0.9923 -0.1238 0.1238 -0.9923 953.0766 978.4429)" class="st3" width="57.19" height="3.61"/>
								
									<rect x="472.24" y="453.75" transform="matrix(-0.9923 -0.1239 0.1239 -0.9923 889.0175 966.3793)" class="st108" width="4.62" height="3.61"/>
							</g>
							<g>
								<path class="st31" d="M559.19,427.05c0,0-1.79,18.61-2.32,18.6c-1.02-0.02-27.54-3.75-27.54-3.75l2.84-18.83L559.19,427.05z
									"/>
								<polygon class="st3" points="550.28,427.78 554.19,436.27 546.47,442.49 545.09,440.97 551.74,435.78 548.01,428.66 
																	"/>
								<polygon class="st3" points="544.86,428.13 536.92,432.92 540.89,440.85 539.61,441.9 534.53,432.16 544.32,426.5 								
									"/>
							</g>
						</g>
					</g>
					<g>
						<path class="st33" d="M571.66,558.64c0,0-8.2,8.21-11.15,7.94c-2.94-0.27-4.18-3.15-4.18-3.15s-5.92,1.23-7.27,0.41
							c-1.35-0.82-0.86-4.93-1.38-5.2c-0.52-0.27-2.17,0.19-4.63-0.49c-2.46-0.68-1.82-4.87-2.23-5.01
							c-0.41-0.14-6.62-0.67-6.47-3.24c0.44-7.39,9.22-9.18,14.71-11.1C554.55,536.89,571.66,558.64,571.66,558.64z"/>
						<g>
							<path class="st31" d="M582.7,552.66c0,0-4.17,8.75-9.16,8.75c-4.99,0-26.86-18.27-25.83-25.47
								c1.03-7.2,10.55-10.81,10.55-10.81L582.7,552.66z"/>
							<g>
								<path class="st3" d="M592.55,386.01c0,0,31.59,5.56,46.77,46.99c15.18,41.43,15.44,63.81-6.43,88.77
									c-21.87,24.96-23.42,23.93-33.71,35c-10.29,11.06-31.14-10.29-34.74-15.44c-3.6-5.15-20.84-16.36-13.64-29.8
									c7.2-13.43,22.77-15.86,25.93-25.46C579.88,476.49,592.55,386.01,592.55,386.01z"/>
								<g>
									<path class="st31" d="M613.38,396.21c2.14,1.59,4.31,3.52,6.51,5.64c-9.23,6.17-19.84,11.06-31.78,14.86
										c0.35-2.43,0.69-4.78,1.02-7.03C600.38,404.92,608.73,399.56,613.38,396.21z"/>
									<path class="st35" d="M585.06,437.41c0.51-3.39,1.02-6.79,1.51-10.13l46.09-8.65c1.5,2.62,2.94,5.46,4.28,8.51
										L585.06,437.41z"/>
									<path class="st35" d="M560.51,500.75c3.6-2.73,7.33-4.93,10.36-7.29c19.38,13.61,38.31,36.73,45.68,46.21
										c-3.85,3.94-6.51,6.41-9.09,8.84C592.78,531.64,570.88,510.55,560.51,500.75z"/>
									<path class="st31" d="M582.7,452.82c0.46-2.94,0.92-5.95,1.39-9.01h58.98c1.01,3.11,1.92,6.11,2.72,9.01H582.7z"/>
									<path class="st35" d="M581.36,461.3l68.1,9.14c0.65,5.19,0.8,10.05,0.42,14.7l-69.48-17.95
										C580.71,465.31,581.03,463.34,581.36,461.3z"/>
									<path class="st31" d="M579.31,473.57c20.11,4.5,48.01,28.79,60.03,39.98c-1.89,2.73-4.02,5.46-6.45,8.23
										c-0.17,0.19-0.32,0.37-0.49,0.56c-22.5-25.16-46.24-36.2-54.83-39.6C578.06,480.45,578.65,477.32,579.31,473.57z"/>
								</g>
							</g>
							<g>
								<path class="st3" d="M592.55,386.01c0,0,31.59,5.56,46.77,46.99c15.18,41.43,15.44,63.81-6.43,88.77
									c-21.87,24.96-23.42,23.93-33.71,35c-10.29,11.06-31.14-10.29-34.74-15.44c-3.6-5.15-20.84-16.36-13.64-29.8
									c7.2-13.43,22.77-15.86,25.93-25.46C579.88,476.49,592.55,386.01,592.55,386.01z"/>
								<g>
									<path class="st31" d="M613.38,396.21c2.14,1.59,4.31,3.52,6.51,5.64c-9.23,6.17-19.84,11.06-31.78,14.86
										c0.35-2.43,0.69-4.78,1.02-7.03C600.38,404.92,608.73,399.56,613.38,396.21z"/>
									<path class="st35" d="M585.06,437.41c0.51-3.39,1.02-6.79,1.51-10.13l46.09-8.65c1.5,2.62,2.94,5.46,4.28,8.51
										L585.06,437.41z"/>
									<path class="st35" d="M560.51,500.75c3.6-2.73,7.33-4.93,10.36-7.29c19.38,13.61,38.31,36.73,45.68,46.21
										c-3.85,3.94-6.51,6.41-9.09,8.84C592.78,531.64,570.88,510.55,560.51,500.75z"/>
									<path class="st31" d="M582.7,452.82c0.46-2.94,0.92-5.95,1.39-9.01h58.98c1.01,3.11,1.92,6.11,2.72,9.01H582.7z"/>
									<path class="st35" d="M581.36,461.3l68.1,9.14c0.65,5.19,0.8,10.05,0.42,14.7l-69.48-17.95
										C580.71,465.31,581.03,463.34,581.36,461.3z"/>
									<path class="st31" d="M579.31,473.57c20.11,4.5,48.01,28.79,60.03,39.98c-1.89,2.73-4.02,5.46-6.45,8.23
										c-0.17,0.19-0.32,0.37-0.49,0.56c-22.5-25.16-46.24-36.2-54.83-39.6C578.06,480.45,578.65,477.32,579.31,473.57z"/>
								</g>
								<path class="st109" d="M550.81,511.54c7.2-13.43,22.77-15.86,25.93-25.46c1.41-4.28,4.71-24.65,7.93-45.9
									c2.17,5.34,5.65,10.06,10.38,13.47c2.17,1.56,4.6,2.89,6.21,5.02c1.71,2.26,2.29,5.21,2.26,8.04
									c-0.09,8.1-4.81,15.58-10.91,20.91c-6.1,5.34-13.51,8.88-20.76,12.5c-4.56,2.28-9.48,5.03-11.23,9.82
									c-1.64,4.49,0.02,9.48,1.99,13.84c2.01,4.42,4.36,8.69,7.03,12.74c3.17,4.82,6.94,9.78,6.99,15.54
									c0,0.36-0.02,0.73-0.13,1.07c-5.74-4.35-10.51-9.59-12.06-11.81C560.84,536.19,543.6,524.97,550.81,511.54z"/>
							</g>
						</g>
					</g>
				</g>
				<g>
					<path class="st33" d="M396.23,421.03c0,0-5.46-5.57,0.32-9.95c2.78-2.11,20.36,0.54,18,5.57
						C412.19,421.68,398.85,417.43,396.23,421.03z"/>
					<path class="st33" d="M396.06,430.16c0,0-6.47-5.6,0.32-9.95c3.27-2.1,24.04,0.66,21.28,5.67
						C414.92,430.89,399.14,426.57,396.06,430.16z"/>
					<path class="st33" d="M395.29,439.98c0,0-5.46-5.57,0.32-9.95c2.78-2.11,20.36,0.54,18,5.57
						C411.26,440.63,397.92,436.38,395.29,439.98z"/>
					<path class="st33" d="M394.42,447.77c0,0-4.67-4.77,0.28-8.53c2.38-1.81,17.44,0.46,15.42,4.77
						C408.1,448.32,396.67,444.69,394.42,447.77z"/>
				</g>
			</g>
		</g>
		<g>
			<path class="st110" d="M108.09,424.79c0,0,69.15-6,71.73-14.57c2.57-8.57,7.08-7.41,17.79-67.61l-17.14-3.59
				c0,0-20.51,45.39-22.8,46.29c-2.28,0.9-53.87-23.5-66.87-22.65C77.81,363.5,98.23,425.75,108.09,424.79z"/>
			<g>
				<g>
					<g>
						<g>
							<path class="st44" d="M17.42,717c0,0-6.2,24.17-4.65,25.1c1.55,0.93,74.69,1.86,77.48,0c2.79-1.86,0.37-13.64-38.86-25.1
								C51.39,717,28.27,709.57,17.42,717z"/>
							<g>
								<defs>
									<path id="SVGID_00000019672214445094085440000003577735399681122735_" d="M17.42,717c0,0-6.2,24.17-4.65,25.1
										c1.55,0.93,74.69,1.86,77.48,0c2.79-1.86,0.37-13.64-38.86-25.1C51.39,717,28.27,709.57,17.42,717z"/>
								</defs>
								<use xlink:href="#SVGID_00000019672214445094085440000003577735399681122735_"  style="overflow:visible;fill:#383838;"/>
								<clipPath id="SVGID_00000132049358889399332570000001048724188816713912_">
									<use xlink:href="#SVGID_00000019672214445094085440000003577735399681122735_"  style="overflow:visible;"/>
								</clipPath>
								<path style="clip-path:url(#SVGID_00000132049358889399332570000001048724188816713912_);fill:#383838;" d="M79.62,725
									c-0.32,0-13.32-0.11-18.41,9.53h-34c0,0-6.06-12.34-19.06-7.26c-12.99,5.09-5.63,24.15-5.63,24.15l94.1-6.39l-6.39-19.38
									L79.62,725z"/>
							</g>
						</g>
						<path class="st112" d="M21.29,692.34l-1.63,26c0,0,9.27,5.36,21.36-0.23l1.02-25.77H21.29z"/>
					</g>
					<g>
						<g>
							<path class="st44" d="M104.25,717c0,0-6.2,24.17-4.65,25.1c1.55,0.93,74.69,1.86,77.48,0c2.79-1.86,0.37-13.64-38.86-25.1
								C138.22,717,115.1,709.57,104.25,717z"/>
							<g class="st102">
								<defs>
									<path id="SVGID_00000018225265612773023360000001433101907738978954_" class="st102" d="M104.25,717
										c0,0-6.2,24.17-4.65,25.1c1.55,0.93,74.69,1.86,77.48,0c2.79-1.86,0.37-13.64-38.86-25.1
										C138.22,717,115.1,709.57,104.25,717z"/>
								</defs>
								<use xlink:href="#SVGID_00000018225265612773023360000001433101907738978954_"  style="overflow:visible;fill:#383838;"/>
								<clipPath id="SVGID_00000004518992614460999700000006824640816866494868_">
									<use xlink:href="#SVGID_00000018225265612773023360000001433101907738978954_"  style="overflow:visible;"/>
								</clipPath>
								<path style="clip-path:url(#SVGID_00000004518992614460999700000006824640816866494868_);fill:#383838;" d="M166.45,725
									c-0.32,0-13.32-0.11-18.41,9.53h-34c0,0-6.06-12.34-19.06-7.26c-12.99,5.09-5.63,24.15-5.63,24.15l94.1-6.39l-6.39-19.38
									L166.45,725z"/>
							</g>
						</g>
						<path class="st112" d="M106.03,694.08l2.06,23.59c0,0,11.45,4.32,20.14-0.71l-1.69-26.02L106.03,694.08z"/>
					</g>
					<g>
						<path class="st71" d="M100.31,702.25c0,0,0.6,11.19,3.54,12.19c2.94,1,5.29,0.08,9.02,0.14c3.73,0.06,11.04-0.1,14.32-0.73
							c3.28-0.63,4.85-1.7,3.15-12.49C128.64,690.57,100.31,702.25,100.31,702.25z"/>
						<g>
							<path class="st71" d="M18.65,713.19c-0.23,1.95,1.76,2.75,2.85,3.06c2.4,0.67,7.19,0.71,9.66,0.97
								c4.4,0.47,5.32-1.15,9.72-0.68c0.69,0.07,4.64,0.13,5.29-0.12c1.32-0.5,0.37-0.66,0.64-2.05c0.3-1.53,1.08-3.18,1.18-4.74
								c0.01-0.2,0.02-0.4-0.03-0.59c-0.11-0.37-0.43-0.62-0.74-0.84c-3.04-2.08-6.75-2.89-10.39-3.47
								c-2.83-0.45-5.71-0.78-8.57-0.52c-2.65,0.23-5.57,1.01-7.76,2.6c-0.8,0.58-2.25-0.42-2.34,0.53
								C18.03,708.72,18.81,711.75,18.65,713.19z"/>
							<path class="st72" d="M13.12,529.02c0,0-0.18,88.08-1.3,89.99c-0.83,1.41-1.57,59.09-1.9,78.08
								c-0.11,6.41,4.71,11.81,11.08,12.45c7.98,0.8,18.59,1.75,26.24,2.04c4.37,0.17,8.13-3.03,8.7-7.36l13.99-142.68
								c0,0,9.41-1.59,10.44-1.59c0.88,0,12.02,117.1,15.17,140.99c0.47,3.59,3.57,6.24,7.2,6.16c11.06-0.26,21.26,3.39,32.83-4.6
								c12.19-8.42-15.95-195.1-15.95-195.1L13.12,529.02z"/>
							<path class="st71" d="M15.9,535.6c0,0-2.27,28.38,0,30.09c2.27,1.71,19.1-5.81,24.88-9.23c5.78-3.42,8.85-38.07,8.85-38.07
								L15.9,535.6z"/>
							<path class="st71" d="M101.28,512c0,0,7.52,45.14,10.94,47.88c3.42,2.74,12.91,2.24,12.91,2.24l-7.1-50.12H101.28z"/>
							<path class="st71" d="M72.9,525.57c0,0-2.01,29.29-1.35,30.39c0.66,1.1,9.03-0.66,9.47-1.76c0.44-1.1,0-32.71,0-32.71
								L72.9,525.57z"/>
						</g>
						<g>
							<g>
								<path class="st114" d="M41.22,340c0,0,1.51,20.14,0,20.64c-1.51,0.5-19.89,13.09-19.89,13.09l34.48,11.58l33.98-5.79
									l1.01-16.86c0,0-16.36-6.29-17.37-6.54c-1.01-0.25-3.78-17.37-3.78-17.37L41.22,340z"/>
								<path class="st112" d="M25.11,291.67c0,0,6.04,46.82,11.83,50.85c5.79,4.03,46.31,13.09,51.6,1.26
									c5.29-11.83,4.28-71.49,1.01-74.25c-3.27-2.77-47.83-2.01-47.83-2.01L25.11,291.67z"/>
								<path class="st89" d="M53.3,307.46c0,3.28-1.24,5.94-2.77,5.94c-1.53,0-2.77-2.66-2.77-5.94c0-3.28,1.24-5.94,2.77-5.94
									C52.06,301.51,53.3,304.17,53.3,307.46z"/>
								<path class="st89" d="M84.15,307.46c0,3.28-1.24,5.94-2.77,5.94c-1.53,0-2.77-2.66-2.77-5.94c0-3.28,1.24-5.94,2.77-5.94
									C82.91,301.51,84.15,304.17,84.15,307.46z"/>
								<path class="st3" d="M70.14,338.53c-2.63,3.96-8.89,4.43-13.99,1.04c-5.1-3.38-7.09-9.34-4.46-13.3
									c2.63-3.96,4.8,1.74,9.89,5.12C66.68,334.78,72.77,334.57,70.14,338.53z"/>
								<g class="st18">
									<path class="st112" d="M68.02,297.58c-0.14,3.22-0.3,6.49,0.29,9.68c0.28,1.53,0.69,3.16,1.52,4.49
										c0.8,1.28,2.15,2.02,3.08,3.18c1.44,1.81,2.05,4.32,0.63,6.32c-1.56,2.21-4.31,2.65-6.82,2.89c-1.11,0.1-1.1-1.63,0-1.73
										c2.26-0.21,5.97-0.82,5.93-3.83c-0.04-2.66-2.9-3.81-4.19-5.78c-2.81-4.3-2.38-10.34-2.17-15.22
										C66.34,296.48,68.07,296.47,68.02,297.58L68.02,297.58z"/>
								</g>
								<path class="st114" d="M21.33,300.48c0,0-8.31-5.79-10.32,0c-2.01,5.79,5.59,22.44,14.1,14.35L21.33,300.48z"/>
							</g>
						</g>
					</g>
				</g>
			</g>
			<path class="st101" d="M111.37,410.21c0,0,25.7,118.15,19.66,120.94c-6.04,2.78-117.06,8.19-120.34,4.72
				C7.41,532.4-11.3,376.29,25.82,370.18c0,0,41.91,13.74,64.98-7.52C90.8,362.65,107.24,376.18,111.37,410.21z"/>
			<path class="st33" d="M30.08,321.93c0,0,1.46-25.45,2.92-31.49c1.46-6.04,13.97-7.71,12.3-18.55c0,0,9.3,12.09,21.43,6.88
				c12.13-5.21,3.4-7.71,3.4-7.71s12.61,12.92,22.13,9.38s2.65-9.38,2.65-9.38s17.72-5.42,12.09-17.09
				c-5.63-11.67-12.71-5.84-12.71-5.84s6.42-23.34-10.13-24.8c-16.55-1.46-18.51,17.93-18.51,17.93s-8.11-11.46-17.87-5
				c-9.76,6.46-7.89,13.55-7.89,13.55s-26.03-1.04-21.98,19.59c0,0-17.83-1.88,1.34,33.56C19.24,302.95,19.24,326.12,30.08,321.93z"
				/>
			<polygon class="st44" points="219.84,327.89 219.84,324.15 146.23,342.96 81.38,372.92 81.38,377.09 153.92,380.93 			"/>
			<polygon class="st73" points="81.38,372.92 153.16,376.26 219.84,324.15 146.93,325.82 			"/>
			<g>
				<polygon class="st44" points="158.67,327.79 103.73,370.39 92.9,370.39 149.65,327.79 				"/>
				<polygon class="st44" points="161.64,327.79 160.71,328.56 109.68,370.39 121.76,370.46 169.76,329.91 				"/>
				<polygon class="st44" points="171.79,331.9 126.87,370.46 138.64,370.39 179.5,333.38 				"/>
				<polygon class="st44" points="165.3,351.18 146.49,371.09 157.31,371.09 174.23,353.55 				"/>
			</g>
			<polygon class="st44" points="153.92,380.93 164.92,283.8 233.34,239.46 219.84,327.89 			"/>
			<path class="st112" d="M146.93,380.56c0,0-6.55,8.04-22.97,14.99c-16.43,6.95-15.86-1.81-15.86-1.81v-4.67
				c0,0-2.6-18.01,3.27-21.44s13.9,0.15,3.02,6.86c0,0,1.43,6.87,4,6.43c2.57-0.43,10.83-1.31,10.83-1.31"/>
			<path class="st115" d="M123.95,395.55c0,0-15.61,53.47-39.81,67.11c-36.39,20.5-87.9-29.68-79.46-66.45
				c8.43-36.77,25.5-26.76,24.73-25.02c0,0,33.23,57.74,38.32,56.39c0,0,37.4-35.98,40.36-38.51L123.95,395.55z"/>
		</g>
	</g>
</g>
</svg>
