<?xml version="1.0" encoding="utf-8"?>
<!-- Generator: Adobe Illustrator 27.0.0, SVG Export Plug-In . SVG Version: 6.00 Build 0)  -->
<svg version="1.1" xmlns="http://www.w3.org/2000/svg" xmlns:xlink="http://www.w3.org/1999/xlink" x="0px" y="0px"
	 viewBox="0 0 784.91 739.9" style="enable-background:new 0 0 784.91 739.9;" xml:space="preserve">
<style type="text/css">
	.st0{fill:#F2F2F2;}
	.st1{fill:#679FC1;}
	.st2{fill:#BAD7DF;}
	.st3{fill:#FFFFFF;}
	.st4{clip-path:url(#SVGID_00000048475764424478395130000009765182620782411936_);}
	.st5{clip-path:url(#SVGID_00000038401728895561600030000002585427488880168381_);}
	.st6{fill:url(#SVGID_00000094594343718168736170000015930766968742092200_);}
	.st7{fill:url(#SVGID_00000182505020491004756220000008262257836041044141_);}
	.st8{fill:url(#SVGID_00000155854588006703870200000011348827664924376487_);}
	.st9{fill:url(#SVGID_00000046303710979409608010000017186691767465101200_);}
	.st10{fill:url(#SVGID_00000042728556780976751650000001672300792663544721_);}
	.st11{opacity:0.48;fill:#FFFFFF;}
	.st12{fill:url(#SVGID_00000001647622132215873250000012212737681442834846_);}
	.st13{opacity:0.3;fill:url(#SVGID_00000171696079797998916270000002817828476845948589_);}
	.st14{opacity:0.75;}
	.st15{fill:url(#SVGID_00000104680409386745570990000006042887558338710659_);}
	.st16{opacity:0.74;fill:#FFFFFF;}
	.st17{fill:url(#SVGID_00000148648199890964856430000000883850088931493018_);}
	.st18{opacity:0.5;}
	.st19{fill:url(#SVGID_00000062892455084167590820000003395936067821167037_);}
	.st20{fill:url(#SVGID_00000153690530813386006680000013423279996578730663_);}
	.st21{opacity:0.3;}
	.st22{fill:url(#SVGID_00000183945382074367025520000006913608281218978952_);}
	.st23{fill:url(#SVGID_00000072254711379187104340000005964504245529032635_);}
	.st24{fill:url(#SVGID_00000119091291786404878390000018069645637572420499_);}
	.st25{fill:url(#SVGID_00000119116642937265291120000003685799270269629111_);}
	.st26{fill:url(#SVGID_00000010308306557873749920000011146551517627902609_);}
	.st27{fill:url(#SVGID_00000125575917808897989500000007071061351278038194_);}
	.st28{fill:url(#SVGID_00000176041316453183189800000008299795774201194156_);}
	.st29{fill:#F0C9B4;}
	.st30{fill:#A1B776;}
	.st31{fill:#E48862;}
	.st32{fill:#BD7759;}
	.st33{fill:#735546;}
	.st34{fill:#FFE2E2;}
	.st35{fill:#A1D0F2;}
	.st36{opacity:0.39;fill:#99DDCC;}
	.st37{opacity:0.39;fill:#BAD7DF;}
	.st38{fill:#FFFFFF;stroke:#BCBCBC;stroke-width:2;stroke-miterlimit:10;}
	.st39{clip-path:url(#SVGID_00000173880155189858045890000007075931369563865994_);}
	.st40{fill:#FFA727;}
	.st41{fill:#25292B;}
	.st42{fill:#FFBD29;}
	.st43{fill:#F2E9DA;}
	.st44{fill:#383838;}
	.st45{clip-path:url(#SVGID_00000013157553232939941730000011779617104512381579_);}
	.st46{clip-path:url(#SVGID_00000081630651553853249080000002513523772363418557_);}
	.st47{fill:url(#SVGID_00000013170369271490102540000014855693378659693747_);}
	.st48{fill:url(#SVGID_00000100378699537729787820000014772884868736885642_);}
	.st49{fill:url(#SVGID_00000011721578282556959310000002447190382899327160_);}
	.st50{fill:url(#SVGID_00000103960647007582283440000014561068078257426327_);}
	.st51{fill:url(#SVGID_00000178895818110388074610000009644483868829803195_);}
	.st52{fill:url(#SVGID_00000053536908001095405730000010937788697482865798_);}
	.st53{opacity:0.3;fill:url(#SVGID_00000082346884430548839890000018160468976671828912_);}
	.st54{fill:url(#SVGID_00000083051144260137267890000002080672075765321895_);}
	.st55{fill:url(#SVGID_00000103968773332534807820000009259349301323661714_);}
	.st56{fill:url(#SVGID_00000047021252340029888200000005645180114715839914_);}
	.st57{fill:url(#SVGID_00000055680573600817834760000002950874016080089521_);}
	.st58{fill:url(#SVGID_00000044146804583003378340000016085218186513368764_);}
	.st59{fill:url(#SVGID_00000154414879603302261010000012229396298881162669_);}
	.st60{fill:url(#SVGID_00000125566499955178205980000006892585584517647025_);}
	.st61{fill:url(#SVGID_00000137841821966117319130000015083365144976229258_);}
	.st62{fill:url(#SVGID_00000088854211780971824920000002348495630964768952_);}
	.st63{fill:url(#SVGID_00000062163787827909160770000010352073177930826372_);}
	.st64{fill:url(#SVGID_00000049204274279798389400000017749895931239745211_);}
	.st65{clip-path:url(#SVGID_00000049939243677639259670000014288987487198557114_);}
	.st66{fill:#F2D9AF;}
	.st67{opacity:0.2;fill:#383838;}
	.st68{fill:#F4CA60;}
	.st69{clip-path:url(#SVGID_00000044147921902977328420000017575697518885376158_);fill:#FFFFFF;}
	.st70{clip-path:url(#SVGID_00000057869236375394530300000003463933448437570436_);fill:#FFFFFF;}
	.st71{fill:#8CB1CC;}
	.st72{fill:#A3D2F4;}
	.st73{fill:#222220;}
	.st74{fill:#D66156;}
	.st75{fill:#684D3F;}
	.st76{fill:#5B3F30;}
	.st77{fill:none;stroke:#D66156;stroke-width:1.3728;stroke-miterlimit:10;}
	.st78{fill:#EF8A62;}
	.st79{fill:#CCED98;}
	.st80{fill:#EEEEEE;}
	.st81{fill:#F2CBB6;}
	.st82{fill:#BF7759;}
	.st83{fill:#C8A34C;}
	.st84{clip-path:url(#SVGID_00000034055902485829344700000003027721095018014369_);fill:#FFFFFF;}
	.st85{fill:#E29D7F;}
	.st86{clip-path:url(#SVGID_00000175309149100586637280000013395769216088787591_);fill:#FFFFFF;}
	.st87{fill:#D9D9D9;}
	.st88{fill:#C48B71;}
	.st89{fill:#32241B;}
	.st90{fill:#E8BA52;}
	.st91{fill:#67837A;}
	.st92{fill:#84A397;}
	.st93{fill:#A9C5BB;}
	.st94{fill:#EAE2D7;}
	.st95{fill:#454446;}
	.st96{fill:#BCBEC0;}
	.st97{fill:#A6BDD5;}
	.st98{fill:#B98636;}
	.st99{fill:#BE7140;}
	.st100{opacity:0.5;fill:#A6BDD5;}
	.st101{fill:#F0C860;}
	.st102{opacity:0.2;}
	.st103{clip-path:url(#SVGID_00000165928481867972115140000005533515046373798072_);fill:#383838;}
	.st104{clip-path:url(#SVGID_00000158029397133868992280000002092954402790402467_);fill:#383838;}
	.st105{fill:#BA9B9B;}
	.st106{fill:#D46156;}
	.st107{fill:none;stroke:#D46156;stroke-width:1.3728;stroke-miterlimit:10;}
	.st108{fill:#CAEB96;}
	.st109{fill:#ECECEC;}
	.st110{fill:#C6A24C;}
	.st111{clip-path:url(#SVGID_00000072271663348565387940000001927110683841768117_);fill:#383838;}
	.st112{fill:#E09B7E;}
	.st113{clip-path:url(#SVGID_00000163074289885887437310000005852407343762345609_);fill:#383838;}
	.st114{fill:#C28971;}
	.st115{fill:#E6B852;}
	.st116{clip-path:url(#SVGID_00000043442023170854720710000017387569460378008962_);fill:#383838;}
	.st117{clip-path:url(#SVGID_00000118392951420055357340000008158673868894475940_);fill:#383838;}
	.st118{clip-path:url(#SVGID_00000059293043254025097610000003569030849160479127_);fill:#383838;}
	.st119{clip-path:url(#SVGID_00000075130696764170929630000006471528835195289496_);fill:#383838;}
	.st120{clip-path:url(#XMLID_00000012470670668593882110000003707325251542675378_);}
	.st121{fill:#180037;}
	.st122{fill:#659FFB;}
	.st123{clip-path:url(#XMLID_00000036224773035845482230000013242802362194800009_);}
	.st124{fill:#1D1635;}
	.st125{clip-path:url(#XMLID_00000075148892727147447390000012938138878760861346_);}
	.st126{clip-path:url(#XMLID_00000021082968748944793220000013809839038054105485_);}
	.st127{clip-path:url(#XMLID_00000170995512916306916420000004964119993579254175_);}
	.st128{clip-path:url(#XMLID_00000052812006785329304560000000815556151008405407_);}
	.st129{clip-path:url(#XMLID_00000159448964703145561160000008156999576099888274_);}
	.st130{clip-path:url(#XMLID_00000072270237022710539250000015019681615193676968_);}
	.st131{clip-path:url(#XMLID_00000014621155362538225610000013910386779424466364_);}
	.st132{clip-path:url(#XMLID_00000021824316023278354050000010385275319952939935_);}
	.st133{clip-path:url(#XMLID_00000158708315631194626090000007549753254276145557_);}
	.st134{clip-path:url(#XMLID_00000023239816539398660800000016301340370512927123_);}
</style>
<g id="BACKGROUND">
	<g>
		<g id="XMLID_00000154419194836637915960000003237282259489881770_">
			<path id="XMLID_00000119097604638142504270000013534119465530557877_" class="st2" d="M418.71,678.32
				c-105.97,8.74-145.95-52.32-195.3-51.95c-73.79,0.56-151.55,5.94-156.52-91.32c-4.97-97.26,31.57-130.65-1.99-207.29
				C31.34,251.14-9.83,210.58,33.42,156.16c43.28-54.47,116.15-21.23,201.72-61.99C320.7,53.41,419.03-1.21,599.42,20.58
				c180.39,21.79,86.24,138.72,109.33,207.6c23.08,68.89,90.42,78.86,73.45,169.25C745.05,595.41,492.77,672.21,418.71,678.32z"/>
			<g id="XMLID_00000085216606398906202120000010353099693644091525_">
				<path class="st2" d="M389.35,39.19c60.89-14,125.42-16.6,196.89-7.96c51.23,6.19,84.31,20.5,101.12,43.74
					c19.49,26.94,14.56,61.74,9.8,95.39c-3.6,25.46-7,49.52-0.28,69.6c8.71,26,23.78,43.47,38.35,60.37
					c23.55,27.3,45.8,53.09,35.16,109.77c-8.66,46.16-29.66,88.99-62.41,127.31c-27.55,32.23-63.29,61.22-106.23,86.16
					c-77.28,44.89-159.67,65.67-196.19,68.68c-65.1,5.37-105.65-15.54-138.23-32.33c-20.56-10.6-38.31-19.75-57.17-19.61
					c-3.3,0.02-6.61,0.06-9.92,0.09c-70.48,0.74-143.36,1.51-148.19-93.02c-2.01-39.33,2.73-68.23,6.91-93.74
					c6.19-37.78,11.09-67.61-8.76-112.93c-7.43-16.97-15.4-32.48-22.43-46.17c-25.05-48.77-43.15-84.01-8.84-127.18
					c24.39-30.69,58.23-34,97.43-37.83c31.37-3.06,66.92-6.54,104.81-24.58c5.34-2.54,10.72-5.14,16.18-7.77
					c40.24-19.4,85.86-41.38,141.64-55.49C382.42,40.82,385.88,39.99,389.35,39.19z M444.68,682.3
					c41.68-9.58,99.91-29.33,155.54-61.65c65.29-37.92,147.28-105.37,167.17-211.32c10.33-55.02-10.39-79.03-34.38-106.84
					c-14.79-17.15-30.08-34.87-39.01-61.53c-6.99-20.87-3.53-45.33,0.13-71.21c4.66-32.96,9.48-67.05-9.17-92.84
					c-16.26-22.47-48.63-36.35-98.96-42.43c-168.72-20.38-263.6,25.35-347.31,65.69c-5.46,2.63-10.85,5.23-16.19,7.77
					c-38.34,18.26-74.16,21.76-105.76,24.84c-38.54,3.76-71.82,7.01-95.44,36.73c-32.97,41.49-16.21,74.12,9.16,123.5
					c7.05,13.73,15.05,29.3,22.53,46.37c20.27,46.28,15.3,76.56,9.01,114.91c-4.15,25.33-8.86,54.05-6.87,93
					c2.12,41.5,17.23,66.71,47.55,79.34c26.94,11.22,62.78,10.84,97.44,10.47c3.31-0.04,6.63-0.07,9.93-0.1
					c19.58-0.15,37.64,9.16,58.55,19.94c32.24,16.62,72.37,37.31,136.64,32.01C415.25,688.14,428.76,685.96,444.68,682.3z"/>
			</g>
		</g>
		<g>
			<path class="st3" d="M514.67,263.18l2.63,13.49c-5.88,2.33-11.48,5.12-16.75,8.37l-9-10.34c-2.46-2.82-6.74-3.08-9.57-0.59
				l-17.71,15.61c-2.84,2.5-3.15,6.82-0.7,9.65l9.08,10.48c-3.9,4.91-7.39,10.14-10.41,15.65l-13.15-4.47
				c-3.55-1.21-7.42,0.73-8.66,4.32l-7.76,22.52c-1.24,3.61,0.63,7.52,4.18,8.73l13.19,4.51c-0.98,6.16-1.42,12.46-1.32,18.84
				l-13.8,2.82c-3.71,0.76-6.14,4.41-5.44,8.16l4.39,23.52c0.7,3.77,4.29,6.21,8,5.45l13.84-2.82c2.24,5.99,4.94,11.7,8.11,17.08
				l-10.65,9.46c-2.87,2.55-3.19,6.97-0.71,9.88l15.53,18.19c2.49,2.91,6.84,3.2,9.71,0.64l10.64-9.49
				c4.88,4.01,10.1,7.58,15.59,10.68l-4.58,13.61c-1.24,3.69,0.68,7.69,4.28,8.94l22.57,7.82c3.61,1.25,7.54-0.73,8.77-4.42
				l4.51-13.51c6.19,0.99,12.52,1.4,18.93,1.26l2.73,13.98c0.75,3.83,4.39,6.31,8.14,5.55l23.44-4.78c3.75-0.76,6.17-4.49,5.41-8.31
				l-2.75-13.86c6.01-2.36,11.73-5.21,17.11-8.54l9.13,10.54c2.54,2.93,6.91,3.21,9.77,0.64l17.87-16.07
				c2.85-2.57,3.11-7.01,0.57-9.93l-9.1-10.45c3.97-5.05,7.49-10.45,10.53-16.13l12.96,4.43c3.62,1.24,7.53-0.73,8.72-4.4
				l7.45-22.88c1.19-3.65-0.78-7.61-4.39-8.84l-12.84-4.36c0.92-6.31,1.26-12.75,1.06-19.26l13.24-2.7c3.72-0.76,6.1-4.42,5.32-8.17
				l-4.85-23.43c-0.77-3.74-4.41-6.15-8.11-5.4l-13.2,2.69c-2.37-6.03-5.2-11.76-8.51-17.14l10.03-8.94
				c2.82-2.51,3.07-6.86,0.56-9.7l-15.68-17.74c-2.5-2.83-6.81-3.1-9.63-0.59l-10.09,8.97c-4.94-3.93-10.21-7.43-15.75-10.44
				l4.29-12.84c1.19-3.57-0.73-7.44-4.29-8.63l-22.25-7.46c-3.55-1.19-7.41,0.73-8.61,4.3l-4.33,12.87
				c-6.12-0.91-12.38-1.26-18.72-1.07l-2.65-13.38c-0.73-3.68-4.3-6.06-7.97-5.31l-22.98,4.69
				C516.34,255.9,513.95,259.49,514.67,263.18z M488.45,391.11c-7.23-37.84,17.15-74.5,54.43-82.1
				c37.27-7.6,73.65,16.67,81.29,54.43c7.69,37.98-16.6,75.17-54.28,82.85C532.2,453.97,495.72,429.17,488.45,391.11z"/>
			<path class="st3" d="M634.06,202.79l0.77,3.97c-1.73,0.68-3.38,1.51-4.93,2.46l-2.65-3.04c-0.72-0.83-1.98-0.91-2.81-0.17
				l-5.21,4.59c-0.83,0.74-0.93,2.01-0.2,2.84l2.67,3.08c-1.15,1.44-2.17,2.98-3.06,4.6l-3.87-1.31c-1.04-0.35-2.18,0.21-2.55,1.27
				l-2.28,6.62c-0.37,1.06,0.18,2.21,1.23,2.57l3.88,1.33c-0.29,1.81-0.42,3.66-0.39,5.54l-4.06,0.83c-1.09,0.22-1.81,1.3-1.6,2.4
				l1.29,6.92c0.21,1.11,1.26,1.83,2.35,1.6l4.07-0.83c0.66,1.76,1.45,3.44,2.38,5.02l-3.13,2.78c-0.84,0.75-0.94,2.05-0.21,2.9
				l4.57,5.35c0.73,0.86,2.01,0.94,2.86,0.19l3.13-2.79c1.43,1.18,2.97,2.23,4.59,3.14l-1.35,4c-0.36,1.08,0.2,2.26,1.26,2.63
				l6.64,2.3c1.06,0.37,2.22-0.21,2.58-1.3l1.33-3.97c1.82,0.29,3.68,0.41,5.57,0.37l0.8,4.11c0.22,1.13,1.29,1.86,2.39,1.63
				l6.89-1.41c1.1-0.22,1.82-1.32,1.59-2.44l-0.81-4.08c1.77-0.69,3.45-1.53,5.03-2.51l2.69,3.1c0.75,0.86,2.03,0.95,2.87,0.19
				l5.25-4.72c0.84-0.75,0.91-2.06,0.17-2.92l-2.68-3.07c1.17-1.49,2.2-3.07,3.1-4.74l3.81,1.3c1.07,0.36,2.21-0.22,2.56-1.29
				l2.19-6.73c0.35-1.07-0.23-2.24-1.29-2.6l-3.77-1.28c0.27-1.85,0.37-3.75,0.31-5.66l3.89-0.79c1.09-0.22,1.79-1.3,1.57-2.4
				l-1.43-6.89c-0.23-1.1-1.3-1.81-2.39-1.59l-3.88,0.79c-0.7-1.77-1.53-3.46-2.5-5.04l2.95-2.63c0.83-0.74,0.9-2.02,0.16-2.85
				l-4.61-5.22c-0.74-0.83-2-0.91-2.83-0.17l-2.97,2.64c-1.45-1.16-3-2.19-4.63-3.07l1.26-3.78c0.35-1.05-0.21-2.19-1.26-2.54
				l-6.54-2.19c-1.05-0.35-2.18,0.22-2.53,1.26l-1.27,3.79c-1.8-0.27-3.64-0.37-5.5-0.31l-0.78-3.93c-0.21-1.08-1.26-1.78-2.35-1.56
				l-6.76,1.38C634.55,200.65,633.84,201.7,634.06,202.79z M626.34,240.41c-2.13-11.13,5.04-21.91,16.01-24.15
				c10.96-2.24,21.66,4.9,23.91,16.01c2.26,11.17-4.88,22.11-15.96,24.37C639.21,258.9,628.48,251.6,626.34,240.41z"/>
		</g>
		<g>
			<g>
				<g>
					<defs>
						<path id="SVGID_00000115474121023109094250000006145622891391788422_" d="M339.22,398.22c7.94-24.19,16.02-61.12,6.56-102.12
							c-10.86-47.08-34.92-56.5-56.52-106.82c-30.84-71.84,4.06-123.87-27.86-145.83c-15.57-10.71-40.05-10.72-55.14,0.03
							C163.2,74.15,175,207.74,243.32,259.87c30.9,23.58,57.86,20.78,81.05,51.29C344.85,338.11,343.25,373.68,339.22,398.22z"/>
					</defs>
					
						<linearGradient id="SVGID_00000164485809298378283720000009209079191628089527_" gradientUnits="userSpaceOnUse" x1="206.7572" y1="38.384" x2="309.709" y2="365.9576">
						<stop  offset="0" style="stop-color:#E58E83"/>
						<stop  offset="1" style="stop-color:#DD6FB6"/>
					</linearGradient>
					
						<use xlink:href="#SVGID_00000115474121023109094250000006145622891391788422_"  style="overflow:visible;fill:url(#SVGID_00000164485809298378283720000009209079191628089527_);"/>
					<clipPath id="SVGID_00000163775560997209703750000000237292513036507560_">
						<use xlink:href="#SVGID_00000115474121023109094250000006145622891391788422_"  style="overflow:visible;"/>
					</clipPath>
					<g style="clip-path:url(#SVGID_00000163775560997209703750000000237292513036507560_);">
						<path class="st3" d="M344.07,337.36c-2.59-10.17-6.07-20.17-10.34-29.71c-9.83-21.93-20.67-34-34.4-49.27
							c-8.96-9.97-19.12-21.27-30.85-37.47c-21.96-30.31-28.77-40.96-34.88-58.12c-12.08-33.96-10.23-64.41-8.05-79.54
							c3.1-21.46,10.3-41.88,21.4-60.7l0.67,0.39c-11.05,18.73-18.22,39.06-21.3,60.42c-2.17,15.06-4.02,45.37,8.01,79.17
							c6.07,17.07,12.87,27.69,34.78,57.93c11.71,16.17,21.86,27.45,30.8,37.4c13.78,15.32,24.66,27.43,34.53,49.47
							c4.29,9.58,7.79,19.62,10.39,29.84L344.07,337.36z"/>
						<path class="st3" d="M227.69,138.8l-0.56-0.3c-0.13-0.07-12.88-7.08-24.21-21.34c-10.46-13.17-21.83-35.4-16.57-66.5
							l0.77,0.13c-5.21,30.82,6.05,52.84,16.42,65.89c9.89,12.45,20.85,19.31,23.42,20.82c0.71-24.85,16.64-40.95,29.94-50.1
							C271.4,77.4,286,73.31,286.15,73.27l0.21,0.75c-0.14,0.04-14.64,4.11-29.05,14.03c-13.26,9.13-29.16,25.24-29.6,50.12
							L227.69,138.8z"/>
						<path class="st3" d="M231.33,218.7c-12.9,0-28.05-3.17-42.05-14.06l0.48-0.61c31.41,24.45,68.76,9.54,72.47,7.96
							c-6.34-24.53-0.73-42.63,5.11-53.51c6.36-11.85,14.38-17.94,14.46-18l0.47,0.62c-0.08,0.06-7.98,6.07-14.26,17.78
							c-5.79,10.8-11.35,28.8-4.94,53.23l0.08,0.32l-0.3,0.14C262.61,212.67,249.12,218.7,231.33,218.7z"/>
						<path class="st3" d="M260.1,265.49c-9.67,0-21.25-1.76-34.72-6.68l0.27-0.73c44.14,16.12,67.7-1.94,70.13-3.96
							c-10.74-25.13,4.39-65.77,4.54-66.18l0.73,0.27c-0.15,0.41-15.28,41.04-4.44,65.85l0.11,0.25l-0.21,0.19
							C296.34,254.68,284.09,265.49,260.1,265.49z"/>
					</g>
				</g>
			</g>
			<g>
				<g>
					<defs>
						<path id="SVGID_00000014612730628949085190000003998617975074795705_" d="M353.03,369.05c2.52-15.23,3.97-39.01-8.43-60.28
							c-21.63-37.11-61.05-24.8-98.78-64.56c-30.43-32.07-20.84-56.99-54.56-78.3c-5.64-3.57-35.47-23.2-57.65-11.37
							c-12.5,6.66-17.03,20.34-17.88,22.91c-12.85,38.8,26.68,99.56,78.2,127.35c29.6,15.96,39.15,10.75,91.24,29.37
							C315.78,345.1,338.76,359.19,353.03,369.05z"/>
					</defs>
					
						<linearGradient id="SVGID_00000146468876543072042560000013312178667422282368_" gradientUnits="userSpaceOnUse" x1="395.2709" y1="981.2784" x2="372.6053" y2="881.2829">
						<stop  offset="0" style="stop-color:#E58E83"/>
						<stop  offset="1" style="stop-color:#DD6FB6"/>
					</linearGradient>
					
						<use xlink:href="#SVGID_00000014612730628949085190000003998617975074795705_"  style="overflow:visible;fill:url(#SVGID_00000146468876543072042560000013312178667422282368_);"/>
					<clipPath id="SVGID_00000159430221326842688910000005280695226081548690_">
						<use xlink:href="#SVGID_00000014612730628949085190000003998617975074795705_"  style="overflow:visible;"/>
					</clipPath>
					<g style="clip-path:url(#SVGID_00000159430221326842688910000005280695226081548690_);">
						<path class="st3" d="M357.38,387.39c-7.54-36.21-21.8-60.51-42.4-72.25c-10.05-5.72-18.08-6.63-26.58-7.6
							c-9.29-1.05-18.89-2.14-31.6-9.82c-12.37-7.48-16.79-14.66-22.38-23.75c-4.97-8.08-11.16-18.13-25.04-31.51
							c-12.17-11.73-21.04-17.22-28.86-22.07c-8.56-5.31-15.33-9.5-23.18-19.79c-12.8-16.77-19.48-38.25-19.87-63.85l0.78-0.01
							c0.39,25.43,7.02,46.76,19.72,63.39c7.77,10.18,14.48,14.34,22.97,19.6c7.86,4.87,16.76,10.38,28.99,22.17
							c13.95,13.45,20.17,23.55,25.17,31.66c5.54,9,9.92,16.11,22.12,23.49c12.56,7.6,22.08,8.67,31.29,9.71
							c8.58,0.97,16.69,1.89,26.88,7.69c20.8,11.85,35.19,36.33,42.78,72.76L357.38,387.39z"/>
						<path class="st3" d="M180.96,222.63c-26.47,0-46.22-10.14-58.3-18.85c-13.61-9.8-20.67-19.96-20.74-20.06l0.64-0.44
							c0.07,0.1,7.08,10.16,20.58,19.89c12.38,8.91,32.88,19.35,60.47,18.65c-1.66-5.33-15.47-52.03,2.4-72.08l0.58,0.52
							c-18.57,20.84-2.25,71.31-2.08,71.81l0.16,0.49l-0.52,0.02C183.07,222.62,182.01,222.63,180.96,222.63z"/>
						<path class="st3" d="M178.93,265.68c-16.93,0-38.52-3.48-60.18-16.47l0.4-0.67c26.95,16.16,53.79,17.51,71.56,15.8
							c17.63-1.7,30.04-6.65,32.11-7.52c-7.17-26.47-0.78-63.8-0.72-64.17l0.76,0.13c-0.07,0.38-6.48,37.84,0.79,64.16l0.09,0.32
							l-0.3,0.14c-0.13,0.06-13.28,5.85-32.66,7.72C187.17,265.46,183.2,265.68,178.93,265.68z"/>
						<path class="st3" d="M201.88,327.15c-1.29,0-2.59-0.01-3.91-0.04l0.02-0.78c27.07,0.59,47.91-5.04,60.62-9.86
							c12.15-4.61,19.4-9.38,20.99-10.48c-19.87-24.69-12.09-64.99-12-65.4l0.76,0.15c-0.08,0.4-7.86,40.7,12.11,65.08l0.26,0.32
							l-0.33,0.24C280.1,306.59,251.56,327.15,201.88,327.15z"/>
					</g>
				</g>
			</g>
			<g>
				
					<linearGradient id="SVGID_00000173138980708119440790000011699911658752373683_" gradientUnits="userSpaceOnUse" x1="4697.5562" y1="-1083.446" x2="4474.7612" y2="-900.4354" gradientTransform="matrix(-0.9456 0.3251 0.3251 0.9456 4959.4023 -204.2055)">
					<stop  offset="0" style="stop-color:#E58E83"/>
					<stop  offset="1" style="stop-color:#DD6FB6"/>
				</linearGradient>
				<path style="fill:url(#SVGID_00000173138980708119440790000011699911658752373683_);" d="M353.57,356.11
					c-8.47-6.09-22.33-14.9-40.98-21.51c-33.17-11.76-48.37-4.82-62.41-18.84c-14.53-14.51-5.12-28.81-22.52-45.02
					c-1.46-1.36-20.15-18.32-37.05-12c-11.82,4.42-16.43,17.85-18.59,24.15c-8.38,24.46-3.51,61.73,22.59,80.11
					c24.74,17.43,56.06,9.12,66.01,6.41c17.45-4.75,21.58-11.55,39.32-15.85C321.5,348.34,340.88,352.21,353.57,356.11z"/>
			</g>
		</g>
		<g>
			
				<linearGradient id="SVGID_00000062914923239746816070000016902671794326210963_" gradientUnits="userSpaceOnUse" x1="391.5851" y1="591.513" x2="348.6176" y2="609.5593">
				<stop  offset="0" style="stop-color:#43467B"/>
				<stop  offset="0.9964" style="stop-color:#3E3D69"/>
			</linearGradient>
			<path style="fill:url(#SVGID_00000062914923239746816070000016902671794326210963_);" d="M744.86,567.96l-611.6-5.38v15.91
				c0,4.32,2.67,7.99,6.28,8.64l172.94,31.32c2.05,0.37,4.13,0.47,6.2,0.29l419.53-35.71c3.75-0.32,6.65-4,6.65-8.44V567.96z"/>
			<g>
				
					<linearGradient id="SVGID_00000026137580681221556570000014503129073416135348_" gradientUnits="userSpaceOnUse" x1="321.6744" y1="400.497" x2="277.1242" y2="419.2081">
					<stop  offset="0" style="stop-color:#43467B"/>
					<stop  offset="0.9964" style="stop-color:#3E3D69"/>
				</linearGradient>
				<path style="fill:url(#SVGID_00000026137580681221556570000014503129073416135348_);" d="M522.91,542.17l-383.33,29.1
					c-6.86,0.52-12.44-5.01-12.44-12.36V264.57c0-7.35,5.58-13.3,12.44-13.3h383.33c5.65,0,10.22,5.38,10.22,12.03v266.08
					C533.13,536.01,528.56,541.74,522.91,542.17z"/>
				
					<linearGradient id="SVGID_00000152949674367115347610000013614614307630917035_" gradientUnits="userSpaceOnUse" x1="133.2597" y1="411.2831" x2="539.2455" y2="411.2831">
					<stop  offset="0" style="stop-color:#43467B"/>
					<stop  offset="0.9964" style="stop-color:#3E3D69"/>
				</linearGradient>
				<path style="fill:url(#SVGID_00000152949674367115347610000013614614307630917035_);" d="M529.03,542.17l-383.33,29.1
					c-6.86,0.52-12.44-5.01-12.44-12.36V264.57c0-7.35,5.58-13.3,12.44-13.3h383.33c5.65,0,10.22,5.38,10.22,12.03v266.08
					C539.25,536.01,534.68,541.74,529.03,542.17z"/>
				
					<linearGradient id="SVGID_00000142870464128157123780000001463486753210615450_" gradientUnits="userSpaceOnUse" x1="159.3378" y1="542.1656" x2="571.4611" y2="206.568">
					<stop  offset="0" style="stop-color:#9D7FF4"/>
					<stop  offset="0.9964" style="stop-color:#6265D2"/>
				</linearGradient>
				<path style="fill:url(#SVGID_00000142870464128157123780000001463486753210615450_);" d="M517.08,523.41l-357.03,25.27
					c-5.58,0.4-10.12-4.15-10.12-10.14v-257.7c0-6,4.54-10.88,10.12-10.9l357.03-1.59c4.66-0.02,8.43,4.39,8.43,9.85v234.72
					C525.52,518.39,521.75,523.08,517.08,523.41z"/>
				<path class="st3" d="M350.9,259.31c0,2.73-1.97,4.96-4.41,4.97c-2.44,0.01-4.42-2.21-4.42-4.95c0-2.74,1.98-4.96,4.42-4.97
					C348.93,254.36,350.9,256.58,350.9,259.31z"/>
				<path class="st11" d="M436.67,461.44c-29.55-17.08-52.79,4.56-75.21-16.79c-13.6-12.94-6.92-22.6-23.65-41.94
					c-18.53-21.43-30.59-14.22-49.21-33.51c-23.54-24.38-11.77-43.35-32.05-60.86c-24.6-21.24-51.14-1.58-74.56-21.95
					c-10.1-8.78-15.64-21.56-18.54-35.14h-22.92c-4.02,0-7.28,3.5-7.28,7.81v305.11c0,4.31,3.26,7.56,7.28,7.25l390.67-29.79
					c1.92-0.15,3.62-1.35,4.71-3.09c-28.6-1.12-46.17-11.42-57.4-22.06C456.55,495.67,460.36,475.14,436.67,461.44z"/>
			</g>
			
				<linearGradient id="SVGID_00000061435307772727142950000011217167780233526420_" gradientUnits="userSpaceOnUse" x1="133.2597" y1="572.5423" x2="744.8606" y2="572.5423">
				<stop  offset="0" style="stop-color:#43467B"/>
				<stop  offset="0.9964" style="stop-color:#3E3D69"/>
			</linearGradient>
			<path style="fill:url(#SVGID_00000061435307772727142950000011217167780233526420_);" d="M544.3,540.85l-411.04,30.63
				l179.22,32.46c2.05,0.37,4.13,0.47,6.2,0.29l426.17-36.28l-194.02-26.9C548.67,540.76,546.48,540.69,544.3,540.85z"/>
			
				<linearGradient id="SVGID_00000169537840574995103860000000718042461202987147_" gradientUnits="userSpaceOnUse" x1="193.2375" y1="567.4851" x2="641.3536" y2="567.4851">
				<stop  offset="0" style="stop-color:#43467B"/>
				<stop  offset="0.9964" style="stop-color:#3E3D69"/>
			</linearGradient>
			<polygon style="opacity:0.3;fill:url(#SVGID_00000169537840574995103860000000718042461202987147_);" points="193.24,572.25 
				535.44,546.37 641.35,560.94 302.1,588.6 			"/>
			<g class="st14">
				<polygon class="st3" points="222.78,290.17 183.46,290.31 183.46,277.59 222.78,277.59 				"/>
				<polygon class="st3" points="428.77,289.46 247.75,290.09 247.75,277.59 428.77,277.59 				"/>
				<polygon class="st3" points="285.7,311.08 247.75,311.44 247.75,298.94 285.7,298.71 				"/>
				<polygon class="st3" points="484.76,309.2 309.81,310.85 309.81,298.57 484.76,297.53 				"/>
				<polygon class="st3" points="285.7,332.2 247.75,332.79 247.75,320.29 285.7,319.84 				"/>
				<polygon class="st3" points="484.76,329.13 309.81,331.83 309.81,319.55 484.76,317.46 				"/>
				<polygon class="st3" points="222.78,354.67 183.46,355.51 183.46,342.79 222.78,342.08 				"/>
				<polygon class="st3" points="428.77,350.27 247.75,354.14 247.75,341.64 428.77,338.4 				"/>
				<polygon class="st3" points="285.7,374.45 247.75,375.49 247.75,362.99 285.7,362.08 				"/>
				<polygon class="st3" points="484.76,369 309.81,373.79 309.81,361.51 484.76,357.33 				"/>
				<polygon class="st3" points="285.7,395.57 247.75,396.84 247.75,384.34 285.7,383.21 				"/>
				<polygon class="st3" points="484.76,388.94 309.81,394.77 309.81,382.49 484.76,377.27 				"/>
				<polygon class="st3" points="285.7,416.69 247.75,418.18 247.75,405.69 285.7,404.33 				"/>
				<polygon class="st3" points="484.76,408.88 309.81,415.75 309.81,403.47 484.76,397.21 				"/>
				<polygon class="st3" points="347.03,435.04 310.39,436.7 310.39,424.42 347.03,422.89 				"/>
				<polygon class="st3" points="511.48,427.6 370.31,433.99 370.31,421.92 511.48,416.03 				"/>
				<polygon class="st3" points="222.78,462.16 183.46,464.18 183.46,451.45 222.78,449.58 				"/>
				<polygon class="st3" points="428.77,451.61 247.75,460.88 247.75,448.38 428.77,439.75 				"/>
				<polygon class="st3" points="285.7,480.06 247.75,482.23 247.75,469.73 285.7,467.7 				"/>
				<polygon class="st3" points="484.76,468.68 309.81,478.69 309.81,466.4 484.76,457.01 				"/>
				<polygon class="st3" points="285.7,501.19 247.75,503.58 247.75,491.08 285.7,488.82 				"/>
				<polygon class="st3" points="484.76,488.62 309.81,499.66 309.81,487.38 484.76,476.95 				"/>
				<polygon class="st3" points="222.78,526.66 183.46,529.37 183.46,516.65 222.78,514.07 				"/>
				<polygon class="st3" points="428.77,512.42 247.75,524.93 247.75,512.43 428.77,500.56 				"/>
			</g>
		</g>
		<g>
			
				<linearGradient id="SVGID_00000163756584342987828010000002295313185901580950_" gradientUnits="userSpaceOnUse" x1="522.1691" y1="20.7956" x2="159.5109" y2="746.1106">
				<stop  offset="3.597120e-03" style="stop-color:#CD8BD8"/>
				<stop  offset="1" style="stop-color:#8A70F1"/>
			</linearGradient>
			<path style="fill:url(#SVGID_00000163756584342987828010000002295313185901580950_);" d="M566.03,105.84l-334.63-11
				c-11.22-0.37-20.36,8.48-20.36,19.77v326.15c0,11.29,9.13,20.05,20.36,19.57l334.63-14.29c9.68-0.41,17.49-9.2,17.49-19.62
				V125.28C583.53,114.86,575.71,106.15,566.03,105.84z"/>
			<path class="st16" d="M231.4,453.83c-7.63,0.32-13.84-5.65-13.84-13.32V114.8c0-7.67,6.21-13.7,13.84-13.46l334.63,10.55
				c6.59,0.21,11.92,6.14,11.92,13.24v301.51c0,7.1-5.33,13.08-11.92,13.36L231.4,453.83z"/>
			
				<linearGradient id="SVGID_00000085234555844500686640000000242977186346054027_" gradientUnits="userSpaceOnUse" x1="365.3186" y1="-1.856" x2="428.3317" y2="250.1974">
				<stop  offset="3.597120e-03" style="stop-color:#CD8BD8"/>
				<stop  offset="1" style="stop-color:#8A70F1"/>
			</linearGradient>
			<path style="fill:url(#SVGID_00000085234555844500686640000000242977186346054027_);" d="M566.03,105.84l-334.63-11
				c-11.22-0.37-20.36,8.48-20.36,19.77v14.66l372.48,9.55v-13.54C583.53,114.86,575.71,106.15,566.03,105.84z"/>
			<path class="st3" d="M247.24,113.68c0,3.67-2.95,6.56-6.6,6.46c-3.65-0.1-6.62-3.16-6.62-6.84c0-3.68,2.97-6.57,6.62-6.46
				C244.28,106.95,247.24,110.02,247.24,113.68z"/>
			<path class="st3" d="M270.28,114.35c0,3.65-2.92,6.53-6.54,6.43c-3.62-0.1-6.55-3.15-6.55-6.81c0-3.66,2.94-6.54,6.55-6.43
				C267.35,107.66,270.28,110.7,270.28,114.35z"/>
			<path class="st3" d="M293.09,115.02c0,3.63-2.9,6.5-6.48,6.4c-3.58-0.1-6.49-3.13-6.49-6.77c0-3.64,2.91-6.51,6.49-6.4
				C290.2,108.35,293.09,111.38,293.09,115.02z"/>
			<g>
				<polygon class="st3" points="411.52,170.08 234.77,166.91 234.77,177.3 411.52,180.1 				"/>
				<polygon class="st3" points="544.41,172.47 544.41,182.2 563.11,182.5 563.11,172.81 				"/>
			</g>
			<g>
				<polygon class="st3" points="272.14,202.72 234.77,202.32 234.77,191.61 272.14,192.09 				"/>
				<polygon class="st3" points="471.76,204.85 295.99,202.97 295.99,192.39 471.76,194.65 				"/>
				<polygon class="st3" points="332.42,221.3 295.99,221.05 295.99,210.47 332.42,210.8 				"/>
				<polygon class="st3" points="527.17,222.63 355.69,221.46 355.69,211.01 527.17,212.57 				"/>
				<polygon class="st3" points="332.42,239.23 295.99,239.12 295.99,228.54 332.42,228.73 				"/>
				<polygon class="st3" points="527.17,239.83 355.69,239.31 355.69,228.86 527.17,229.76 				"/>
				<polygon class="st3" points="272.14,257.21 234.77,257.24 234.77,246.52 272.14,246.58 				"/>
				<polygon class="st3" points="471.76,257.07 295.99,257.2 295.99,246.62 471.76,246.88 				"/>
				<polygon class="st3" points="332.42,275.11 295.99,275.27 295.99,264.69 332.42,264.61 				"/>
				<polygon class="st3" points="527.17,274.23 355.69,275 355.69,264.55 527.17,264.16 				"/>
				<polygon class="st3" points="332.42,293.04 295.99,293.34 295.99,282.76 332.42,282.54 				"/>
				<polygon class="st3" points="527.17,291.43 355.69,292.85 355.69,282.4 527.17,281.36 				"/>
				<polygon class="st3" points="332.42,310.98 295.99,311.42 295.99,300.84 332.42,300.48 				"/>
				<polygon class="st3" points="527.17,308.63 355.69,310.7 355.69,300.25 527.17,298.56 				"/>
				<polygon class="st3" points="391.77,327.97 356.25,328.54 356.25,318.09 391.77,317.6 				"/>
				<polygon class="st3" points="553.78,325.4 414.45,327.61 414.45,317.29 553.78,315.39 				"/>
				<polygon class="st3" points="272.14,348.03 234.77,348.77 234.77,338.05 272.14,337.4 				"/>
				<polygon class="st3" points="471.76,344.11 295.99,347.57 295.99,336.98 471.76,333.92 				"/>
				<polygon class="st3" points="332.42,364.79 295.99,365.64 295.99,355.06 332.42,354.29 				"/>
				<polygon class="st3" points="527.17,360.22 355.69,364.24 355.69,353.79 527.17,350.15 				"/>
				<polygon class="st3" points="332.42,382.72 295.99,383.71 295.99,373.13 332.42,372.22 				"/>
				<polygon class="st3" points="527.17,377.42 355.69,382.09 355.69,371.64 527.17,367.35 				"/>
				<polygon class="st3" points="272.14,402.53 234.77,403.69 234.77,392.97 272.14,391.89 				"/>
				<polygon class="st3" points="471.76,396.34 295.99,401.79 295.99,391.21 471.76,386.15 				"/>
				<polygon class="st3" points="332.42,418.59 295.99,419.86 295.99,409.28 332.42,408.09 				"/>
				<polygon class="st3" points="527.17,411.82 355.69,417.78 355.69,407.34 527.17,401.75 				"/>
			</g>
			<g class="st18">
				<path class="st3" d="M435.96,231.22c-39.08-56.87-106.73-38.78-149.53-101.61c-7.72-11.33-12.96-22.86-16.55-33.5l-38.48-1.26
					c-11.22-0.37-20.36,8.48-20.36,19.77v326.15c0,11.29,9.13,20.05,20.36,19.57l322.38-13.77c-7.39-10.65-71.71-50.1-88.32-110.68
					C450.26,280.5,459.54,265.53,435.96,231.22z"/>
			</g>
		</g>
		<g>
			
				<linearGradient id="SVGID_00000129900428106609690810000002667246410477472132_" gradientUnits="userSpaceOnUse" x1="545.9083" y1="141.0502" x2="614.234" y2="278.1634">
				<stop  offset="0" style="stop-color:#EFC250"/>
				<stop  offset="0.9964" style="stop-color:#D66F58"/>
			</linearGradient>
			<path style="fill:url(#SVGID_00000129900428106609690810000002667246410477472132_);" d="M637.61,230.69
				c0.07-24.27-24.31-42.84-51.85-41.53c-14.98,0.71-27.62,7.23-35.31,16.52c0,0,0-0.01,0-0.01c-0.05,0.06-0.09,0.12-0.14,0.17
				c-0.13,0.16-0.26,0.32-0.39,0.49c-0.23,0.3-0.47,0.6-0.69,0.9c-0.13,0.18-0.26,0.36-0.39,0.54c-0.22,0.3-0.43,0.61-0.63,0.91
				c-0.12,0.18-0.24,0.35-0.35,0.53c-0.23,0.35-0.45,0.71-0.67,1.07c-0.08,0.13-0.16,0.26-0.24,0.39c-0.29,0.49-0.56,0.98-0.82,1.48
				c-0.07,0.13-0.13,0.27-0.2,0.4c-0.19,0.37-0.38,0.75-0.55,1.13c-0.09,0.19-0.17,0.37-0.25,0.56c-0.15,0.34-0.29,0.67-0.43,1.01
				c-0.08,0.2-0.16,0.4-0.24,0.59c-0.13,0.35-0.26,0.7-0.39,1.05c-0.06,0.18-0.13,0.37-0.19,0.55c-0.15,0.44-0.28,0.89-0.41,1.34
				c-0.03,0.09-0.06,0.19-0.08,0.28c-0.15,0.54-0.29,1.09-0.41,1.65c-0.04,0.16-0.07,0.33-0.1,0.49c-0.08,0.4-0.16,0.79-0.23,1.19
				c-0.03,0.2-0.07,0.41-0.1,0.61c-0.06,0.37-0.11,0.74-0.15,1.12c-0.02,0.21-0.05,0.42-0.07,0.63c-0.04,0.39-0.07,0.79-0.09,1.19
				c-0.01,0.19-0.03,0.37-0.04,0.56c-0.03,0.58-0.04,1.17-0.04,1.76c0.05,14.02,8.72,26.85,22.01,34.37
				c1.24,0.7,2.52,1.36,3.85,1.97c0.66,0.31,1.34,0.6,2.02,0.88c4.83,1.99,10.14,3.34,15.79,3.89l0,0l0,0l0,0
				c0.78,0.08,1.57,0.13,2.34,0.18c0.26,0.01,0.52,0.02,0.79,0.03c0.52,0.02,1.03,0.04,1.55,0.05c0.31,0,0.63,0,0.94,0
				c0.46,0,0.92,0,1.38-0.01c0.34-0.01,0.67-0.03,1-0.04c0.43-0.02,0.87-0.04,1.3-0.07c0.35-0.02,0.69-0.05,1.03-0.08
				c0.42-0.04,0.84-0.07,1.25-0.12c0.35-0.04,0.7-0.08,1.04-0.12c0.41-0.05,0.82-0.11,1.22-0.17c0.35-0.05,0.7-0.11,1.04-0.17
				c0.4-0.07,0.8-0.14,1.2-0.22c0.34-0.07,0.69-0.13,1.03-0.21c0.13-0.03,0.25-0.05,0.38-0.08c0,0-0.01-0.01-0.01-0.01
				C622.83,264.04,637.56,249.36,637.61,230.69z"/>
			<g>
				
					<linearGradient id="SVGID_00000033341581393991787300000017909345641411644817_" gradientUnits="userSpaceOnUse" x1="567.3188" y1="195.916" x2="633.3604" y2="318.4034">
					<stop  offset="0" style="stop-color:#EFC250"/>
					<stop  offset="0.9964" style="stop-color:#D66F58"/>
				</linearGradient>
				<path style="fill:url(#SVGID_00000033341581393991787300000017909345641411644817_);" d="M632.08,230.3
					c-0.06,23.99-23.99,41.07-50.95,38.45c-24.55-2.38-42.95-20.53-43.02-40.77c-0.07-20.29,18.29-37.66,42.95-38.84
					C608.17,187.83,632.14,206.23,632.08,230.3z"/>
				<g>
					<path class="st3" d="M564.98,220.87c-1.66-0.02-2.93,0.66-3.83,2.02c-0.89,1.36-1.34,3.25-1.33,5.7
						c0.01,5.08,1.73,7.68,5.19,7.82c1.47,0.06,3.25-0.28,5.36-1.01l0.01,4.13c-1.74,0.71-3.66,1.02-5.78,0.92
						c-3.01-0.14-5.29-1.25-6.86-3.32c-1.56-2.06-2.34-4.95-2.35-8.68c-0.01-2.35,0.37-4.4,1.13-6.16c0.76-1.76,1.86-3.12,3.3-4.06
						c1.45-0.95,3.16-1.42,5.14-1.42c2.03,0,4.09,0.56,6.18,1.66l-1.45,4c-0.79-0.42-1.59-0.79-2.39-1.11
						C566.52,221.04,565.74,220.88,564.98,220.87z"/>
					<path class="st3" d="M589.59,234.6c0,2.17-0.74,3.85-2.21,5.04c-1.46,1.18-3.49,1.7-6.06,1.58c-2.35-0.11-4.41-0.68-6.19-1.7
						l-0.01-4.61c1.46,0.76,2.71,1.3,3.73,1.63c1.03,0.33,1.97,0.51,2.83,0.55c1.03,0.04,1.83-0.14,2.38-0.54
						c0.56-0.4,0.83-1.02,0.83-1.86c0-0.47-0.12-0.89-0.37-1.26c-0.25-0.37-0.6-0.73-1.08-1.08c-0.47-0.35-1.43-0.91-2.88-1.69
						c-1.35-0.72-2.35-1.39-3.02-2.03c-0.67-0.64-1.2-1.37-1.6-2.21c-0.4-0.83-0.6-1.8-0.6-2.9c0-2.08,0.65-3.7,1.95-4.89
						c1.31-1.19,3.13-1.78,5.48-1.78c1.16,0,2.27,0.15,3.33,0.45c1.07,0.3,2.18,0.72,3.36,1.26l-1.55,3.95
						c-1.21-0.54-2.2-0.92-2.99-1.13c-0.78-0.21-1.55-0.33-2.3-0.33c-0.89-0.01-1.57,0.21-2.05,0.64c-0.47,0.44-0.71,1.01-0.71,1.72
						c0,0.44,0.1,0.83,0.29,1.16c0.19,0.33,0.5,0.66,0.91,0.97c0.42,0.32,1.41,0.89,2.99,1.73c2.1,1.11,3.55,2.22,4.33,3.32
						C589.19,231.7,589.59,233.04,589.59,234.6z"/>
					<path class="st3" d="M609.46,235.29c0,2.25-0.8,3.99-2.38,5.21c-1.57,1.22-3.74,1.76-6.5,1.63c-2.52-0.12-4.73-0.71-6.63-1.77
						l0-4.77c1.57,0.79,2.9,1.35,4,1.7c1.1,0.34,2.11,0.53,3.03,0.57c1.11,0.04,1.96-0.14,2.55-0.56c0.6-0.42,0.9-1.06,0.9-1.93
						c0-0.48-0.13-0.92-0.39-1.31c-0.26-0.39-0.65-0.76-1.15-1.12c-0.51-0.36-1.53-0.95-3.08-1.75c-1.44-0.74-2.52-1.44-3.23-2.11
						c-0.71-0.66-1.28-1.42-1.71-2.29c-0.42-0.86-0.64-1.86-0.64-3c0-2.15,0.7-3.83,2.09-5.06c1.41-1.23,3.36-1.84,5.87-1.84
						c1.24,0,2.43,0.16,3.57,0.47c1.14,0.31,2.34,0.75,3.6,1.31l-1.67,4.09c-1.29-0.56-2.36-0.95-3.2-1.17
						c-0.84-0.22-1.66-0.34-2.47-0.35c-0.96-0.01-1.69,0.21-2.19,0.67c-0.51,0.45-0.76,1.05-0.76,1.78c0,0.46,0.1,0.86,0.31,1.2
						c0.2,0.34,0.53,0.68,0.98,1.01c0.45,0.33,1.51,0.92,3.2,1.79c2.25,1.16,3.8,2.3,4.64,3.44
						C609.03,232.28,609.46,233.66,609.46,235.29z"/>
				</g>
				<g class="st21">
					
						<linearGradient id="SVGID_00000059297216118288200100000005012404066050640801_" gradientUnits="userSpaceOnUse" x1="548.0562" y1="204.4063" x2="611.5699" y2="331.8631">
						<stop  offset="0" style="stop-color:#EFC250"/>
						<stop  offset="0.9964" style="stop-color:#D66F58"/>
					</linearGradient>
					<path style="fill:url(#SVGID_00000059297216118288200100000005012404066050640801_);" d="M592.66,259.56
						c-5.8-12.3,0.06-23.17-7.76-31.1c-7.74-7.85-17.45-0.94-27.55-7.18c-3.8-2.35-7.98-6.77-11.05-15.74
						c-5.19,6.33-8.22,14.07-8.19,22.45c0.07,20.24,18.47,38.38,43.02,40.77c5.95,0.58,11.77,0.19,17.23-1.04
						C595.65,264.9,593.87,262.12,592.66,259.56z"/>
				</g>
			</g>
		</g>
		<g>
			
				<linearGradient id="SVGID_00000123439130016854794670000004431077636894652054_" gradientUnits="userSpaceOnUse" x1="637.5073" y1="22.3661" x2="711.9058" y2="171.666">
				<stop  offset="0" style="stop-color:#EFC250"/>
				<stop  offset="0.9964" style="stop-color:#D66F58"/>
			</linearGradient>
			<path style="fill:url(#SVGID_00000123439130016854794670000004431077636894652054_);" d="M738.43,122.93
				c0-24.68-24.7-45.12-54.04-45.63c-16.66-0.29-31.14,5.95-40.16,15.74c0,0,0-0.01,0-0.01c-0.06,0.06-0.11,0.12-0.16,0.19
				c-0.16,0.17-0.31,0.35-0.46,0.52c-0.28,0.32-0.55,0.63-0.82,0.96c-0.16,0.19-0.31,0.38-0.47,0.58c-0.26,0.32-0.51,0.65-0.75,0.98
				c-0.14,0.19-0.28,0.38-0.42,0.57c-0.27,0.38-0.54,0.77-0.8,1.16c-0.09,0.14-0.19,0.28-0.28,0.42c-0.34,0.53-0.67,1.07-0.98,1.61
				c-0.08,0.14-0.16,0.29-0.24,0.44c-0.23,0.41-0.45,0.82-0.67,1.23c-0.1,0.2-0.2,0.41-0.3,0.62c-0.18,0.37-0.35,0.74-0.52,1.11
				c-0.1,0.22-0.19,0.43-0.29,0.65c-0.16,0.38-0.32,0.77-0.47,1.16c-0.08,0.2-0.16,0.41-0.23,0.61c-0.18,0.49-0.34,0.99-0.5,1.49
				c-0.03,0.1-0.07,0.21-0.1,0.31c-0.18,0.6-0.35,1.21-0.5,1.83c-0.04,0.18-0.08,0.36-0.12,0.55c-0.1,0.44-0.2,0.88-0.28,1.33
				c-0.04,0.23-0.08,0.46-0.12,0.68c-0.07,0.41-0.13,0.83-0.19,1.25c-0.03,0.23-0.06,0.47-0.09,0.7c-0.05,0.44-0.09,0.89-0.12,1.33
				c-0.01,0.21-0.03,0.41-0.05,0.62c-0.04,0.65-0.06,1.31-0.06,1.97c0,15.75,10.31,30.17,25.79,38.41c1.42,0.76,2.89,1.47,4.4,2.12
				c0.76,0.33,1.52,0.64,2.3,0.94c5.46,2.1,11.4,3.48,17.66,3.98l0,0l0,0l0,0c0.86,0.07,1.72,0.12,2.57,0.15
				c0.29,0.01,0.57,0.01,0.86,0.02c0.56,0.01,1.13,0.03,1.69,0.03c0.34,0,0.68-0.01,1.02-0.02c0.5-0.01,1-0.02,1.5-0.04
				c0.36-0.02,0.73-0.04,1.09-0.06c0.47-0.03,0.94-0.06,1.41-0.1c0.37-0.03,0.74-0.07,1.11-0.11c0.45-0.05,0.9-0.09,1.35-0.15
				c0.37-0.05,0.75-0.1,1.12-0.15c0.44-0.06,0.87-0.13,1.31-0.2c0.37-0.06,0.74-0.13,1.11-0.19c0.43-0.08,0.86-0.17,1.28-0.25
				c0.37-0.08,0.73-0.15,1.09-0.24c0.13-0.03,0.27-0.06,0.4-0.09c0,0-0.01-0.01-0.01-0.01
				C723.64,157.11,738.43,141.95,738.43,122.93z"/>
			<g>
				
					<linearGradient id="SVGID_00000109022662049332037950000005075777777914716588_" gradientUnits="userSpaceOnUse" x1="660.0591" y1="83.9622" x2="732.3239" y2="217.992">
					<stop  offset="0" style="stop-color:#EFC250"/>
					<stop  offset="0.9964" style="stop-color:#D66F58"/>
				</linearGradient>
				<path style="fill:url(#SVGID_00000109022662049332037950000005075777777914716588_);" d="M731.15,122.71
					c0,24.55-24.46,42.52-53.5,40.21c-27.88-2.21-49.67-22.42-49.67-45.21s21.79-40.89,49.67-40.4
					C706.7,77.82,731.15,98.15,731.15,122.71z"/>
				<g>
					<path class="st3" d="M656.19,128.43l-3.72-0.21v-8.06l-6.92-0.34v8.02l-3.68-0.2v-18.52l3.68,0.15v7.28l6.92,0.33v-7.32
						l3.72,0.15V128.43z"/>
					<path class="st3" d="M668.81,129.13l-3.8-0.21V113.4l-4.84-0.21v-3.31l13.54,0.56v3.35l-4.9-0.22V129.13z"/>
					<path class="st3" d="M685.54,130.06l-4.42-15.2l-0.11-0.01c0.16,3.05,0.24,5.08,0.24,6.1v8.87l-3.46-0.19v-19.02l5.28,0.22
						l4.36,14.82l0.08,0l4.65-14.45l5.39,0.22v19.29l-3.7-0.2v-9.11c0-0.43,0.01-0.93,0.02-1.49c0.01-0.56,0.07-2.05,0.17-4.47
						l-0.11-0.01l-4.79,14.8L685.54,130.06z"/>
					<path class="st3" d="M703.59,131.06v-19.37l4.02,0.17v16.02l7.75,0.41v3.42L703.59,131.06z"/>
				</g>
				<g class="st21">
					
						<linearGradient id="SVGID_00000147182276010908613240000003356308541672407949_" gradientUnits="userSpaceOnUse" x1="639.7753" y1="91.7368" x2="710.2167" y2="233.0957">
						<stop  offset="0" style="stop-color:#EFC250"/>
						<stop  offset="0.9964" style="stop-color:#D66F58"/>
					</linearGradient>
					<path style="fill:url(#SVGID_00000147182276010908613240000003356308541672407949_);" d="M690.27,152.92
						c-6.3-13.15,0.07-24.68-8.44-33.33c-8.54-8.68-19.47-1.51-31.05-8.69c-4.42-2.74-9.31-7.81-12.92-17.94
						c-6.22,6.78-9.89,15.33-9.89,24.75c0,22.8,21.79,43,49.67,45.21c6.55,0.52,12.87,0.01,18.74-1.39
						C693.49,158.58,691.57,155.64,690.27,152.92z"/>
				</g>
			</g>
		</g>
		<g>
			
				<linearGradient id="SVGID_00000018213641154516955240000001217460184579526322_" gradientUnits="userSpaceOnUse" x1="503.8532" y1="-74.1646" x2="569.343" y2="57.2576">
				<stop  offset="0" style="stop-color:#EFC250"/>
				<stop  offset="0.9964" style="stop-color:#D66F58"/>
			</linearGradient>
			<path style="fill:url(#SVGID_00000018213641154516955240000001217460184579526322_);" d="M607.12,43.99
				c0-22.71-20.95-40.44-45.9-39.63c-14.21,0.46-26.57,6.87-34.29,16.32c0,0,0-0.01,0-0.01c-0.05,0.06-0.09,0.12-0.14,0.18
				c-0.13,0.17-0.26,0.33-0.39,0.5c-0.24,0.31-0.47,0.61-0.7,0.92c-0.14,0.18-0.27,0.37-0.4,0.55c-0.22,0.31-0.43,0.62-0.65,0.94
				c-0.12,0.18-0.24,0.36-0.36,0.54c-0.23,0.37-0.46,0.74-0.68,1.11c-0.08,0.13-0.17,0.27-0.24,0.4c-0.29,0.5-0.57,1.02-0.84,1.53
				c-0.07,0.14-0.14,0.28-0.21,0.42c-0.2,0.39-0.39,0.78-0.57,1.17c-0.09,0.19-0.17,0.39-0.26,0.58c-0.15,0.35-0.3,0.7-0.45,1.05
				c-0.08,0.21-0.16,0.41-0.24,0.62c-0.14,0.36-0.27,0.73-0.4,1.1c-0.07,0.19-0.14,0.38-0.2,0.58c-0.15,0.46-0.29,0.93-0.43,1.4
				c-0.03,0.1-0.06,0.19-0.09,0.29c-0.16,0.57-0.3,1.14-0.43,1.71c-0.04,0.17-0.07,0.34-0.1,0.51c-0.09,0.41-0.17,0.83-0.24,1.24
				c-0.04,0.21-0.07,0.43-0.1,0.64c-0.06,0.39-0.11,0.77-0.16,1.16c-0.03,0.22-0.05,0.44-0.07,0.66c-0.04,0.41-0.07,0.82-0.1,1.24
				c-0.01,0.19-0.03,0.38-0.04,0.58c-0.03,0.61-0.05,1.21-0.05,1.82c0,14.57,8.83,27.43,22.06,34.31c1.22,0.63,2.47,1.22,3.76,1.75
				c0.65,0.27,1.3,0.52,1.96,0.76c4.66,1.67,9.73,2.67,15.06,2.82l0,0l0,0c0,0,0,0,0,0c0.73,0.02,1.47,0.02,2.19,0.01
				c0.25,0,0.49-0.02,0.73-0.02c0.48-0.01,0.96-0.03,1.44-0.06c0.29-0.02,0.58-0.04,0.87-0.07c0.43-0.03,0.85-0.06,1.28-0.11
				c0.31-0.03,0.62-0.07,0.93-0.11c0.4-0.05,0.8-0.1,1.2-0.16c0.32-0.05,0.63-0.1,0.95-0.15c0.38-0.06,0.77-0.13,1.15-0.2
				c0.32-0.06,0.64-0.13,0.95-0.19c0.37-0.08,0.74-0.16,1.11-0.25c0.32-0.07,0.63-0.15,0.95-0.23c0.37-0.09,0.73-0.19,1.09-0.3
				c0.31-0.09,0.62-0.18,0.93-0.27c0.11-0.03,0.23-0.06,0.34-0.1c0,0,0-0.01-0.01-0.01C594.58,76.15,607.12,61.5,607.12,43.99z"/>
			<g>
				
					<linearGradient id="SVGID_00000055679614003662931850000018262364042995643061_" gradientUnits="userSpaceOnUse" x1="542.3657" y1="12.1576" x2="605.9763" y2="130.1364">
					<stop  offset="0" style="stop-color:#EFC250"/>
					<stop  offset="0.9964" style="stop-color:#D66F58"/>
				</linearGradient>
				<path style="fill:url(#SVGID_00000055679614003662931850000018262364042995643061_);" d="M603.69,43.99
					c0,22.65-20.84,40.41-45.67,39.68c-23.9-0.7-42.63-18.39-42.63-39.54c0-21.15,18.73-38.9,42.63-39.68
					C582.85,3.66,603.69,21.34,603.69,43.99z"/>
				<g>
					<path class="st3" d="M546.82,54.96l-17.72-9.02v-2.9l17.72-10.26v4.94l-12.26,6.55l12.26,5.77V54.96z"/>
					<path class="st3" d="M565.67,28.77l-10.08,30.46l-5.06-0.05l10-30.34L565.67,28.77z"/>
					<path class="st3" d="M569.42,50.11l12.95-5.91l-12.95-6.63v-5.03l18.89,10.35v3.04l-18.89,9.19V50.11z"/>
				</g>
				<g class="st21">
					
						<linearGradient id="SVGID_00000153665148489817340340000015082274495318501280_" gradientUnits="userSpaceOnUse" x1="524.8968" y1="19.9981" x2="586.6927" y2="144.0077">
						<stop  offset="0" style="stop-color:#EFC250"/>
						<stop  offset="0.9964" style="stop-color:#D66F58"/>
					</linearGradient>
					<path style="fill:url(#SVGID_00000153665148489817340340000015082274495318501280_);" d="M568.82,73.82
						c-5.39-11.86,0.06-22.82-7.21-30.43c-7.31-7.64-16.68-0.5-26.61-6.61c-3.8-2.34-8-6.81-11.1-16.04
						c-5.35,6.57-8.51,14.67-8.51,23.4c0,21.15,18.73,38.84,42.63,39.54c5.6,0.16,11.01-0.62,16.03-2.19
						C571.57,78.9,569.93,76.27,568.82,73.82z"/>
				</g>
			</g>
		</g>
		<g>
			<g>
				<g>
					<g>
						<g>
							<g>
								<path class="st29" d="M485.59,665.26c0,0,2.73,68.72,4.36,68.9s66.16,2.3,69.07,0.66c2.91-1.64-42.34-25.57-47.8-27.21
									l-0.55-51.27L485.59,665.26z"/>
								<path class="st30" d="M503.96,722.71c0,0-0.03-19.24-16.47-16.89c0,0-1.38,28.71,0,29.62c1.38,0.91,72.45,3.94,74.26,1.39
									c1.82-2.55-22.91-18.09-29.07-19.03c-6.16-0.94-8,10.91-8,10.91S506.14,728.16,503.96,722.71z"/>
							</g>
							<g>
								<path class="st29" d="M416.99,649.58c0,0-27.81,84.96-29.45,84.99c-1.65,0.03-60.83,0.54-63.58-1.35
									c-2.75-1.89,40.87-21.15,46.45-22.29l13.02-67.65L416.99,649.58z"/>
								<path class="st30" d="M378.45,724.58c0,0,3.08-20.23,16.37-8.93c0,0-3.49,19.64-4.94,20.42
									c-1.45,0.78-67.24,1.61-68.82-1.09c-1.58-2.7,29.29-19.54,32.09-17.25c2.92,2.39,0.3,8.3,0.3,8.3
									S374.54,726.8,378.45,724.58z"/>
							</g>
						</g>
						<g>
							<g>
								<path class="st31" d="M431.76,290.19c-4.34,0-8.5-1.54-11.82-4.4c-3.67-3.16-5.89-7.57-6.24-12.4
									c-0.36-4.83,1.19-9.51,4.35-13.18c3.16-3.67,7.57-5.89,12.4-6.24c9.97-0.73,18.69,6.78,19.43,16.76
									c0.74,9.98-6.78,18.69-16.76,19.43C432.67,290.17,432.22,290.19,431.76,290.19z M431.8,256.68c-0.38,0-0.76,0.01-1.14,0.04
									c-4.09,0.3-7.82,2.18-10.5,5.29c-2.68,3.11-3.99,7.07-3.69,11.17c0.3,4.09,2.18,7.82,5.29,10.5c3.11,2.68,7.08,4,11.17,3.69
									c8.45-0.62,14.82-8.01,14.19-16.46C446.52,262.85,439.76,256.68,431.8,256.68z"/>
							</g>
							<path class="st29" d="M432.88,244.85c0,0-13.1,60.02,2.3,73.07c15.41,13.05,5.66-77.01,5.66-77.01L432.88,244.85z"/>
							<g>
								<path class="st29" d="M508.39,345.69c0,0,27.19,65.4,23.17,80.29c-4.03,14.89-32.7,21.77-32.7,21.77L508.39,345.69z"/>
								<path class="st29" d="M432.5,377.87c0,0-83.16-16.12-88.97-30.68c-5.81-14.56-8.57-67.99-8.57-67.99l12.7,1.03
									c0,0,9.13,48.8,15.12,49.85c5.99,1.05,80.42,10.14,80.42,10.14L432.5,377.87z"/>
								<path class="st29" d="M508.39,345.69c0,0-7.57,70.98-3.03,114.5c4.54,43.52-86.21-6.55-86.21-6.55s1.45-4.31,10.14-84.06
									C437.98,289.84,508.39,345.69,508.39,345.69z"/>
								<path class="st31" d="M507.51,457.41c0,0,24.88,213.27,16.19,219.13c-8.69,5.86-48.88,6.22-58.15,4.3l-5.82-140.07
									l-10.3-1.89l-22.75,138.97c0,0-54.97-5.08-62.25-6.5c-7.28-1.42,47.74-221.83,51.23-222.14
									C422.14,448.63,507.51,457.41,507.51,457.41z"/>
								<path class="st32" d="M506.34,485.68c0,0,0.63,30.96-4.32,36.7c-4.95,5.74-16.07,8.63-16.07,8.63s-18.16-1.97-20.29-8.42
									c-2.13-6.46-1.24-39.18-1.24-39.18L506.34,485.68z"/>
								<path class="st32" d="M413.22,476.09c0,0-7.61,30.02-4.08,36.72c3.53,6.71,13.71,12.04,13.71,12.04s18.14,2.19,21.67-3.62
									c3.53-5.81,10.06-37.89,10.06-37.89L413.22,476.09z"/>
								<g>
									<polygon class="st32" points="504.41,459.58 503.66,473.05 499.21,472.78 499.71,459.32 									"/>
									<polygon class="st32" points="488.24,458.48 487.2,472.21 482.36,472.09 482.99,457.78 									"/>
									<polygon class="st32" points="471.18,457.97 469.54,470.38 464.43,469.91 465.64,456.88 									"/>
									<polygon class="st32" points="460.71,457.25 459.51,469.3 454.42,468.59 455.92,456.27 									"/>
									<polygon class="st32" points="442.2,455.47 440.49,468.29 435.04,468.21 436.71,454.79 									"/>
									<polygon class="st32" points="425.91,454.26 423.53,466.24 418.27,465.34 420.38,452.97 									"/>
								</g>
								<path class="st3" d="M399.16,331.28c0,0,39.49,5.07,41.01,5.55c1.52,0.48,57.61,9.65,57.61,9.65l6.95,0.72
									c7.2,0.75,13.15,5.93,14.88,12.96l6.25,25.45c0,0-10.11,8.33-21.56,8.96l3.42,46.31c0,0-81.36-4.95-87.53-6.87l5.27-55.63
									c0,0-8.76-2.2-33.76-7.76C391.7,370.63,388.85,348.06,399.16,331.28z"/>
								<path class="st33" d="M439.02,249.99c0,0-14.67-1.13-16.18-3.67c-1.51-2.54,6.22-23.44,51.35-22.79
									c45.12,0.64,40.13,64.65,40.13,64.65l-4.86,96.44c0,0-46.37,10.75-85.8-11.08L439.02,249.99z"/>
							</g>
							<path class="st31" d="M418.35,262.06c0,0,49.41-2.65,53.59,1.07c4.18,3.71,4.81,10.68-0.21,9.67
								c-5.02-1.01,2.29-7.87-5.51-7.64c-7.8,0.23-49.68-0.06-49.68-0.06L418.35,262.06z"/>
							<path class="st29" d="M440.95,266.91c0,0,3.41-6.45,11.43-4.06c8.02,2.38,3.87,30.64-11.7,23.74L440.95,266.91z"/>
						</g>
					</g>
					<path class="st29" d="M335.5,288.1c0,0-8.97-19.38-6.53-22.43c0.38-0.47,3.06-0.24,3.64-0.9c0.7-0.79,1.31-1.56,1.83-1.78
						c1.85-0.77,3.36,0.67,3.36,0.67s1.68-2.47,2.9-2.36c1.22,0.12,2.52,1,2.52,1s-0.61-16.31,2.75-17.22
						c3.36-0.92,3.85,20.95,3.85,20.95s4,1.03,4,2.74c0,1.72,1.5,10.77-4.92,17.76C344.48,291.36,335.5,288.1,335.5,288.1z"/>
				</g>
			</g>
		</g>
	</g>
</g>
<g id="OBJECTS">
</g>
</svg>
