<?xml version="1.0" encoding="utf-8"?>
<!-- Generator: Adobe Illustrator 27.0.0, SVG Export Plug-In . SVG Version: 6.00 Build 0)  -->
<svg version="1.1" xmlns="http://www.w3.org/2000/svg" xmlns:xlink="http://www.w3.org/1999/xlink" x="0px" y="0px"
	 viewBox="0 0 3096.33 290.85" style="enable-background:new 0 0 3096.33 290.85;" xml:space="preserve">
<style type="text/css">
	.st0{fill:#F2F2F2;}
	.st1{fill:#679FC1;}
	.st2{fill:#BAD7DF;}
	.st3{fill:#FFFFFF;}
	.st4{clip-path:url(#SVGID_00000004530498399489148160000006459889374073752985_);}
	.st5{clip-path:url(#SVGID_00000100383358033680024620000008432431191313506991_);}
	.st6{fill:url(#SVGID_00000016060254563795936740000001170361972171104412_);}
	.st7{fill:url(#SVGID_00000127021273094988330840000010371168800685117576_);}
	.st8{fill:url(#SVGID_00000072246522712514795440000004841872674207640732_);}
	.st9{fill:url(#SVGID_00000007410831440803118740000003811083758518767491_);}
	.st10{fill:url(#SVGID_00000018926278431045078900000012238179208931134851_);}
	.st11{opacity:0.48;fill:#FFFFFF;}
	.st12{fill:url(#SVGID_00000134962087770914022770000001183214392043298968_);}
	.st13{opacity:0.3;fill:url(#SVGID_00000121964989460305370000000016504715145777154701_);}
	.st14{opacity:0.75;}
	.st15{fill:url(#SVGID_00000011750597141030572120000003326889229180338338_);}
	.st16{opacity:0.74;fill:#FFFFFF;}
	.st17{fill:url(#SVGID_00000139980333283070190600000003873489851733403577_);}
	.st18{opacity:0.5;}
	.st19{fill:url(#SVGID_00000150099291730369165530000012267227886051277186_);}
	.st20{fill:url(#SVGID_00000113336045412680975720000012465319488654060942_);}
	.st21{opacity:0.3;}
	.st22{fill:url(#SVGID_00000111153487935615903490000006071737469195964832_);}
	.st23{fill:url(#SVGID_00000176041398978306381480000004048397958849508286_);}
	.st24{fill:url(#SVGID_00000060708727502800261890000012526833921210671544_);}
	.st25{fill:url(#SVGID_00000031202096898679705360000006654593528338590092_);}
	.st26{fill:url(#SVGID_00000074420045403819488620000005122566071093474720_);}
	.st27{fill:url(#SVGID_00000154403235892550139210000005735247604390043306_);}
	.st28{fill:url(#SVGID_00000052805328762312077770000007382677659931556229_);}
	.st29{fill:#F0C9B4;}
	.st30{fill:#A1B776;}
	.st31{fill:#E48862;}
	.st32{fill:#BD7759;}
	.st33{fill:#735546;}
	.st34{fill:#FFE2E2;}
	.st35{fill:#A1D0F2;}
	.st36{opacity:0.39;fill:#99DDCC;}
	.st37{opacity:0.39;fill:#BAD7DF;}
	.st38{fill:#FFFFFF;stroke:#BCBCBC;stroke-width:2;stroke-miterlimit:10;}
	.st39{clip-path:url(#SVGID_00000182502270636473675650000013946425493011892923_);}
	.st40{fill:#FFA727;}
	.st41{fill:#25292B;}
	.st42{fill:#FFBD29;}
	.st43{fill:#F2E9DA;}
	.st44{fill:#383838;}
	.st45{clip-path:url(#SVGID_00000158748319468524211010000017989314367549091997_);}
	.st46{clip-path:url(#SVGID_00000155134315132150937190000007044956623112363919_);}
	.st47{fill:url(#SVGID_00000129917487816667551510000017319189233964492417_);}
	.st48{fill:url(#SVGID_00000085944307103187152380000017016564431838469808_);}
	.st49{fill:url(#SVGID_00000095314372235174544510000003830123580792907911_);}
	.st50{fill:url(#SVGID_00000039837923160323368730000017727676953345047433_);}
	.st51{fill:url(#SVGID_00000078727825007628306140000000158538434930175897_);}
	.st52{fill:url(#SVGID_00000124878976605402791860000007866779934655206326_);}
	.st53{opacity:0.3;fill:url(#SVGID_00000085223011969229412990000013192485269994065343_);}
	.st54{fill:url(#SVGID_00000095302069007783787640000017049150069341489064_);}
	.st55{fill:url(#SVGID_00000181067608487115796800000016701909106285554585_);}
	.st56{fill:url(#SVGID_00000131350352027049281330000015099500371039924368_);}
	.st57{fill:url(#SVGID_00000130630526603616608860000002719395821271453829_);}
	.st58{fill:url(#SVGID_00000026158920660104773510000012207150669212785055_);}
	.st59{fill:url(#SVGID_00000101092576097854825860000017130452682907078302_);}
	.st60{fill:url(#SVGID_00000016056193099046910440000002951851183191023005_);}
	.st61{fill:url(#SVGID_00000034054264878262407550000009550394357838707385_);}
	.st62{fill:url(#SVGID_00000134225687389129050340000015099852071951869857_);}
	.st63{fill:url(#SVGID_00000152262167462656256870000016931414651163046045_);}
	.st64{fill:url(#SVGID_00000020369750475187766930000017927311175726632079_);}
	.st65{clip-path:url(#SVGID_00000011745335759850729590000016108958218844006537_);}
	.st66{fill:#F2D9AF;}
	.st67{opacity:0.3;fill:#99DDCC;}
	.st68{clip-path:url(#SVGID_00000005973384871084291260000017644510269435760564_);}
	.st69{opacity:0.2;fill:#383838;}
	.st70{fill:#F4CA60;}
	.st71{clip-path:url(#SVGID_00000070080318850527245680000008437944294274555270_);fill:#FFFFFF;}
	.st72{clip-path:url(#SVGID_00000034088283133272583520000001415713996898762173_);fill:#FFFFFF;}
	.st73{fill:#8CB1CC;}
	.st74{fill:#A3D2F4;}
	.st75{fill:#222220;}
	.st76{fill:#D66156;}
	.st77{fill:#684D3F;}
	.st78{fill:#5B3F30;}
	.st79{fill:none;stroke:#D66156;stroke-width:1.3728;stroke-miterlimit:10;}
	.st80{fill:#EF8A62;}
	.st81{fill:#CCED98;}
	.st82{fill:#EEEEEE;}
	.st83{fill:#F2CBB6;}
	.st84{fill:#BF7759;}
	.st85{fill:#C8A34C;}
	.st86{clip-path:url(#SVGID_00000088839815733007382810000013556961252861031317_);fill:#FFFFFF;}
	.st87{fill:#E29D7F;}
	.st88{clip-path:url(#SVGID_00000096768765095301666980000000397059168099012233_);fill:#FFFFFF;}
	.st89{fill:#D9D9D9;}
	.st90{fill:#C48B71;}
	.st91{fill:#32241B;}
	.st92{fill:#E8BA52;}
	.st93{fill:#67837A;}
	.st94{fill:#84A397;}
	.st95{fill:#A9C5BB;}
	.st96{fill:#EAE2D7;}
	.st97{fill:#454446;}
	.st98{fill:#BCBEC0;}
	.st99{fill:#A6BDD5;}
	.st100{fill:#B98636;}
	.st101{fill:#BE7140;}
	.st102{opacity:0.5;fill:#A6BDD5;}
	.st103{fill:#F0C860;}
	.st104{opacity:0.2;}
	.st105{clip-path:url(#SVGID_00000089531884719292777450000005486827571453581732_);fill:#383838;}
	.st106{clip-path:url(#SVGID_00000128449545607012387810000008620314172335860635_);fill:#383838;}
	.st107{fill:#BA9B9B;}
	.st108{fill:#D46156;}
	.st109{fill:none;stroke:#D46156;stroke-width:1.3728;stroke-miterlimit:10;}
	.st110{fill:#CAEB96;}
	.st111{fill:#ECECEC;}
	.st112{fill:#C6A24C;}
	.st113{clip-path:url(#SVGID_00000134217614198919244060000017419264647908839337_);fill:#383838;}
	.st114{fill:#E09B7E;}
	.st115{clip-path:url(#SVGID_00000068645035399911402580000016372871468751455117_);fill:#383838;}
	.st116{fill:#C28971;}
	.st117{fill:#E6B852;}
	.st118{clip-path:url(#SVGID_00000097493912330754597060000010638514293666630022_);fill:#383838;}
	.st119{clip-path:url(#SVGID_00000111188999219356627490000001233957581690262172_);fill:#383838;}
	.st120{clip-path:url(#SVGID_00000048487828943638888770000003533429991277616521_);fill:#383838;}
	.st121{clip-path:url(#SVGID_00000155826799112864264040000015434538235342455949_);fill:#383838;}
	.st122{clip-path:url(#XMLID_00000134967167795128024350000012655173848056911244_);}
	.st123{fill:#180037;}
	.st124{fill:#659FFB;}
	.st125{clip-path:url(#XMLID_00000080923015587432898980000007094342947703358340_);}
	.st126{fill:#1D1635;}
	.st127{clip-path:url(#XMLID_00000093879131551084238950000014241742418306180493_);}
	.st128{clip-path:url(#XMLID_00000026162695904378288050000016892721571504547460_);}
	.st129{clip-path:url(#XMLID_00000063605097894695294250000005638071704150065849_);}
	.st130{clip-path:url(#XMLID_00000112601652870329320690000001345961261300837567_);}
	.st131{clip-path:url(#XMLID_00000064326541289903683230000017004528192121780638_);}
	.st132{clip-path:url(#XMLID_00000083070681164385861070000013071933521579535775_);}
	.st133{clip-path:url(#XMLID_00000070833441022332050640000013226716839459409537_);}
	.st134{clip-path:url(#XMLID_00000017494942798673283790000014042556017552326816_);}
	.st135{clip-path:url(#XMLID_00000129915544800538712680000004785142455466395327_);}
	.st136{clip-path:url(#XMLID_00000036247843537562794880000011354324496508588210_);}
	.st137{fill:#707070;}
</style>
<g id="BACKGROUND">
	<path class="st67" d="M2783.84,108.02c-34.1,5.33-68.81,6.47-103.24,3.46c-66.73-5.82-130.5-26.44-194.22-44.57
		c-78.63-22.36-158.32-39.64-240.59-44.44c-85.06-4.97-168.4,3.37-251.3,18.29c-102.64,45.63-219.44,35.21-299.88,18.24
		c-0.01,0-0.01,0-0.02,0c-0.26-0.06-0.52-0.11-0.79-0.17c-166.72-35.44-384.75-36.37-384.75-36.37
		c-126.57,4.8-249.17,22.08-370.13,44.44c-98.04,18.12-196.13,38.74-298.79,44.57c-52.96,3-106.35,1.87-158.82-3.46
		c-58.65-5.96-113.44-19.41-171.19-27.32C208.53,66.8,102.88,61.12-1.04,58.12v232.72l61.44-17.29
		c61.21-17.36,184.09-51.95,306.74-65.49c122.65-13.54,245.53-5.9,368.19,9.85c97.01,12.46,193.02,30.05,292.4,34.14
		c95.04,3.91,187.23-8.95,276.31-28.12c88.2-18.98,173.16-43.03,261.51-61.79c41.94-8.9,84.16-17.29,126.52-25.42
		c100.31-11.57,242.63-12.89,403.19,30.88c51.66,17.81,101.85,39.14,153.77,56.33c57.9,19.17,117.83,32.03,179.61,28.12
		c64.6-4.09,127.01-21.68,190.07-34.14c79.73-15.75,159.6-23.4,239.33-9.85c79.73,13.54,159.6,48.13,199.39,65.49l39.94,17.29V58.12
		c-67.54,3-136.22,8.68-202.25,22.58C2857.57,88.61,2821.96,102.06,2783.84,108.02z"/>
	<path class="st2" d="M2145.19,0h-244.46h-60.83H-1.04v58.12c103.91,3,209.56,8.68,311.15,22.58
		c57.76,7.9,112.55,21.35,171.19,27.32c52.46,5.34,105.86,6.47,158.82,3.46c102.66-5.82,200.76-26.44,298.79-44.57
		c120.96-22.36,243.56-39.64,370.13-44.44c0,0,218.03,0.93,384.75,36.37c0.26,0.06,0.52,0.11,0.79,0.17c0.01,0,0.01,0,0.02,0
		c55.33,11.67,127.84,20.24,201.13,9.61l0,0c21.48-3.12,43.03-7.88,64.23-14.7c52.55-11.57,125.07-26.38,168.54-30.44
		c38.81-2.74,77.86-3.3,117.29-1c82.27,4.8,161.96,22.08,240.59,44.44c63.73,18.12,127.49,38.74,194.22,44.57
		c34.42,3,69.13,1.87,103.24-3.46c38.12-5.96,73.74-19.41,111.28-27.32c66.03-13.9,134.71-19.59,202.25-22.58V0H2145.19z"/>
</g>
<g id="OBJECTS">
</g>
</svg>
